<svg width="16" height="17" viewBox="0 0 16 17" fill="none" xmlns="http://www.w3.org/2000/svg">
<g id="animate=03">
<path id="Subtract" fill-rule="evenodd" clip-rule="evenodd" d="M0 8.35828C0 8.35832 0 8.35836 0 8.3584C0 12.7767 3.58172 16.3584 8 16.3584C12.4183 16.3584 16 12.7767 16 8.3584C16 3.94012 12.4183 0.358398 8 0.358398V1.3584C11.866 1.3584 15 4.49241 15 8.3584C15 12.2244 11.866 15.3584 8 15.3584C4.13401 15.3584 1 12.2244 1 8.3584C1 8.35836 1 8.35832 1 8.35828H0ZM4 8.35828C4 8.35832 4 8.35836 4 8.3584C4 10.5675 5.79086 12.3584 8 12.3584C10.2091 12.3584 12 10.5675 12 8.3584C12 6.14926 10.2091 4.3584 8 4.3584V5.3584C9.65685 5.3584 11 6.70154 11 8.3584C11 10.0153 9.65685 11.3584 8 11.3584C6.34315 11.3584 5 10.0153 5 8.3584C5 8.35836 5 8.35832 5 8.35828H4Z" fill="#223F44"/>
</g>
</svg>
