<svg width="16" height="17" viewBox="0 0 16 17" fill="none" xmlns="http://www.w3.org/2000/svg">
<g id="animate=02">
<path id="Subtract" fill-rule="evenodd" clip-rule="evenodd" d="M8 15.3584C11.866 15.3584 15 12.2244 15 8.3584H16C16 12.7767 12.4183 16.3584 8 16.3584C3.58172 16.3584 0 12.7767 0 8.3584C0 3.94012 3.58172 0.358398 8 0.358398V1.3584C4.13401 1.3584 1 4.49241 1 8.3584C1 12.2244 4.13401 15.3584 8 15.3584ZM8 4.3584C5.79086 4.3584 4 6.14926 4 8.3584C4 10.5675 5.79086 12.3584 8 12.3584C10.2091 12.3584 12 10.5675 12 8.3584H11C11 10.0153 9.65685 11.3584 8 11.3584C6.34315 11.3584 5 10.0153 5 8.3584C5 6.70154 6.34315 5.3584 8 5.3584V4.3584Z" fill="#223F44"/>
</g>
</svg>
