<svg width="16" height="17" viewBox="0 0 16 17" fill="none" xmlns="http://www.w3.org/2000/svg">
<g id="animate=01">
<path id="Subtract" fill-rule="evenodd" clip-rule="evenodd" d="M15 8.3584C15 4.49241 11.866 1.3584 8 1.3584C4.13401 1.3584 1 4.49241 1 8.3584C1 12.2244 4.13401 15.3584 8 15.3584V16.3584C3.58172 16.3584 0 12.7767 0 8.3584C0 3.94012 3.58172 0.358398 8 0.358398C12.4183 0.358398 16 3.94012 16 8.3584H15ZM12 8.3584C12 6.14926 10.2091 4.3584 8 4.3584C5.79086 4.3584 4 6.14926 4 8.3584C4 10.5675 5.79086 12.3584 8 12.3584V11.3584C6.34315 11.3584 5 10.0153 5 8.3584C5 6.70154 6.34315 5.3584 8 5.3584C9.65685 5.3584 11 6.70154 11 8.3584H12Z" fill="#223F44"/>
</g>
</svg>
