<svg width="16" height="16" viewBox="0 0 16 16" fill="none" xmlns="http://www.w3.org/2000/svg">
<g id="icon=column" clip-path="url(#clip0_277_31033)">
<path id="vector" d="M15.4793 0.520693C15.1459 0.187289 14.6937 0 14.2222 0H1.77778C1.30626 0 0.854098 0.187289 0.520693 0.520693C0.187289 0.854098 0 1.30626 0 1.77778V14.2222C0 14.6937 0.187289 15.1459 0.520693 15.4793C0.854098 15.8127 1.30626 16 1.77778 16H14.2222C14.6937 16 15.1459 15.8127 15.4793 15.4793C15.8127 15.1459 16 14.6937 16 14.2222V1.77778C16 1.30626 15.8127 0.854098 15.4793 0.520693ZM5.33333 10.6667V12.4444H3.55556V10.6667H5.33333ZM5.33333 7.11111V8.88889H3.55556V7.11111H5.33333ZM5.33333 3.55556V5.33333H3.55556V3.55556H5.33333ZM12.4444 10.6667V12.4444H7.11111V10.6667H12.4444ZM12.4444 7.11111V8.88889H7.11111V7.11111H12.4444ZM12.4444 3.55556V5.33333H7.11111V3.55556H12.4444Z" fill="#223F44"/>
</g>
<defs>
<clipPath id="clip0_277_31033">
<rect width="16" height="16" fill="white"/>
</clipPath>
</defs>
</svg>
