<svg width="16" height="16" viewBox="0 0 16 16" fill="none" xmlns="http://www.w3.org/2000/svg">
<g id="icon=show">
<path id="vector" d="M3.9381 4.28806C2.44854 5.18392 1.08082 6.43483 0 7.68574C0.962908 8.82105 2.0791 9.95223 3.34856 10.8151C4.71236 11.744 6.26087 12.3715 7.99804 12.3715C9.73913 12.3715 11.2876 11.744 12.6475 10.8151C13.9209 9.95223 15.0371 8.82105 16 7.68574C14.9192 6.43483 13.5515 5.18392 12.058 4.28806C10.7571 3.50779 9.36576 3 7.99804 3C6.63031 3 5.23901 3.50779 3.9381 4.28806ZM7.99804 4.09815C8.94129 4.09815 9.79415 4.49861 10.4151 5.1509C11.0322 5.79906 11.4134 6.69492 11.4134 7.68574C11.4134 8.67242 11.0322 9.56829 10.4151 10.2206C9.79808 10.8687 8.94129 11.2692 7.99804 11.2692C7.05478 11.2692 6.20192 10.8687 5.58487 10.2206C4.96782 9.57242 4.58659 8.67655 4.58659 7.68574C4.58659 6.69905 4.96782 5.79906 5.58487 5.1509C6.20192 4.49861 7.05871 4.09815 7.99804 4.09815ZM5.50626 7.68574C5.50626 8.40821 5.78531 9.06049 6.23729 9.53526C6.68927 10.01 7.31024 10.3031 7.99804 10.3031C8.68976 10.3031 9.31073 10.01 9.76271 9.53526C10.2108 9.06462 10.4898 8.40821 10.4898 7.68574C10.4898 6.96327 10.2108 6.30685 9.76271 5.83621C9.31073 5.36145 8.68583 5.06833 7.99804 5.06833C7.31024 5.06833 6.68534 5.36145 6.23729 5.83208C5.78531 6.30272 5.50626 6.95914 5.50626 7.68574Z" fill="#223F44"/>
</g>
</svg>
