<svg width="110" height="110" viewBox="0 0 110 110" fill="none" xmlns="http://www.w3.org/2000/svg">
<g id="icon=complete">
<path id="Union" fill-rule="evenodd" clip-rule="evenodd" d="M55 0C24.6243 0 0 24.6243 0 55C0 85.3757 24.6243 110 55 110C85.3757 110 110 85.3757 110 55C110 24.6243 85.3757 0 55 0ZM3.20388 55C3.20388 26.3938 26.3938 3.20388 55 3.20388C83.6062 3.20388 106.796 26.3938 106.796 55C106.796 83.6062 83.6062 106.796 55 106.796C26.3938 106.796 3.20388 83.6062 3.20388 55ZM44.9574 76.0385L86.5795 35.0255L84.3308 32.7434L43.8414 72.6402L25.8806 54.6794L23.6151 56.9449L42.7003 76.0301L43.8248 77.1546L44.9574 76.0385Z" fill="#51738B"/>
</g>
</svg>
