<svg width="16" height="16" viewBox="0 0 16 16" fill="none" xmlns="http://www.w3.org/2000/svg">
<g id="icon=complete-stroke" clip-path="url(#clip0_143_2563)">
<path id="vector" fill-rule="evenodd" clip-rule="evenodd" d="M15 8C15 11.866 11.866 15 8 15C4.13401 15 1 11.866 1 8C1 4.13401 4.13401 1 8 1C11.866 1 15 4.13401 15 8ZM16 8C16 12.4183 12.4183 16 8 16C3.58172 16 0 12.4183 0 8C0 3.58172 3.58172 0 8 0C12.4183 0 16 3.58172 16 8ZM11.8072 6.17551C12.0643 5.90629 12.0643 5.47113 11.8072 5.20191C11.5501 4.9327 11.1346 4.9327 10.8775 5.20191L6.928 9.33787L5.12251 7.44714C4.86543 7.17792 4.44989 7.17792 4.19281 7.44714C3.93573 7.71635 3.93573 8.15151 4.19281 8.42073L6.46315 10.7983C6.5861 10.9277 6.75376 11 6.928 11C7.10224 11 7.26924 10.9277 7.39285 10.7983L11.8072 6.17551Z" fill="#223F44"/>
</g>
<defs>
<clipPath id="clip0_143_2563">
<rect width="16" height="16" fill="white"/>
</clipPath>
</defs>
</svg>
