<svg width="16" height="16" viewBox="0 0 16 16" fill="none" xmlns="http://www.w3.org/2000/svg">
<g id="icon=list">
<path id="vector" d="M0 8.22222C0 8.71314 0.397969 9.11111 0.888889 9.11111C1.37981 9.11111 1.77778 8.71314 1.77778 8.22222C1.77778 7.7313 1.37981 7.33333 0.888889 7.33333C0.397969 7.33333 0 7.7313 0 8.22222ZM3.55556 9.11111V7.33333H16V9.11111H3.55556ZM3.55556 14.4444V12.6667H16V14.4444H3.55556ZM3.55556 3.77778V2H16V3.77778H3.55556ZM0 2.88889C0 3.37981 0.397969 3.77778 0.888889 3.77778C1.37981 3.77778 1.77778 3.37981 1.77778 2.88889C1.77778 2.39797 1.37981 2 0.888889 2C0.397969 2 0 2.39797 0 2.88889ZM0 13.5556C0 14.0465 0.397969 14.4444 0.888889 14.4444C1.37981 14.4444 1.77778 14.0465 1.77778 13.5556C1.77778 13.0646 1.37981 12.6667 0.888889 12.6667C0.397969 12.6667 0 13.0646 0 13.5556Z" fill="#223F44"/>
</g>
</svg>
