<svg width="16" height="16" viewBox="0 0 16 16" fill="none" xmlns="http://www.w3.org/2000/svg">
<g id="icon=dimension" clip-path="url(#clip0_23_548)">
<path id="vector" d="M6.1814 0.175419C6.04867 -0.0584753 5.73257 -0.0584753 5.59984 0.175433L4.50819 2.09877C4.37608 2.33156 4.54293 2.60719 4.80832 2.60719H5.22957C5.26335 2.60719 5.27389 2.61777 5.27389 2.65229V9.84524C5.27389 9.85992 5.27297 9.86198 5.25919 9.87582L1.52504 13.6073C1.50602 13.6264 1.48434 13.6264 1.46557 13.6075L1.15878 13.2995C0.983807 13.1238 0.656368 13.1966 0.587356 13.4398L0.0121835 15.577C-0.0568785 15.8204 0.179412 16.0576 0.424543 15.9875L2.54916 15.411C2.79838 15.3398 2.88175 15.0283 2.6909 14.8379L2.38446 14.5302C2.36536 14.511 2.36536 14.4882 2.38445 14.469L6.10008 10.7381C6.11375 10.7244 6.1155 10.7236 6.1297 10.7236H13.3711C13.4049 10.7236 13.4154 10.7342 13.4154 10.7687V11.1917C13.4154 11.4584 13.6909 11.6265 13.9236 11.492L15.8386 10.3961C16.0551 10.2877 16.0551 9.94024 15.8308 9.8291L13.9231 8.73699C13.6905 8.60389 13.4155 8.77175 13.4155 9.03759V9.46057C13.4155 9.49508 13.4049 9.50567 13.3711 9.50567H6.55169C6.5179 9.50567 6.50736 9.49508 6.50736 9.46057V2.65229C6.50736 2.61777 6.5179 2.60719 6.55169 2.60719H6.97293C7.23918 2.60719 7.40626 2.33118 7.27276 2.09824L6.1814 0.175419Z" fill="#223F44"/>
</g>
<defs>
<clipPath id="clip0_23_548">
<rect width="16" height="16" fill="white"/>
</clipPath>
</defs>
</svg>
