<svg width="16" height="16" viewBox="0 0 16 16" fill="none" xmlns="http://www.w3.org/2000/svg">
<g id="icon=product-setup" clip-path="url(#clip0_23_563)">
<path id="vector" d="M12.274 7.99906C12.3665 7.99906 12.4521 8.04749 12.5003 8.12624C12.5537 8.21093 12.8474 8.70312 12.9346 8.89499L13.5346 9.14311C13.7459 9.06311 14.3121 8.91999 14.3859 8.90311C14.4756 8.88249 14.5693 8.90967 14.634 8.97499L15.025 9.36373C15.0899 9.42873 15.1171 9.52217 15.0971 9.61186C15.0724 9.70876 14.9309 10.2647 14.8571 10.4631L15.1053 11.0631C15.3053 11.155 15.8099 11.4566 15.874 11.4975C15.9521 11.5459 15.9993 11.6319 15.9987 11.7237V12.2744C15.9993 12.3678 15.9506 12.4547 15.8706 12.5031L15.8214 12.5335C15.6679 12.6268 15.27 12.8612 15.1022 12.9375L14.854 13.5375C14.934 13.7487 15.0771 14.315 15.094 14.3887C15.1143 14.4781 15.0871 14.5719 15.0218 14.6365L14.6331 15.0253C14.5684 15.0903 14.4747 15.1175 14.385 15.0975C14.2884 15.0728 13.7324 14.9312 13.534 14.8575L12.934 15.1056C12.8421 15.3056 12.5406 15.8103 12.4996 15.8744C12.4503 15.9519 12.365 15.999 12.2731 15.999H11.7234C11.63 15.9997 11.5431 15.9509 11.4947 15.8709C11.4412 15.7865 11.1475 15.2944 11.0603 15.1025L10.4603 14.8544C10.249 14.9344 9.68277 15.0775 9.60902 15.0944C9.51965 15.1147 9.4259 15.0875 9.36121 15.0222L8.97246 14.6334C8.90746 14.5687 8.88028 14.475 8.90028 14.3853L8.91465 14.3293C8.9593 14.1553 9.07574 13.708 9.14027 13.5343L8.89215 12.9343C8.69215 12.8425 8.18747 12.5409 8.12341 12.5C8.04591 12.4506 7.99872 12.3653 7.99872 12.2734V11.7237C7.99872 11.6312 8.04715 11.5456 8.1259 11.4975C8.21059 11.4441 8.70278 11.1503 8.89464 11.0631L9.14277 10.4631C9.06277 10.2519 8.91965 9.68561 8.90277 9.61186C8.88215 9.52217 8.90934 9.42842 8.97465 9.36373L9.36339 8.9728C9.42839 8.9078 9.52183 8.88062 9.61152 8.90062C9.70842 8.9253 10.2644 9.06686 10.4628 9.14061L11.0628 8.89249C11.1547 8.69249 11.4562 8.18781 11.4972 8.12375C11.5462 8.04625 11.6315 7.99906 11.7234 7.99906H12.274ZM7.5782 0.00872019L7.6534 0.0348814L11.1721 1.73352L11.2434 1.75373L11.2627 1.76803L11.259 1.76326L11.2988 1.79176L11.3437 1.8424L11.3244 1.81284L11.3706 1.86619L11.4109 1.93871L11.4361 2.02139L11.4418 2.08759L11.4412 5.90064L14.8281 7.53203L14.8075 7.51402L14.8547 7.54749L14.8397 7.53404L14.8702 7.55771L14.9168 7.60632L14.9265 7.62209L14.958 7.707L14.937 7.63515L14.9592 7.67278L14.9754 7.70984L14.9952 7.7915L15 7.84489L15.0002 7.99978C14.1645 7.372 13.1257 7 12 7H11.997L11.0869 6.5643L8.38418 7.85729L8.88066 8.09212C8.67018 8.26034 8.4736 8.44521 8.2929 8.64474L7.86516 8.44371L7.865 9.18813C7.5267 9.68465 7.27549 10.2453 7.13336 10.848L7.13449 8.44371L4.30657 9.78247V13.0302L7.00685 11.736C7.0023 11.8234 7 11.9114 7 12C7 12.1892 7.01051 12.376 7.03098 12.5597L4.09493 13.9651C4.04639 13.9884 3.99402 14 3.94166 14L3.86359 13.9913L3.78841 13.9651L0.211663 12.2532C0.104341 12.2017 0.028901 12.0999 0.00673532 11.9821L0 11.9097L0.00186586 7.80961L0.00605893 7.7812L0.0153143 7.7389L0.0324454 7.69051L0.0654504 7.6313L0.10913 7.57741L0.135569 7.55259L0.172831 7.52927L0.177432 7.52355L0.211831 7.50333L3.55841 5.90064L3.56036 2.05279L3.57301 1.98572L3.58466 1.95443L3.61837 1.8937L3.58602 1.94253L3.62624 1.87576L3.64988 1.84L3.68683 1.8025L3.72925 1.77019C3.73955 1.76352 3.74299 1.7613 3.73976 1.76526L3.72995 1.77607L3.77031 1.7467L7.34684 0.0348838C7.41965 -7.45058e-09 7.50108 -0.00872043 7.5782 0.00872019ZM12.0019 10.2544C11.5397 10.2538 11.096 10.4372 10.7688 10.7638C10.4416 11.0903 10.2576 11.5334 10.2573 11.9959C10.2569 12.4581 10.4401 12.9019 10.7666 13.229C11.0932 13.5562 11.5366 13.7403 11.9988 13.7406C12.461 13.7403 12.9041 13.5569 13.2313 13.2307C13.5581 12.904 13.7425 12.4612 13.7434 11.9991C13.7441 11.5369 13.5606 11.0931 13.2341 10.766C12.9075 10.4388 12.4644 10.2547 12.0019 10.2544ZM0.72958 8.43418V11.6667L3.5759 13.0302V9.78152L0.72958 8.43418ZM3.91271 6.5643L1.23848 7.84394L3.94124 9.12358L6.61455 7.85729L3.91271 6.5643ZM10.7115 2.68056L7.86424 4.04411V7.27373L10.7115 5.91113V2.68056ZM4.28817 2.68056V5.91018L7.13449 7.27373V4.04411L4.28817 2.68056ZM7.49983 0.794472L4.79338 2.08937L7.49983 3.38522L10.2053 2.09032L7.49983 0.794472Z" fill="#223F44"/>
</g>
<defs>
<clipPath id="clip0_23_563">
<rect width="16" height="16" fill="white"/>
</clipPath>
</defs>
</svg>
