<svg width="16" height="16" viewBox="0 0 16 16" fill="none" xmlns="http://www.w3.org/2000/svg">
<g clip-path="url(#clip0_1334_47954)">
<path d="M8 0C12.4183 0 16 3.58172 16 8C16 12.4183 12.4183 16 8 16C3.58172 16 0 12.4183 0 8C0 3.58172 3.58172 0 8 0ZM8 1C4.13401 1 1 4.13401 1 8C1 11.866 4.13401 15 8 15C11.866 15 15 11.866 15 8C15 4.13401 11.866 1 8 1ZM11 5.5459L8.5459 8L11 10.4541L10.4541 11L8 8.5459L5.5459 11L5 10.4541L7.4541 8L5 5.5459L5.5459 5L8 7.4541L10.4541 5L11 5.5459Z" fill="#223F44"/>
</g>
<defs>
<clipPath id="clip0_1334_47954">
<rect width="16" height="16" fill="white"/>
</clipPath>
</defs>
</svg>
