<svg width="16" height="16" viewBox="0 0 16 16" fill="none" xmlns="http://www.w3.org/2000/svg">
<g id="icon=dollar" clip-path="url(#clip0_30_1439)">
<path id="vector" d="M15.9726 12.0967V10.2506V10.0822V3.20691C16.0604 1.19155 14.3899 -0.420518 12.354 -0.356559H4.59616C2.53693 -0.420518 0.889767 1.19159 1.00577 3.20691V12.0967C0.889767 14.0893 2.53697 15.7241 4.59616 15.6384H12.3522C14.3881 15.7241 16.0586 14.0892 15.9726 12.0967ZM14.2523 3.20691V10.0822V10.2513V12.0749C14.3202 13.1272 13.4282 14.0011 12.3521 13.9547H4.59614C3.52094 14.0002 2.62806 13.1272 2.7261 12.0741V3.20691C2.62895 2.15462 3.49859 1.28076 4.59703 1.32712H12.353C13.4282 1.28076 14.3211 2.13187 14.2523 3.20691ZM7.75382 11.179V11.8508C7.70823 12.0301 7.86822 12.164 8.05144 12.164L8.89784 12.1641C9.08106 12.1641 9.24104 12.0075 9.24104 11.8282V11.1118C10.1795 10.8878 10.8882 10.1487 10.9803 9.23112C11.0491 8.62669 10.8427 8.02226 10.4316 7.5744C10.0195 7.12654 9.42518 6.85801 8.80668 6.85801H8.16585C7.98262 6.85801 7.79939 6.76878 7.66266 6.63408C7.52502 6.49937 7.47944 6.32094 7.50268 6.11886C7.52591 5.78297 7.84588 5.53629 8.21233 5.53629H8.96757C9.15079 5.53629 9.33402 5.671 9.3796 5.84943C9.40284 6.00601 9.56282 6.11797 9.72281 6.11797H10.5692C10.6604 6.11797 10.7524 6.07336 10.8212 6.006C10.8901 5.93865 10.9124 5.84943 10.9124 5.75932C10.8212 4.88636 10.1348 4.21457 9.26521 4.07985V3.40807C9.26521 3.22875 9.10522 3.07217 8.922 3.07217H8.07561C7.89239 3.07217 7.7324 3.22875 7.7324 3.40807V4.1026C6.63396 4.32653 5.87873 5.31146 5.99313 6.43102C6.10753 7.52791 7.09157 8.37902 8.28117 8.37902H8.82993C9.01315 8.37902 9.19638 8.46825 9.33312 8.60295C9.47076 8.73766 9.51634 8.91609 9.4931 9.11817C9.44752 9.45406 9.14989 9.70074 8.78344 9.70074H8.02821C7.84498 9.70074 7.66175 9.56604 7.63942 9.3876C7.61619 9.23102 7.4562 9.14092 7.29622 9.14092H6.44982C6.35866 9.14092 6.2666 9.18553 6.19777 9.25288C6.12895 9.32024 6.10661 9.40946 6.10661 9.49957C6.19777 10.3725 6.88418 11.0443 7.75382 11.179Z" fill="#223F44"/>
</g>
<defs>
<clipPath id="clip0_30_1439">
<rect width="16" height="16" fill="white"/>
</clipPath>
</defs>
</svg>
