<svg width="16" height="16" viewBox="0 0 16 16" fill="none" xmlns="http://www.w3.org/2000/svg">
<g id="icon=filters" clip-path="url(#clip0_30_1427)">
<path id="vector" d="M2.81732 2.14502H1.16959C0.510654 2.05718 0.000791035 2.57695 0.000791035 3.21287C0.000791035 3.81827 0.540002 4.33876 1.1688 4.33876V4.29497H2.81653C3.26611 5.1765 4.16454 5.75436 5.18351 5.75436C6.20249 5.75436 7.10085 5.20555 7.55049 4.29497H14.8312C15.4901 4.33878 16 3.81901 16 3.18309C16 2.54791 15.4608 2.05643 14.8312 2.14502H7.55128C7.1017 1.1904 6.20328 0.641602 5.1843 0.641602C4.16539 0.641602 3.26697 1.1904 2.81732 2.14502ZM10.8165 5.52192C9.79757 5.52192 8.89915 6.07072 8.44951 7.01825H1.1688C0.509863 6.9375 0 7.45727 0 8.09319C0.000772448 8.72836 0.539982 9.21984 1.1688 9.1682H8.44951C8.89909 10.0576 9.79751 10.6354 10.8165 10.6354C11.8354 10.6354 12.7338 10.0866 13.1835 9.1682H14.8312C15.4901 9.21984 16 8.70007 16 8.06415C16 7.42898 15.4608 6.9375 14.8312 7.01825H13.1835C12.7339 6.09978 11.8355 5.52192 10.8165 5.52192ZM2.81732 11.8915H1.16959C0.510654 11.8477 0.000791035 12.3675 0.000791035 13.0034C0.000791035 13.6386 0.540002 14.1301 1.1688 14.0414H2.81653C3.26611 14.9678 4.16454 15.5456 5.18351 15.5456C6.20249 15.5456 7.10085 14.9968 7.55049 14.0414H14.8312C15.4901 14.1301 16 13.6103 16 12.9744C16 12.3392 15.4608 11.8477 14.8312 11.8915H7.55128C7.1017 11.01 6.20328 10.4322 5.1843 10.4322C4.16539 10.4322 3.26697 10.981 2.81732 11.8915ZM6.44257 3.52935C6.2927 4.07815 5.75349 4.4825 5.18416 4.4825C4.58471 4.4825 4.07562 4.10719 3.92576 3.52935L3.83538 3.18309L3.92576 2.83683C4.07563 2.28803 4.61483 1.88368 5.18416 1.88368C5.78361 1.88368 6.2927 2.259 6.44257 2.83683L6.53217 3.18309L6.44257 3.52935ZM12.0455 8.43945C11.8956 8.98825 11.3564 9.39259 10.7871 9.39259C10.2178 9.39259 9.67854 9.01728 9.52868 8.43945L9.43907 8.09319L9.52868 7.74693C9.67854 7.19812 10.2178 6.79378 10.7871 6.79378C11.3564 6.79378 11.8956 7.16909 12.0455 7.74693L12.1351 8.09319L12.0455 8.43945ZM5.18416 14.3021C4.58471 14.3021 4.07562 13.9268 3.92576 13.3489L3.83538 13.0034L3.92576 12.6564C4.07563 12.1076 4.61483 11.7033 5.18416 11.7033C5.78361 11.7033 6.2927 12.0786 6.44257 12.6564L6.53217 13.0027L6.44257 13.3489C6.2927 13.8977 5.75349 14.3021 5.18416 14.3021Z" fill="#223F44"/>
</g>
<defs>
<clipPath id="clip0_30_1427">
<rect width="16" height="16" fill="white"/>
</clipPath>
</defs>
</svg>
