<svg width="16" height="16" viewBox="0 0 16 16" fill="none" xmlns="http://www.w3.org/2000/svg">
<g id="icon=status-check" clip-path="url(#clip0_23_413)">
<path id="vector" d="M8 16C12.418 16 16 12.418 16 8C16 3.582 12.418 0 8 0C3.582 0 0 3.582 0 8C0 12.418 3.582 16 8 16ZM11.2341 5.19211C11.5184 4.90775 11.9781 4.90775 12.2624 5.19211C12.5468 5.47648 12.5468 5.93611 12.2624 6.22048L7.37964 11.1033C7.24291 11.24 7.05818 11.3164 6.86545 11.3164C6.67273 11.3164 6.48727 11.24 6.35127 11.1033L3.84 8.592C3.55564 8.30764 3.55564 7.848 3.84 7.56364C4.12436 7.27927 4.584 7.27927 4.86836 7.56364L6.86545 9.56073L11.2341 5.19211Z" fill="#223F44"/>
</g>
<defs>
<clipPath id="clip0_23_413">
<rect width="16" height="16" fill="white"/>
</clipPath>
</defs>
</svg>
