<svg width="110" height="110" viewBox="0 0 110 110" fill="none" xmlns="http://www.w3.org/2000/svg">
<g id="icon=cloud-complete">
<path id="vector" d="M110 70.2358C110 59.5248 103.232 50.6102 94.1963 48.4157C94.2135 47.9922 94.2267 47.5697 94.2267 47.1462C94.2267 31.6019 81.5679 19 65.9534 19C54.6443 19 44.8906 25.6131 40.3696 35.1608C37.8559 33.3771 34.7536 32.3205 31.3934 32.3205C23.0359 32.3205 16.2596 38.848 16.2596 46.8978C16.2596 48.0912 16.41 49.2547 16.6936 50.3627C7.16309 52.3818 0 60.9454 0 71.241C0 83.0381 9.40588 92 21.0078 92H89.8997C100.999 92 110 82.5893 110 70.2358ZM68.2297 51.4194C69.3223 50.3269 71.0883 50.3269 72.1809 51.4194C73.2735 52.512 73.2735 54.2781 72.1809 55.3707L53.4199 74.1316C52.8946 74.657 52.1848 74.9504 51.4443 74.9504C50.7038 74.9504 49.9913 74.657 49.4687 74.1316L39.8198 64.4827C38.7272 63.3901 38.7272 61.624 39.8198 60.5314C40.9124 59.4388 42.6784 59.4388 43.771 60.5314L51.4443 68.2048L68.2297 51.4194Z" fill="#51738B"/>
</g>
</svg>
