<svg width="16" height="16" viewBox="0 0 16 16" fill="none" xmlns="http://www.w3.org/2000/svg">
<g clip-path="url(#clip0_1008_40544)">
<path fill-rule="evenodd" clip-rule="evenodd" d="M0 13.7752L4.29463 9.47042H4.97829L5.21594 9.23449C4.37644 8.25563 3.86587 6.98656 3.86587 5.59616C3.86587 2.50534 6.37138 0 9.46237 0C12.5533 0 15.0588 2.50534 15.0588 5.59616C15.0588 6.27568 14.9377 6.92688 14.7159 7.52941H12.7769C13.1314 6.973 13.3369 6.31221 13.3369 5.60334C13.3369 3.62178 11.7307 2.01505 9.7481 2.01505C7.76637 2.01505 6.15941 3.62178 6.15941 5.60334C6.15941 7.4722 7.58766 9.00655 9.41177 9.17607V11.1921C8.04107 11.1799 6.79171 10.6725 5.82462 9.8441L5.58703 10.08V10.7618L1.28372 15.0588L0 13.7752ZM10.6021 8.47059H15.7509C15.8887 8.47059 16 8.58657 16 8.73036V15.74C16 15.8361 15.9484 15.9254 15.8663 15.9704C15.8297 15.9903 15.7908 15.9998 15.7509 15.9998C15.7009 15.9998 15.6513 15.9842 15.6088 15.9531L13.1765 14.1964L10.7441 15.9535C10.6676 16.0089 10.5686 16.015 10.4866 15.9707C10.4045 15.9257 10.3529 15.8364 10.3529 15.7404V8.73036C10.3529 8.64959 10.388 8.57761 10.4432 8.53005C10.4863 8.49288 10.5416 8.47059 10.6021 8.47059Z" fill="#223F44"/>
</g>
<defs>
<clipPath id="clip0_1008_40544">
<rect width="16" height="16" fill="white"/>
</clipPath>
</defs>
</svg>
