<svg width="16" height="16" viewBox="0 0 16 16" fill="none" xmlns="http://www.w3.org/2000/svg">
<g id="icon=add-user">
<path id="vector" d="M4.72495 11.2707C4.72495 8.62224 6.80586 6.54133 9.45429 6.54133C12.1027 6.54133 14.1836 8.62224 14.1836 11.2707C14.1836 13.9191 12.1027 16 9.45429 16C6.80586 16 4.72495 13.9191 4.72495 11.2707ZM5.67082 4.80573C4.28387 4.80573 3.1539 3.72696 3.1539 2.40286C3.1539 1.07303 4.28387 3.51095e-07 5.67082 3.51095e-07C7.05785 -0.000708851 8.18775 1.0731 8.18775 2.40286C8.18775 3.72704 7.05777 4.80573 5.67082 4.80573ZM1.02341 10.1465V12.2821C0.916279 12.7254 1.29072 13.0828 1.75504 13.0259L4.04641 13.0259C3.87258 12.4751 3.77909 11.8856 3.77909 11.2707C3.77909 8.79423 5.29527 6.73129 7.4684 5.94108C6.9047 5.72052 6.29571 5.60662 5.6709 5.60662C4.61894 5.60662 3.62335 5.93217 2.81221 6.52012C2.47642 6.76056 2.17478 7.04852 1.91179 7.37476C1.82784 7.47618 1.74983 7.58327 1.67109 7.69534C1.18448 8.41594 0.916279 9.27625 1.02341 10.1465ZM7.56256 12.2165H8.50842V13.1624C8.50842 13.6921 8.9246 14.1083 9.45429 14.1083C9.98398 14.1083 10.4002 13.6921 10.4002 13.1624V12.2165H11.346C11.8757 12.2165 12.2919 11.8004 12.2919 11.2707C12.2919 10.741 11.8757 10.3248 11.346 10.3248H10.4002V9.37893C10.4002 8.84925 9.98398 8.43307 9.45429 8.43307C8.9246 8.43307 8.50842 8.84925 8.50842 9.37893V10.3248H7.56256C7.03287 10.3248 6.61669 10.741 6.61669 11.2707C6.61669 11.8004 7.03287 12.2165 7.56256 12.2165Z" fill="#223F44"/>
</g>
</svg>
