<svg width="110" height="110" viewBox="0 0 110 110" fill="none" xmlns="http://www.w3.org/2000/svg">
<g id="icon=cloud-uploading">
<path id="vector" d="M89.8997 92C100.999 92 110 82.5893 110 70.2358C110 59.5248 103.232 50.6102 94.1963 48.4157C94.2135 47.9922 94.2267 47.5697 94.2267 47.1462C94.2267 31.6019 81.5679 19 65.9534 19C54.6443 19 44.8906 25.6131 40.3696 35.1608C37.8559 33.3771 34.7536 32.3205 31.3934 32.3205C23.0359 32.3205 16.2596 38.848 16.2596 46.8978C16.2596 48.0912 16.41 49.2547 16.6936 50.3627C7.16309 52.3818 0 60.9454 0 71.241C0 83.0381 9.40588 92 21.0078 92H89.8997ZM45.2601 62.3445C45.2601 65.3517 46.5147 68.0422 48.5042 69.9971C48.9382 70.4249 49.0069 71.0879 48.6116 71.5454L46.6737 73.7868C46.2655 74.2616 45.5264 74.3258 45.071 73.8938C42.0117 70.9851 40.1038 66.8872 40.1038 62.3442C40.1038 53.9089 46.6781 47.0178 55.0011 46.432V43.4676C55.0011 43.2367 55.2418 43.1169 55.3921 43.2709L60.7159 48.7675C60.819 48.8744 60.819 49.0541 60.7159 49.161L55.3921 54.6577C55.2418 54.8117 55.0011 54.6919 55.0011 54.4609V51.6249C49.5354 52.2024 45.2601 56.7537 45.2601 62.3445ZM72.1885 62.3443C72.1885 70.7711 65.6228 77.6532 57.3084 78.2483V81.5548C57.3084 81.7858 57.0677 81.9056 56.9174 81.7516L51.5936 76.255C51.4905 76.148 51.4905 75.9684 51.5936 75.8614L56.9174 70.3648C57.0677 70.2108 57.3084 70.3306 57.3084 70.5616V73.0254L58.3611 72.8843C63.3025 71.8619 67.0322 67.5672 67.0322 62.3444C67.0322 59.1875 65.6572 56.3686 63.4872 54.3924C63.0446 53.986 62.9673 53.3187 63.3669 52.8696L65.3435 50.641C65.7474 50.1833 66.4649 50.1191 66.9205 50.5297C70.1517 53.4513 72.1885 57.6561 72.1885 62.3443Z" fill="#51738B"/>
</g>
</svg>
