<svg width="16" height="16" viewBox="0 0 16 16" fill="none" xmlns="http://www.w3.org/2000/svg">
<g id="icon=users">
<path id="vector" d="M7.99445 6.063C6.75386 6.063 5.74313 5.07051 5.74313 3.8523C5.74313 2.62882 6.75386 1.6416 7.99445 1.6416C9.23511 1.64095 10.2458 2.62888 10.2458 3.8523C10.2458 5.07058 9.23504 6.063 7.99445 6.063ZM10.4965 3.8523C10.4965 2.62882 11.5072 1.6416 12.7478 1.6416C13.9885 1.64095 14.9992 2.62888 14.9992 3.8523C14.9992 5.07058 13.9884 6.063 12.7478 6.063C11.5072 6.063 10.4965 5.07051 10.4965 3.8523ZM11.5318 7.50323C11.4168 7.39035 11.3019 7.28724 11.1862 7.19393C11.6567 6.93815 12.1917 6.8011 12.7472 6.8011C13.613 6.8011 14.4284 7.12998 15.0438 7.72965C15.6651 8.34303 16 9.14367 16 9.99331L15.9886 11.9588C15.9999 12.3666 15.665 12.6955 15.2497 12.621H13.0468V10.9767C12.9977 10.0384 12.7173 9.09476 12.2122 8.32868C12.1372 8.21579 12.0574 8.10748 11.9923 8.02395C11.872 7.85691 11.7318 7.69965 11.5318 7.50323ZM3.83748 10.9767V12.9415C3.74165 13.3493 4.07657 13.6782 4.4919 13.6258H11.4966C11.9119 13.6782 12.2468 13.3493 12.1514 12.9415V10.9767C12.2475 10.1656 12.0076 9.37471 11.577 8.72086C11.5172 8.62755 11.452 8.53884 11.3816 8.45074C11.2812 8.31306 11.1616 8.18059 11.0015 8.02333C10.8566 7.88108 10.7064 7.75319 10.5463 7.6403C9.81595 7.09021 8.92485 6.79985 7.99452 6.79985C7.05357 6.79985 6.16305 7.09936 5.4375 7.6403C5.13715 7.8615 4.86734 8.12644 4.63211 8.42659C4.55701 8.5199 4.48724 8.61842 4.41681 8.72152C3.98155 9.3845 3.74165 10.176 3.83748 10.9767ZM0.000270348 11.9593V9.99384C-0.0108755 8.23467 1.45039 6.8004 3.24124 6.8004C3.79677 6.79975 4.33171 6.93743 4.8075 7.19323C4.52708 7.41901 4.26724 7.6846 4.04197 7.96975C3.95691 8.07807 3.87186 8.19095 3.7868 8.32342C3.26648 9.11429 2.99137 10.033 2.94213 10.976V12.621H0.739371C0.324049 12.696 -0.0108755 12.3671 0.000270348 11.9593ZM3.24124 6.063C2.00058 6.063 0.989918 5.07051 0.989918 3.8523C0.989918 2.62882 2.00065 1.6416 3.24124 1.6416C4.48189 1.64095 5.49255 2.62888 5.49255 3.8523C5.49255 5.07058 4.48182 6.063 3.24124 6.063Z" fill="#223F44"/>
</g>
</svg>
