<svg width="16" height="16" viewBox="0 0 16 16" fill="none" xmlns="http://www.w3.org/2000/svg">
<g id="icon=image" clip-path="url(#clip0_23_488)">
<path id="vector" d="M1.15902 16H14.8403C15.4806 16 16 15.4805 16 14.841L16 1.15902C16 0.519431 15.4806 0 14.841 0H1.15902C0.519431 0 0 0.519449 0 1.15902V14.8403C0 15.4806 0.519449 16 1.15902 16ZM9.67013 6.66863L13.0737 11.65C13.2181 11.8604 13.1279 12.0889 12.8729 12.0888H3.53956C3.284 12.0888 3.1958 11.861 3.34302 11.6527L6.04027 7.79154C6.1868 7.5832 6.45415 7.54571 6.63472 7.72696L7.17986 8.26793C7.35972 8.44918 7.63957 8.43252 7.80208 8.23529L9.11111 6.64571C9.27292 6.44918 9.5243 6.4589 9.67013 6.66863ZM12.2201 5.16389C12.8368 5.16389 13.3361 5.66389 13.3361 6.27986C13.3368 6.89582 12.8368 7.39582 12.2201 7.39582C11.6034 7.39582 11.1041 6.89582 11.1041 6.27986C11.1041 5.66318 11.6034 5.16389 12.2201 5.16389Z" fill="#223F44"/>
</g>
<defs>
<clipPath id="clip0_23_488">
<rect width="16" height="16" fill="white"/>
</clipPath>
</defs>
</svg>
