<svg width="16" height="16" viewBox="0 0 16 16" fill="none" xmlns="http://www.w3.org/2000/svg">
<path fill-rule="evenodd" clip-rule="evenodd" d="M14.2353 13.5937L12.8027 15.0588H12.8026L11.8824 16L8.58824 12.6311L9.36235 11.8395L9.36238 11.8395L9.3624 11.8395L11.3333 13.8506L11.3333 9.03207C11.3333 8.71764 11.5749 8.47059 11.8824 8.47059C11.9064 8.47059 11.93 8.4721 11.9531 8.47503C12.2261 8.50958 12.4314 8.74219 12.4314 9.03207V13.8506L14.4024 11.8395L15.1765 12.6311L14.2353 13.5937V13.5937ZM7.27194 12.6311L9.64577 15.0588H2.91765C2.41084 15.0588 2 14.6699 2 14.19V0.868778C2 0.388959 2.41084 0 2.91765 0H9.34118V3.76471C9.34118 4.24253 9.75412 4.63348 10.2588 4.63348H14.2353V10.6653L13.3726 11.5456V9.03207C13.3726 8.21786 12.7294 7.52941 11.8824 7.52941C11.0354 7.52941 10.3922 8.21785 10.3922 9.03205L10.3922 11.5456L9.36167 10.494L7.27194 12.6311ZM14.2353 3.25578C14.2353 3.02538 14.1386 2.80441 13.9665 2.64148L11.4452 0.254443C11.2731 0.0915267 11.0397 0 10.7964 0H10.5647V3.47511H14.2353V3.25578Z" fill="#223F44"/>
</svg>
