<svg width="16" height="16" viewBox="0 0 16 16" fill="none" xmlns="http://www.w3.org/2000/svg">
<g id="icon=blueprints" clip-path="url(#clip0_23_542)">
<path id="vector" d="M15.4576 3.16245C15.9868 2.63259 16.1458 1.83608 15.859 1.1438C15.5722 0.451448 14.8965 5.53625e-05 14.1472 7.36281e-06C13.6563 -0.00138143 13.184 0.193748 12.8375 0.542368L1.51403 11.8658C1.39459 11.9853 1.30015 12.1277 1.23695 12.2853L0.0390362 15.2616C-0.0415179 15.4616 0.00500795 15.6901 0.157786 15.8422C0.309868 15.9949 0.538334 16.0415 0.738333 15.9609L3.71538 14.763C3.87232 14.6998 4.01468 14.6054 4.13413 14.4859L15.4576 3.16245ZM2.15694 1.01039L0.0749993 3.09233C0.026388 3.14095 0 3.20553 0 3.27427C0 3.34232 0.0270825 3.4076 0.0756937 3.45621L4.37149 7.752L7.31529 4.80766L5.82572 3.31809C6.95209 2.26811 8.51103 1.81464 10.0257 2.09787L11.6486 0.474272C10.4306 -0.0028086 9.10216 -0.12295 7.81808 0.12775C6.53405 0.379144 5.34787 0.990945 4.39997 1.89232L3.51734 1.01039C3.33748 0.829843 3.09235 0.728457 2.83749 0.728457C2.58193 0.728457 2.33749 0.829845 2.15694 1.01039ZM14.9896 12.4826L14.1076 11.6C15.009 10.6521 15.6208 9.46596 15.8722 8.18188C16.1229 6.89855 16.0028 5.56945 15.5257 4.35133L13.9021 5.97493C14.1854 7.4888 13.7319 9.0478 12.682 10.1742L11.1923 8.68467L8.24796 11.6285L12.5437 15.9243C12.5924 15.9729 12.6576 16 12.7257 16C12.7944 16 12.8597 15.9729 12.9083 15.9243L14.9903 13.8423C15.1708 13.6618 15.2715 13.418 15.2715 13.1625C15.2715 12.9076 15.1701 12.6625 14.9896 12.4826ZM1.96683 12.3188C1.971 12.3147 3.68557 14.0292 3.68134 14.0333C3.62301 14.0924 3.55287 14.1382 3.47649 14.1694L0.723085 15.2771L1.83141 12.5244C1.86197 12.4473 1.9078 12.3771 1.96683 12.3188ZM1.42027 4.07848L3.26061 2.23885L3.7613 2.73954L1.92096 4.57988L1.42027 4.07848ZM3.08686 5.74576L4.07851 4.7541L4.5792 5.25479L3.58755 6.24575L3.08686 5.74576ZM11.2465 11.9207L10.2541 12.9131L9.75342 12.4124L10.7458 11.42L11.2465 11.9207ZM13.7611 12.7395L11.9215 14.5798L11.4201 14.0791L13.2604 12.2388L13.7611 12.7395Z" fill="#223F44"/>
</g>
<defs>
<clipPath id="clip0_23_542">
<rect width="16" height="16" fill="white"/>
</clipPath>
</defs>
</svg>
