<svg width="16" height="16" viewBox="0 0 16 16" fill="none" xmlns="http://www.w3.org/2000/svg">
<g id="icon=refresh">
<path id="vector" d="M13.0131 4.07777L16 8.21452H13.9909C13.9909 11.6346 11.3061 14.4291 7.9818 14.4291C6.79082 14.4291 5.67066 14.0614 4.71101 13.4179L5.92005 11.7445C6.52422 12.1309 7.23534 12.3513 7.98265 12.3513C10.1868 12.3513 11.9827 10.494 11.9827 8.21456H10.009L13.0131 4.07777ZM6.00894 8.21456L3.99989 8.21452C3.99989 5.93506 5.79582 4.07773 7.99993 4.07773C8.74646 4.07773 9.44023 4.3169 10.0625 4.68461L11.2716 3.01122C10.3112 2.36771 9.19102 2 8.00007 2C4.69302 2 1.99095 4.77661 1.99095 8.21456H0L3.00412 12.3513L6.00894 8.21456Z" fill="#223F44"/>
</g>
</svg>
