<svg width="16" height="16" viewBox="0 0 16 16" fill="none" xmlns="http://www.w3.org/2000/svg">
<g id="icon=deposits" clip-path="url(#clip0_356_36416)">
<path id="vector" fill-rule="evenodd" clip-rule="evenodd" d="M1 0C0.447715 0 0 0.447715 0 1V15C0 15.5523 0.447715 16 1 16H15C15.5523 16 16 15.5523 16 15V1C16 0.447715 15.5523 0 15 0H1ZM5.01439 4.2V12H7.43839C8.19039 12 8.85839 11.864 9.44239 11.592C10.0264 11.32 10.4864 10.896 10.8224 10.32C11.1584 9.736 11.3264 8.984 11.3264 8.064C11.3264 7.144 11.1584 6.4 10.8224 5.832C10.4864 5.264 10.0144 4.852 9.40639 4.596C8.80639 4.332 8.11039 4.2 7.31839 4.2H5.01439ZM7.19839 10.344H7.07839V5.856H7.19839C7.57439 5.856 7.91439 5.916 8.21839 6.036C8.52239 6.148 8.76239 6.364 8.93839 6.684C9.12239 6.996 9.21439 7.456 9.21439 8.064C9.21439 8.672 9.12239 9.14 8.93839 9.468C8.76239 9.796 8.52239 10.024 8.21839 10.152C7.91439 10.28 7.57439 10.344 7.19839 10.344Z" fill="#223F44"/>
</g>
<defs>
<clipPath id="clip0_356_36416">
<rect width="16" height="16" fill="white"/>
</clipPath>
</defs>
</svg>
