<svg width="16" height="16" viewBox="0 0 16 16" fill="none" xmlns="http://www.w3.org/2000/svg">
<g id="icon=liquidity-source-equations" clip-path="url(#clip0_23_566)">
<path id="vector" d="M3 7.5C3 5.01472 5.01472 3 7.5 3C9.98528 3 12 5.01472 12 7.5C12 9.98528 9.98528 12 7.5 12C5.01472 12 3 9.98528 3 7.5ZM12.9099 13.0278L13.0597 12.0944L16 12.6942L15.4662 16L14.6355 15.8298L14.88 14.3185C13.8888 15.0969 12.7238 15.4895 11.5558 15.4895C10.1479 15.4895 8.73695 14.9183 7.62292 13.7624C7.29703 13.4246 6.93788 13.1414 6.55414 12.9167C6.86068 12.9722 7.17709 13 7.5 13C7.70202 13 7.9015 12.9891 8.09789 12.9679C8.13172 12.9992 8.16469 13.0327 8.19738 13.0666C9.94321 14.88 12.5462 15.0031 14.4152 13.5201L14.5938 13.3716L12.9099 13.0278ZM0 13.4322C0.952218 12.275 2.21995 11.5586 3.60877 11.3854C3.97353 11.7521 4.38918 12.0661 4.84423 12.3175L4.87664 12.3334C4.60971 12.297 4.33795 12.2844 4.06337 12.2966C2.81932 12.3534 1.66623 12.9109 0.790621 13.8772L0.619256 14.0758L0 13.4322ZM12.9739 6.96122L13.0597 6.42316L16 7.02297L15.4662 10.3288L14.6355 10.1586L14.88 8.64725C14.1658 9.20812 13.3614 9.56868 12.5306 9.72641C12.6805 9.38816 12.7968 9.03381 12.8762 8.66577C13.419 8.49832 13.9408 8.22535 14.4152 7.84887L14.5938 7.70034L12.997 7.374L12.9956 7.27879C12.9914 7.17213 12.9842 7.06624 12.9739 6.96122ZM0 7.76098C0.613286 7.01565 1.35745 6.45319 2.18055 6.10094C2.08481 6.46219 2.02593 6.83765 2.00683 7.22358L1.9626 7.2485C1.5355 7.49831 1.14086 7.81941 0.790621 8.20593L0.619256 8.40462L0 7.76098ZM12.9099 1.68325L13.0597 0.749781L16 1.3496L15.4662 4.65541L14.6355 4.48523L14.88 2.97387C13.9722 3.68684 12.9185 4.07613 11.8502 4.13654C11.5617 3.76165 11.2251 3.42614 10.8503 3.13784C12.0823 3.33523 13.3647 3.00908 14.4152 2.1755L14.5938 2.02697L12.9099 1.68325ZM4.0319 0.00506472C5.58693 -0.0623101 7.06385 0.544236 8.19738 1.722C8.33397 1.86388 8.47581 1.99542 8.62213 2.11664C8.26014 2.03949 7.88468 2 7.5 2C7.39242 2 7.28556 2.00309 7.17951 2.00918C6.28389 1.27384 5.19767 0.901625 4.06337 0.951979C2.81932 1.00883 1.66623 1.56626 0.790621 2.53256L0.619256 2.73124L0 2.0876C1.04812 0.813822 2.47852 0.0741476 4.0319 0.00506472ZM10 9V8H5V9H10ZM10 7V6H5V7H10Z" fill="#223F44"/>
</g>
<defs>
<clipPath id="clip0_23_566">
<rect width="16" height="16" fill="white"/>
</clipPath>
</defs>
</svg>
