<svg width="16" height="16" viewBox="0 0 16 16" fill="none" xmlns="http://www.w3.org/2000/svg">
<g id="icon=admin" clip-path="url(#clip0_30_1430)">
<path id="vector" d="M15.454 5.13221C15.3694 5.24873 15.2711 5.35179 15.1772 5.46L14.0622 6.70393C13.8152 6.98114 13.6466 6.99908 13.3616 6.76795C12.9958 6.4677 12.633 6.16295 12.2603 5.85628C12.4625 5.44143 12.4321 5.20069 12.1584 5.00542C11.8846 4.81016 11.7222 4.8761 11.2568 5.33321L9.75793 4.0483C9.82949 3.9305 9.88984 3.81207 9.96637 3.70771C10.0373 3.61616 10.0423 3.48877 9.97944 3.39144C9.77224 2.91833 9.42756 2.52267 8.99326 2.25825C8.55896 1.99448 8.05623 1.87477 7.55349 1.91639H7.31457C7.39608 1.81651 7.45456 1.72817 7.52797 1.65261C7.95791 1.22303 8.50296 1.01175 9.09341 0.895235C9.73801 0.774234 10.4031 0.933648 10.9288 1.33634C11.062 1.43366 11.2032 1.51945 11.3507 1.59371C11.449 1.64685 11.5585 1.67438 11.6692 1.67373C11.9262 1.65517 12.18 1.74224 12.3748 1.91638C12.5739 2.06747 12.7631 2.23201 12.9416 2.40807C13.0399 2.52523 13.1196 2.65711 13.1774 2.79988C13.2154 2.89207 13.244 2.98809 13.2621 3.08669C13.394 3.62447 13.7399 3.7666 14.2016 3.46506C14.6016 3.8159 15.0092 4.16481 15.4055 4.52527C15.4932 4.59697 15.5486 4.70324 15.558 4.81786C15.5667 4.93309 15.5293 5.04641 15.454 5.13221ZM15.9409 13.1695C15.9608 12.996 15.9807 12.8218 16 12.6483L15.9552 12.1566C15.9484 12.1317 15.9428 12.1067 15.9384 12.0811C15.8625 11.7251 15.7298 11.3851 15.5444 11.0746C15.1692 10.4786 14.5937 10.0445 13.9274 9.85627C13.2616 9.66741 12.5517 9.73719 11.932 10.0522C11.8959 10.0695 11.8536 10.0695 11.8175 10.0522C11.3017 9.71286 10.7772 9.38507 10.277 9.02463C10.1158 8.90747 9.95656 8.78775 9.79914 8.66419L8.52488 10.2391C8.76691 10.4574 9.00397 10.6847 9.23542 10.921C9.61932 11.3077 9.97459 11.7257 10.338 12.1335C10.374 12.1796 10.3921 12.2385 10.3871 12.2974C10.3392 12.6816 10.3684 13.0721 10.473 13.4447C10.6914 14.2802 11.2657 14.9697 12.0359 15.318C12.7172 15.6452 13.5 15.6644 14.1956 15.3718C14.2224 15.3564 14.2473 15.3385 14.2703 15.318C14.2541 15.2982 14.2367 15.2796 14.218 15.2623C13.6873 14.8097 13.1559 14.3577 12.6252 13.9051C12.5866 13.8756 12.5593 13.8327 12.5487 13.7841C12.5294 13.4281 12.517 13.0709 12.5058 12.7136C12.507 12.6746 12.5201 12.6374 12.5437 12.6074C12.6968 12.4095 12.8523 12.2143 13.0104 12.0209C13.0365 11.9928 13.072 11.9742 13.1093 11.9678C13.4403 11.914 13.7701 11.8596 14.1017 11.8154C14.1589 11.8109 14.2156 11.8282 14.261 11.8634C14.6673 12.2059 15.0686 12.5517 15.4699 12.8993C15.6167 13.0254 15.7598 13.1567 15.9204 13.3007C15.9316 13.2335 15.9378 13.2021 15.9409 13.1695ZM1.68124 14.4575C1.5008 14.3186 1.38693 14.1054 1.37076 13.8736C1.3546 13.6419 1.43672 13.4139 1.59663 13.2494C4.16186 10.3235 6.72854 7.39851 9.29632 4.47461C9.31188 4.46117 9.32806 4.44836 9.34548 4.43684L10.9588 5.81202L10.252 6.73137L3.81536 15.09C3.68035 15.2936 3.46569 15.4255 3.22801 15.4511C2.99033 15.4774 2.75389 15.3941 2.58093 15.2245C2.28165 14.969 1.97865 14.7161 1.68124 14.4575ZM5.46416 7.53293L6.78944 5.98872C6.38937 5.59692 6.00921 5.18397 5.64708 4.7499C5.52451 4.60394 5.44482 4.47596 5.55121 4.29094C5.55868 4.27429 5.56303 4.257 5.56552 4.23844C5.70614 3.64751 5.66196 3.02523 5.44046 2.46116C5.21834 1.89649 4.83009 1.41824 4.32983 1.09364C3.62675 0.62692 2.75568 0.514897 1.96242 0.788898C1.91451 0.803623 1.86847 0.829871 1.80314 0.858042L2.01033 1.04498C2.48257 1.47521 2.95483 1.90671 3.42645 2.33821C3.45756 2.36638 3.47747 2.4048 3.48245 2.44705C3.49116 2.7998 3.49489 3.15321 3.49489 3.50596C3.49364 3.54886 3.47809 3.58983 3.45196 3.62248C3.29268 3.80623 3.14459 3.98933 2.98655 4.16667C2.95233 4.20572 2.90629 4.23197 2.85651 4.24221C2.53795 4.28639 2.21938 4.32224 1.89149 4.36705C1.82491 4.3773 1.75647 4.35361 1.70919 4.30431L0.409412 3.10966C0.312349 3.02579 0.212173 2.93424 0.0958177 2.82925L0 3.47012L0.0304882 3.97652C0.0416876 4.00085 0.0416876 4.0239 0.0559988 4.04823C0.115107 4.29023 0.187282 4.52839 0.272527 4.76143C0.568696 5.47975 1.14796 6.03482 1.86535 6.28707C2.45705 6.51884 3.10974 6.52459 3.70522 6.30372C3.75188 6.28387 3.80477 6.28387 3.85205 6.30372C4.05426 6.43496 4.25835 6.56428 4.44626 6.71345C4.78535 6.98234 5.12818 7.24931 5.46416 7.53293Z" fill="#223F44"/>
</g>
<defs>
<clipPath id="clip0_30_1430">
<rect width="16" height="16" fill="white"/>
</clipPath>
</defs>
</svg>
