<svg width="16" height="16" viewBox="0 0 16 16" fill="none" xmlns="http://www.w3.org/2000/svg">
<g id="icon=alert" clip-path="url(#clip0_23_506)">
<path id="vector" d="M16 8C16 12.4181 12.4181 16 8 16C3.58187 16 0 12.4181 0 8C0 3.58187 3.58187 0 8 0C12.416 0.00486116 15.9952 3.584 16 8ZM8.75556 10.6917C8.65625 10.6083 8.54375 10.5444 8.41945 10.4986C8.29515 10.4528 8.16667 10.4306 8.03403 10.4306C7.90069 10.4306 7.77014 10.4528 7.64167 10.4986C7.5132 10.5445 7.39931 10.6084 7.29931 10.6917C7.2 10.7743 7.12153 10.8764 7.0632 10.9965C7.00487 11.1167 6.9757 11.2556 6.9757 11.4132C6.9757 11.5709 7.00487 11.7097 7.0632 11.8306C7.12153 11.9507 7.20001 12.0521 7.29931 12.1354C7.39931 12.2181 7.51319 12.2827 7.64167 12.3278C7.77015 12.3736 7.90069 12.3965 8.03403 12.3965C8.29931 12.3965 8.53959 12.309 8.75556 12.1354C8.97152 11.9611 9.07917 11.7201 9.07917 11.4132C9.07917 11.2556 9.05 11.1167 8.99167 10.9965C8.93403 10.8764 8.85486 10.7743 8.75556 10.6917ZM9.25345 3.67289C8.9215 3.57358 8.5729 3.52358 8.20833 3.52356C7.88473 3.52356 7.57361 3.55897 7.275 3.62911C6.97569 3.69994 6.68542 3.793 6.40348 3.90897C5.2896 4.29229 5.71113 5.85475 6.88126 5.45203C7.06458 5.38814 7.31598 5.29925 7.62293 5.21592C7.7639 5.19092 8.05071 5.14161 8.18335 5.14161C8.47362 5.14161 8.70765 5.21384 8.88612 5.35898C9.06459 5.50412 9.15348 5.70551 9.15348 5.96245C9.15348 6.17009 9.10418 6.35481 9.00418 6.51662C8.90487 6.67842 8.78265 6.83189 8.63751 6.97703C8.49237 7.12217 8.33474 7.26938 8.16459 7.4187C7.99445 7.568 7.8368 7.72981 7.69166 7.90412C7.54652 8.07843 7.4243 8.27079 7.3243 8.48259C7.225 8.6944 7.175 8.94092 7.175 9.22288C7.175 9.33954 7.18125 9.44926 7.19375 9.55274C7.20625 9.65621 7.225 9.76663 7.25 9.88261C7.90555 10.0208 8.45764 10.0208 8.90486 9.88261C9.00903 9.85066 9.00903 9.68053 8.90486 9.37219C8.92153 9.10691 9.0125 8.89719 9.17848 8.74371C9.34445 8.59024 9.51876 8.43468 9.70139 8.27705C9.85903 8.14441 10.0125 8.00343 10.1618 7.85413C10.3111 7.70482 10.4458 7.53886 10.566 7.35621C10.6868 7.17358 10.784 6.97079 10.8583 6.74649C10.9333 6.52288 10.9708 6.2694 10.9708 5.98746C10.9708 5.56455 10.8958 5.19719 10.7465 4.88608C10.5972 4.57497 10.3937 4.3201 10.1368 4.1208C9.87985 3.92149 9.58539 3.77219 9.25345 3.67289Z" fill="#223F44"/>
</g>
<defs>
<clipPath id="clip0_23_506">
<rect width="16" height="16" fill="white"/>
</clipPath>
</defs>
</svg>
