<svg width="16" height="16" viewBox="0 0 16 16" fill="none" xmlns="http://www.w3.org/2000/svg">
<g id="icon=balances" clip-path="url(#clip0_30_1436)">
<path id="vector" d="M15.9407 7.57936L13.3023 2.24828C13.3023 2.23017 13.2852 2.23017 13.2852 2.21276C13.1507 1.96341 12.8652 1.85614 12.6131 1.92718L8.59775 3.06807V2.26568C8.59775 1.92718 8.32864 1.6416 8.00967 1.6416C7.6907 1.6416 7.42159 1.92718 7.42159 2.26568V3.40657L2.95187 4.67285C2.9184 4.67285 2.88493 4.69096 2.86786 4.70838C2.8508 4.70838 2.8508 4.72649 2.83439 4.72649C2.71691 4.79753 2.61583 4.88669 2.56529 5.01207L0.112503 10.4687C0.0954386 10.4868 0.0954386 10.5223 0.0790296 10.5578C-0.00498137 10.718 -0.0220457 10.9144 0.0284919 11.0928L0.415077 12.2162C0.499088 12.4656 0.734049 12.6439 0.986082 12.6439H5.16949C5.4386 12.6439 5.67356 12.4475 5.75757 12.18L6.06014 11.0565C6.07721 10.9855 6.07721 10.8963 6.07721 10.8246C6.09427 10.7173 6.07721 10.5926 6.02667 10.5035L3.92707 5.70733L7.42209 4.70851V13.5166L4.49817 13.5173C4.1792 13.5173 3.9101 13.8029 3.9101 14.1414C3.9101 14.4799 4.1792 14.7655 4.49817 14.7655H11.5217C11.8406 14.7655 12.1097 14.4799 12.1097 14.1414C12.1097 13.8029 11.8406 13.5173 11.5217 13.5173H8.59774V4.36989L11.7396 3.47834L10.0095 7.54396L9.9924 7.56207C9.87491 7.74038 9.85785 7.95421 9.92545 8.15064L10.312 9.27412C10.396 9.52347 10.631 9.70178 10.883 9.70178H15.0664C15.3356 9.70178 15.5705 9.50536 15.6545 9.23789L15.9571 8.1144V8.09629C16.0247 7.91868 16.0077 7.74025 15.9407 7.57936ZM3.08706 6.75968L4.58212 10.1294H1.57486L3.08706 6.75968ZM11.4206 7.24076L12.8323 3.96023L14.445 7.24076H11.4206Z" fill="#223F44"/>
</g>
<defs>
<clipPath id="clip0_30_1436">
<rect width="16" height="16" fill="white"/>
</clipPath>
</defs>
</svg>
