<svg width="16" height="16" viewBox="0 0 16 16" fill="none" xmlns="http://www.w3.org/2000/svg">
<g id="icon=benchmarks">
<path id="vector" d="M12.3033 5.58944L13.2342 3.97885C14.9269 5.44746 16 7.61282 16 10.0214C16 11.6729 15.497 13.2137 14.6344 14.4909L14.4571 14.7427L13.0571 13.5713C13.7598 12.5688 14.1714 11.3446 14.1714 10.0214C14.1714 8.27868 13.4568 6.70944 12.3033 5.58944ZM0 10.0214C0 5.61428 3.59291 2.02137 8 2.02137C8.92475 2.02137 9.81364 2.17956 10.641 2.47027L9.70697 4.08705C9.16527 3.93259 8.59267 3.84994 8 3.84994C4.58034 3.84994 1.82857 6.60171 1.82857 10.0214C1.82857 11.2427 2.17929 12.3797 2.78592 13.336L2.94286 13.5713L1.54286 14.7427C0.57232 13.4186 0 11.783 0 10.0214ZM7.37016 11.9595L5.21985 7.45341L8.71894 11.0151C8.99939 11.07 9.25771 11.2297 9.43442 11.4821C9.79654 11.9993 9.67127 12.7098 9.15411 13.0719C8.63694 13.434 7.92647 13.3087 7.56434 12.7916C7.41286 12.5752 7.34582 12.3258 7.35768 12.0812L7.37016 11.9595ZM10.067 5.4641L12.067 2L12.933 2.5L10.933 5.9641L10.067 5.4641Z" fill="#223F44"/>
</g>
</svg>
