<svg width="16" height="16" viewBox="0 0 16 16" fill="none" xmlns="http://www.w3.org/2000/svg">
<g id="icon=copy">
<path id="vector" d="M4.18367 3V12.25C4.18367 13.215 5.01677 14 6.04082 14H11.6122V15.25C11.6122 15.6642 11.2559 16 10.8163 16H1.79592C1.35634 16 1 15.6642 1 15.25V3.75C1 3.33578 1.35634 3 1.79592 3H4.18367ZM15.8571 12.25V4H12.4082C11.9704 4 11.6122 3.6625 11.6122 3.25V0H6.04082C5.60124 0 5.2449 0.335781 5.2449 0.75V12.25C5.2449 12.6642 5.60124 13 6.04082 13H15.0612C15.5008 13 15.8571 12.6642 15.8571 12.25ZM15.8571 2.81066C15.8571 2.61175 15.7733 2.42099 15.624 2.28034L13.4372 0.219656C13.2879 0.0790133 13.0855 0 12.8744 0H12.6735V3H15.8571V2.81066Z" fill="#223F44"/>
</g>
</svg>
