<svg width="16" height="16" viewBox="0 0 16 16" fill="none" xmlns="http://www.w3.org/2000/svg">
<g id="icon=deliver" clip-path="url(#clip0_30_1424)">
<path id="vector" d="M10.8587 15.2198L15.9631 0.493618C16.0453 0.262328 15.9878 0.00472027 15.8148 -0.169952C15.6417 -0.343819 15.3849 -0.40363 15.1528 -0.323083L0.420315 4.7813C0.168281 4.87302 0 5.11229 0 5.38106C0 5.64984 0.168285 5.88911 0.420315 5.98083L6.53924 8.1949L8.77251 5.98736C8.75736 5.59097 8.98865 5.22648 9.35394 5.07096C9.71923 4.91544 10.1419 5.00157 10.4179 5.2871C10.693 5.57262 10.764 5.99853 10.5957 6.35743C10.4274 6.71633 10.055 6.93486 9.6594 6.90615L7.44533 9.11369L9.65287 15.2326C9.74459 15.4886 9.98864 15.6585 10.2606 15.6553C10.5326 15.6529 10.7726 15.4774 10.8587 15.2198Z" fill="#223F44"/>
</g>
<defs>
<clipPath id="clip0_30_1424">
<rect width="16" height="16" fill="white"/>
</clipPath>
</defs>
</svg>
