<svg width="16" height="16" viewBox="0 0 16 16" fill="none" xmlns="http://www.w3.org/2000/svg">
<g id="icon=home">
<path id="vector" d="M0.0411315 8.61848C0.0201632 8.55518 0 8.47133 0 8.40804C0 8.2609 0.0620999 8.11376 0.206463 7.96579L7.7213 1.12659C7.82453 1.04274 7.92776 1 8.01001 1L8.29873 1.12659L15.7935 7.96579C15.9379 8.09238 16 8.23952 16 8.40804C16 8.47133 15.979 8.55518 15.9589 8.61848C15.8766 8.85029 15.6702 8.97605 15.3806 8.97605H14.183L14.1838 15.8571H9.70373V11.7117C9.70373 11.4799 9.51823 11.3122 9.31178 11.3122L6.73099 11.3114C6.50355 11.3114 6.33905 11.5005 6.33905 11.7109L6.33824 15.8571H1.81712V8.97607H0.619467C0.330749 8.97607 0.144363 8.84946 0.0411315 8.61848Z" fill="#223F44"/>
</g>
</svg>
