<svg width="16" height="16" viewBox="0 0 16 16" fill="none" xmlns="http://www.w3.org/2000/svg">
<g id="icon=filter" clip-path="url(#clip0_23_485)">
<path id="vector" d="M15.9313 0.465222C15.8034 0.155536 15.5806 0 15.2615 0H0.738086C0.420428 0 0.196931 0.155536 0.0682934 0.465222C-0.0603482 0.79087 -0.00716731 1.06931 0.227118 1.29984L5.82117 7.17821V12.1845C5.82117 12.3907 5.89304 12.5706 6.03678 12.7212L8.94235 15.773C9.07746 15.9243 9.24779 16 9.4526 16C9.54315 16 9.63801 15.9799 9.73648 15.9396C10.0319 15.8042 10.1792 15.5702 10.1792 15.2362V7.17749L15.7732 1.29912C16.0082 1.06859 16.06 0.79087 15.9313 0.465222Z" fill="#223F44"/>
</g>
<defs>
<clipPath id="clip0_23_485">
<rect width="16" height="16" fill="white"/>
</clipPath>
</defs>
</svg>
