<svg width="16" height="16" viewBox="0 0 16 16" fill="none" xmlns="http://www.w3.org/2000/svg">
<g id="icon=past-date" clip-path="url(#clip0_30_1418)">
<path id="vector" d="M13.1002 1.57608H15.0168C15.4922 1.57608 15.914 1.96285 16 2.43755V14.5904C15.914 15.0651 15.5273 15.4518 15.0347 15.4518H0.965289C0.472719 15.4518 0.0859504 15.0651 0 14.5904V2.43755C0.0859504 1.96285 0.472719 1.57608 0.965289 1.57608H2.72397V2.54335C2.72397 3.29972 3.2866 3.89739 4.04298 3.89739C4.79935 3.89739 5.36198 3.28185 5.36198 2.54335V1.57608H10.4621V2.54335C10.4621 3.29972 11.0248 3.89739 11.7812 3.89739C12.5375 3.89739 13.1002 3.28185 13.1002 2.54335V1.57608ZM3.25157 0.433007C3.25157 -0.00666291 3.60331 -0.358398 4.04298 -0.358398C4.48265 -0.358398 4.83438 -0.00666291 4.83438 0.433007V2.54342C4.83438 2.98309 4.48265 3.33482 4.04298 3.33482C3.60331 3.33482 3.25157 2.98309 3.25157 2.54342V0.433007ZM10.9898 2.54342C10.9898 2.98309 11.3415 3.33482 11.7812 3.33482C12.2208 3.33482 12.5726 2.98309 12.5726 2.54342V0.433007C12.5726 -0.00666291 12.2208 -0.358398 11.7812 -0.358398C11.3415 -0.358398 10.9898 -0.00666291 10.9898 0.433007V2.54342ZM8.79713 11.8143L14.012 12.5099L12.7747 7.39683L11.4568 8.86049C8.77591 6.44662 4.82215 6.48353 2.63309 8.91472C1.84476 9.79025 1.39004 10.8719 1.2561 12.0298L3.36131 12.3159C3.48649 11.6002 3.75922 10.9223 4.25338 10.3734C5.71236 8.75308 8.34947 8.73687 10.127 10.3373L8.79713 11.8143Z" fill="#223F44"/>
</g>
<defs>
<clipPath id="clip0_30_1418">
<rect width="16" height="16" fill="white"/>
</clipPath>
</defs>
</svg>
