<svg width="16" height="16" viewBox="0 0 16 16" fill="none" xmlns="http://www.w3.org/2000/svg">
<g id="icon=input-value">
<path id="vector" d="M10.0532 3.57399C9.91865 3.84562 9.72914 4.03114 9.48459 4.13052C9.79027 4.21665 10.044 4.42536 10.2457 4.67712C10.4536 4.92226 10.5575 5.26015 10.5575 5.69082C10.5575 6.13471 10.4536 6.49581 10.2457 6.77407C10.0379 7.05234 9.7597 7.26105 9.41123 7.40017C9.06274 7.53268 8.67146 7.59894 8.23739 7.59894H6.01811V1.11926H8.06315C8.47888 1.11926 8.85181 1.16895 9.18196 1.26833C9.5121 1.36109 9.77499 1.52341 9.97063 1.7553C10.1663 1.98719 10.2641 2.31184 10.2641 2.72923C10.2641 3.01413 10.1938 3.29571 10.0532 3.57399ZM1.8708 1.11926H3.49398L5.36478 7.59894H3.93417L3.56736 6.05853H1.7424L1.37559 7.59894H0L1.8708 1.11926ZM12.6711 4.34916C12.6711 5.01171 12.8025 5.52849 13.0653 5.89951C13.3283 6.27054 13.6799 6.45606 14.1201 6.45606C14.3646 6.45606 14.5817 6.39642 14.7712 6.27717C14.9667 6.1579 15.138 6.01546 15.2847 5.84982L16 6.76413C15.4987 7.40017 14.8537 7.7182 14.065 7.7182C13.5636 7.7182 13.1022 7.59231 12.6803 7.34055C12.2584 7.08879 11.9191 6.71776 11.6623 6.22747C11.4116 5.73057 11.2863 5.12103 11.2863 4.39885C11.2863 3.68331 11.4147 3.07377 11.6715 2.57023C11.9344 2.06007 12.2798 1.67248 12.7078 1.40746C13.1419 1.13582 13.6096 1 14.1108 1C14.496 1 14.8415 1.08613 15.1471 1.25839C15.4528 1.42403 15.7066 1.61948 15.9082 1.84474L15.193 2.77893C15.0401 2.62654 14.8782 2.50398 14.7069 2.41122C14.5418 2.31184 14.3523 2.26215 14.1383 2.26215C13.8694 2.26215 13.6218 2.34496 13.3956 2.51059C13.1755 2.67624 12.9982 2.91475 12.8637 3.22615C12.7352 3.53754 12.6711 3.91188 12.6711 4.34916ZM2.32016 9.57001H3.31057V14.6981H4.40187V15.8807H0.696959V14.6981H1.9625V11.0508H0.871209V10.1464C1.18912 10.0802 1.45811 10.0007 1.67821 9.9079C1.89831 9.81514 2.11229 9.70252 2.32016 9.57001ZM7.68787 14.6782C7.87128 14.6583 8.03024 14.6484 8.16473 14.6484H9.33857V15.8807H5.23933V15.0459C5.73454 14.5358 6.17166 14.0753 6.55073 13.6645C6.93588 13.2471 7.23546 12.8662 7.44944 12.5216C7.66341 12.1705 7.77041 11.8458 7.77041 11.5477C7.77041 11.2363 7.69399 11.0011 7.54114 10.8421C7.39442 10.6765 7.19572 10.5936 6.94505 10.5936C6.73718 10.5936 6.54767 10.6599 6.37648 10.7924C6.21142 10.9183 6.05551 11.0674 5.90879 11.2396L5.17514 10.4545C5.46248 10.1232 5.75594 9.87478 6.05551 9.70914C6.35508 9.53688 6.71274 9.45075 7.12847 9.45075C7.51363 9.45075 7.84988 9.53356 8.13723 9.69921C8.42458 9.86484 8.64772 10.1 8.80669 10.4048C8.97175 10.703 9.05428 11.0541 9.05428 11.4583C9.05428 11.8094 8.96258 12.1705 8.77917 12.5415C8.60188 12.9059 8.37261 13.2736 8.09138 13.6447C7.81014 14.0091 7.51058 14.3701 7.19267 14.7279C7.33938 14.708 7.50446 14.6915 7.68787 14.6782ZM14.1378 14.1614C14.1378 14.5523 14.0369 14.8869 13.8351 15.1652C13.6395 15.4368 13.3765 15.6455 13.0464 15.7913C12.7223 15.9304 12.3647 16 11.9735 16C11.5027 16 11.0992 15.9172 10.763 15.7515C10.4328 15.5859 10.1608 15.3706 9.94676 15.1056L10.5704 14.1813C10.7477 14.3668 10.9433 14.5192 11.1573 14.6385C11.3713 14.7577 11.6005 14.8174 11.8451 14.8174C12.1324 14.8174 12.3617 14.7544 12.5329 14.6285C12.7041 14.496 12.7896 14.3105 12.7896 14.072C12.7896 13.8865 12.7468 13.7275 12.6613 13.595C12.5756 13.4558 12.4198 13.3498 12.1936 13.2769C11.9674 13.2041 11.6433 13.1676 11.2215 13.1676V12.1341C11.7473 12.1341 12.108 12.0579 12.3036 11.9055C12.4992 11.7465 12.5971 11.5411 12.5971 11.2893C12.5971 11.0707 12.5359 10.9017 12.4137 10.7825C12.2914 10.6566 12.1141 10.5936 11.8818 10.5936C11.6739 10.5936 11.4844 10.6433 11.3132 10.7427C11.1481 10.8421 10.9739 10.9779 10.7905 11.1502L10.1118 10.2557C10.3808 10.004 10.6651 9.80853 10.9647 9.66939C11.2643 9.52363 11.5913 9.45075 11.946 9.45075C12.5451 9.45075 13.0281 9.60313 13.3949 9.9079C13.7678 10.2061 13.9544 10.6301 13.9544 11.18C13.9544 11.5046 13.8687 11.7829 13.6975 12.0148C13.5325 12.2467 13.294 12.4355 12.9823 12.5813C13.3185 12.6873 13.5935 12.9092 13.8075 13.1676C14.0277 13.4194 14.1378 13.7507 14.1378 14.1614ZM7.36618 3.71311H7.99896C8.32909 3.71311 8.56753 3.64356 8.71425 3.50442C8.86711 3.36528 8.94352 3.17977 8.94352 2.94787C8.94352 2.69611 8.86711 2.51722 8.71425 2.41122C8.56142 2.30521 8.32604 2.25221 8.00812 2.25221H7.36618V3.71311ZM7.36618 4.79638V6.46599H8.12734C8.86711 6.46599 9.23698 6.17446 9.23698 5.59143C9.23698 5.30653 9.14528 5.10447 8.96186 4.9852C8.77845 4.85932 8.50028 4.79638 8.12734 4.79638H7.36618ZM2.16425 4.31935L2.01753 4.91563H3.29223L3.15467 4.31935C3.0752 3.99469 2.99266 3.65017 2.90706 3.28578C2.82759 2.92138 2.74811 2.57023 2.66863 2.23233C2.59527 2.57685 2.48217 2.93131 2.40268 3.29571C2.32932 3.65349 2.24984 3.99469 2.16425 4.31935Z" fill="#223F44"/>
</g>
</svg>
