<svg width="16" height="16" viewBox="0 0 16 16" fill="none" xmlns="http://www.w3.org/2000/svg">
<g id="icon=information" clip-path="url(#clip0_23_512)">
<path id="vector" d="M16 8C16 3.58187 12.4187 0 8 0C3.58133 0 0 3.58187 0 8C0 12.4181 3.58133 16 8 16C12.4187 16 16 12.4181 16 8ZM9.6 4.4C9.6 5.0625 9.06312 5.6 8.4 5.6C7.73688 5.6 7.2 5.0625 7.2 4.4C7.2 3.7375 7.73688 3.2 8.4 3.2C9.06312 3.2 9.6 3.7375 9.6 4.4ZM7.04 7.75001C7.04 7.75001 6.56 7.75001 5.6 8.20001C5.6 8.20001 6.08 6.4 8 6.4C9.44 6.4 9.7895 7.19665 9.62826 8.17891L8.96 12.25C8.96 12.25 9.44 12.25 10.4 11.8C10.4 11.8 9.92 13.6 8 13.6C6.56 13.6 6.2105 12.8034 6.37174 11.8211L7.04 7.75001Z" fill="#223F44"/>
</g>
<defs>
<clipPath id="clip0_23_512">
<rect width="16" height="16" fill="white"/>
</clipPath>
</defs>
</svg>
