<svg width="16" height="16" viewBox="0 0 16 16" fill="none" xmlns="http://www.w3.org/2000/svg">
<g id="icon=trash">
<path id="vector" d="M3.5 16H12.5C13.3284 16 14 15.3284 14 14.5V4.00035H2V14.5C2 15.3284 2.67157 16 3.5 16ZM11 6C11.2761 6 11.5 6.22386 11.5 6.5V13.5C11.5 13.7761 11.2761 14 11 14C10.7239 14 10.5 13.7761 10.5 13.5V6.5C10.5 6.22386 10.7239 6 11 6ZM8.49999 6.5V13.5C8.49999 13.7761 8.27614 14 8 14C7.72385 14 7.5 13.7761 7.5 13.5V6.5C7.5 6.22386 7.72385 6 8 6C8.27614 6 8.49999 6.22386 8.49999 6.5ZM5.5 13.5C5.5 13.7761 5.27614 14 5 14C4.72386 14 4.5 13.7761 4.5 13.5V6.5C4.5 6.22386 4.72386 6 5 6C5.27614 6 5.5 6.22386 5.5 6.5V13.5ZM15 2.5V1.5C15 1.22386 14.7761 1 14.5 1H10.75L10.4562 0.41563C10.3293 0.1608 10.0691 -0.000198675 9.78437 5.50847e-06H6.2125C5.92834 -0.00108684 5.66857 0.160359 5.54375 0.41563L5.25 1H1.5C1.22386 1 1 1.22386 1 1.5V2.5C1 2.77615 1.22386 3 1.5 3H14.5C14.7761 3 15 2.77615 15 2.5Z" fill="#223F44"/>
</g>
</svg>
