<svg width="16" height="16" viewBox="0 0 16 16" fill="none" xmlns="http://www.w3.org/2000/svg">
<g id="icon=complete-fill">
<g clip-path="url(#clip0_143_2578)">
<rect width="16" height="16" rx="8" fill="white"/>
<path id="vector" fill-rule="evenodd" clip-rule="evenodd" d="M8 16C12.4183 16 16 12.4183 16 8C16 3.58173 12.4183 0 8 0C3.58173 0 0 3.58173 0 8C0 12.4183 3.58173 16 8 16ZM11.8072 6.17551C12.0643 5.9063 12.0643 5.47113 11.8072 5.20192C11.5501 4.93269 11.1346 4.93269 10.8775 5.20192L6.92798 9.33786L5.1225 7.44713C4.86542 7.17792 4.44989 7.17792 4.19281 7.44713C3.93573 7.71635 3.93573 8.1515 4.19281 8.42073L6.46313 10.7982C6.58612 10.9277 6.75378 11 6.92798 11C7.10223 11 7.26923 10.9277 7.39282 10.7982L11.8072 6.17551Z" fill="#223F44"/>
</g>
</g>
<defs>
<clipPath id="clip0_143_2578">
<rect width="16" height="16" rx="8" fill="white"/>
</clipPath>
</defs>
</svg>
