<svg width="16" height="16" viewBox="0 0 16 16" fill="none" xmlns="http://www.w3.org/2000/svg">
<g id="icon=duplicate" clip-path="url(#clip0_23_404)">
<path id="vector" d="M12 6V14C12 15.12 11.12 16 10 16H2C0.88 16 0 15.12 0 14V6C0 4.88 0.88 4 2 4H10C11.12 4 12 4.88 12 6ZM13.2308 12V4.61538C13.2308 3.58154 12.4185 2.76923 11.3846 2.76923L4 2.76923V1.84615C4 0.812308 4.81231 0 5.84615 0H14.1538C15.1877 0 16 0.812308 16 1.84615V10.1538C16 11.1877 15.1877 12 14.1538 12H13.2308ZM3.6 10.6H5.4V12.4C5.4 12.736 5.664 13 6 13C6.336 13 6.6 12.736 6.6 12.4V10.6L8.4 10.6C8.736 10.6 9 10.336 9 10C9 9.664 8.736 9.4 8.4 9.4H6.6V7.6C6.6 7.264 6.336 7 6 7C5.664 7 5.4 7.264 5.4 7.6V9.4L3.6 9.4C3.264 9.4 3 9.664 3 10C3 10.336 3.264 10.6 3.6 10.6Z" fill="#223F44"/>
</g>
<defs>
<clipPath id="clip0_23_404">
<rect width="16" height="16" fill="white"/>
</clipPath>
</defs>
</svg>
