<svg width="16" height="16" viewBox="0 0 16 16" fill="none" xmlns="http://www.w3.org/2000/svg">
<g id="icon=settings" clip-path="url(#clip0_23_451)">
<path id="vector" d="M16 7.44936C16.0012 7.26562 15.9069 7.09373 15.7506 6.99687C15.6225 6.915 14.6131 6.31189 14.2131 6.12813L13.7168 4.92814C13.8643 4.53127 14.1475 3.41941 14.1968 3.2256C14.2368 3.04623 14.1825 2.85935 14.0525 2.72935L13.2706 1.95186C13.1412 1.82123 12.9537 1.76687 12.7744 1.80811C12.6269 1.84186 11.4944 2.1281 11.0718 2.2881L9.87183 1.79185C9.69746 1.40811 9.10997 0.423739 9.00309 0.254365C8.90684 0.0968661 8.73559 0 8.5506 0H7.44936C7.26562 0 7.095 0.0943733 6.99687 0.249373C6.915 0.377496 6.31189 1.38686 6.12813 1.78686L4.92814 2.28311C4.53127 2.13561 3.41941 1.85249 3.2256 1.80312C3.04623 1.76312 2.85935 1.81749 2.72935 1.94749L1.95186 2.72935C1.82123 2.85872 1.76687 3.04623 1.80811 3.2256C1.84186 3.3731 2.1281 4.50559 2.2881 4.92814L1.79185 6.12813C1.40811 6.30249 0.423739 6.88999 0.254365 6.99687C0.0968661 7.09312 0 7.26437 0 7.44936V8.54872C0 8.73247 0.0943733 8.90309 0.249373 9.00184C0.377496 9.08371 1.38686 9.68682 1.78686 9.87058L2.28311 11.0706C2.13561 11.4674 1.85249 12.5793 1.80312 12.7725C1.76312 12.9519 1.81749 13.1394 1.94749 13.2687L2.72498 14.0462C2.85436 14.1769 3.04186 14.2312 3.22061 14.1906C3.36811 14.1569 4.5006 13.8706 4.92315 13.7106L6.12314 14.2069C6.2975 14.5906 6.885 15.575 6.99188 15.7437C7.08875 15.9037 7.2625 16.0012 7.44938 16H8.54874C8.73248 16 8.9031 15.9056 9.00186 15.7506C9.08373 15.6225 9.68684 14.6131 9.8706 14.2131L11.0706 13.7169C11.4675 13.8644 12.5793 14.1475 12.7725 14.1969C12.9519 14.2369 13.1394 14.1825 13.2687 14.0525L14.0462 13.275C14.1769 13.1456 14.2312 12.9581 14.1906 12.7794C14.1569 12.6319 13.8706 11.4994 13.7106 11.0768L14.2069 9.87684C14.5906 9.70247 15.575 9.11497 15.7437 9.00809C15.9037 8.91122 16.0012 8.73747 16 8.55059V7.44936ZM10.4651 10.4632C9.81072 11.1157 8.92447 11.4826 8.00011 11.4831C7.07576 11.4824 6.18893 11.1143 5.53582 10.46C4.88271 9.80559 4.51646 8.9181 4.51708 7.99374C4.51771 7.06876 4.88583 6.18256 5.54019 5.52945C6.19455 4.87633 7.08204 4.50946 8.0064 4.51071C8.93138 4.51133 9.81758 4.87945 10.4707 5.53381C11.1238 6.18818 11.4907 7.07567 11.4894 8.00003C11.4876 8.92438 11.1188 9.80993 10.4651 10.4632Z" fill="#223F44"/>
</g>
<defs>
<clipPath id="clip0_23_451">
<rect width="16" height="16" fill="white"/>
</clipPath>
</defs>
</svg>
