<svg width="16" height="16" viewBox="0 0 16 16" fill="none" xmlns="http://www.w3.org/2000/svg">
<g id="icon=shapes" clip-path="url(#clip0_23_515)">
<path id="vector" d="M6.4 11.7333C6.4 9.37692 8.31025 7.46667 10.6667 7.46667C13.0231 7.46667 14.9333 9.37692 14.9333 11.7333C14.9333 14.0897 13.0231 16 10.6667 16C8.31025 16 6.4 14.0897 6.4 11.7333ZM0 11.7333L4.8 2.13333L7.46646 7.46643C6.17117 8.43946 5.33333 9.98855 5.33333 11.7333H0ZM8.53333 0H16V7.46667L13.8669 7.46643C12.9755 6.7968 11.8674 6.4 10.6667 6.4C9.90835 6.4 9.18699 6.55826 8.53382 6.84356L8.53333 0Z" fill="#223F44"/>
</g>
<defs>
<clipPath id="clip0_23_515">
<rect width="16" height="16" fill="white"/>
</clipPath>
</defs>
</svg>
