<svg width="16" height="16" viewBox="0 0 16 16" fill="none" xmlns="http://www.w3.org/2000/svg">
<path d="M8.5 0C11.5376 0 14 2.53678 14 5.66605C14 8.01269 11.484 12.4649 9.57825 15.4004C9.05925 16.1999 7.94075 16.1999 7.42175 15.4004C5.51602 12.4649 3 8.01269 3 5.66605C3 2.53678 5.46243 0 8.5 0ZM8.5 2.83302C6.98122 2.83302 5.75 4.10141 5.75 5.66605C5.75 7.23068 6.98122 8.49907 8.5 8.49907C10.0188 8.49907 11.25 7.23068 11.25 5.66605C11.25 4.10141 10.0188 2.83302 8.5 2.83302Z" fill="#223F44"/>
</svg>
