<svg width="16" height="16" viewBox="0 0 16 16" fill="none" xmlns="http://www.w3.org/2000/svg">
<g id="icon=menu" clip-path="url(#clip0_23_466)">
<path id="vector" d="M4.26682 1.08125V3.18557C4.26682 3.78307 3.78307 4.26682 3.18557 4.26682H1.08125C0.483744 4.26682 0 3.78307 0 3.18557V1.08125C0 0.483744 0.483744 0 1.08125 0H3.18557C3.78307 0 4.26682 0.483744 4.26682 1.08125ZM4.26682 6.9475V9.05245C4.26682 9.64933 3.78307 10.1331 3.18557 10.1331H1.08125C0.483744 10.1331 0 9.64933 0 9.05245V6.94813C0 6.35062 0.483744 5.86688 1.08125 5.86688H3.18557C3.78307 5.86688 4.26682 6.35062 4.26682 6.9475ZM4.26682 14.9187C4.26682 15.5162 3.78307 15.9999 3.18557 15.9999H1.08125C0.483744 15.9999 0 15.5162 0 14.9187V12.815C0 12.2169 0.483744 11.7331 1.08125 11.7331H3.18557C3.78307 11.7331 4.26682 12.2169 4.26682 12.8144V14.9187ZM9.05243 4.26682H6.94811C6.35061 4.26682 5.86686 3.78307 5.86686 3.18557V1.08125C5.86686 0.483744 6.35061 0 6.94749 0H9.05181C9.64931 0 10.1331 0.483744 10.1331 1.08125V3.18557C10.1331 3.78307 9.64931 4.26682 9.05243 4.26682ZM6.94811 10.1331C6.35061 10.1331 5.86686 9.64933 5.86686 9.05245V6.94813C5.86686 6.35062 6.35061 5.86688 6.94749 5.86688H9.05181C9.64931 5.86688 10.1331 6.35062 10.1331 6.9475V9.05245C10.1331 9.64933 9.64931 10.1331 9.05243 10.1331H6.94811ZM5.86686 14.9187V12.815C5.86686 12.2169 6.35061 11.7331 6.94749 11.7331H9.05181C9.64931 11.7331 10.1331 12.2169 10.1331 12.8144V14.9187C10.1331 15.5162 9.64931 15.9999 9.05243 15.9999H6.94811C6.35061 15.9999 5.86686 15.5162 5.86686 14.9187ZM11.7331 1.08125C11.7331 0.483744 12.2169 0 12.8144 0H14.9181C15.5162 0 15.9999 0.483744 15.9999 1.08125V3.18557C15.9999 3.78307 15.5162 4.26682 14.9187 4.26682H12.815C12.2169 4.26682 11.7331 3.78307 11.7331 3.18557V1.08125ZM12.8144 5.86688H14.9181C15.5162 5.86688 15.9999 6.35062 15.9999 6.9475V9.05245C15.9999 9.64933 15.5162 10.1331 14.9187 10.1331H12.815C12.2169 10.1331 11.7331 9.64933 11.7331 9.05245V6.94813C11.7331 6.35062 12.2169 5.86688 12.8144 5.86688ZM14.9181 11.7331C15.5162 11.7331 15.9999 12.2169 15.9999 12.8144V14.9187C15.9999 15.5162 15.5162 15.9999 14.9187 15.9999H12.815C12.2169 15.9999 11.7331 15.5162 11.7331 14.9187V12.815C11.7331 12.2169 12.2169 11.7331 12.8144 11.7331H14.9181Z" fill="#223F44"/>
</g>
<defs>
<clipPath id="clip0_23_466">
<rect width="16" height="16" fill="white"/>
</clipPath>
</defs>
</svg>
