<svg width="16" height="16" viewBox="0 0 16 16" fill="none" xmlns="http://www.w3.org/2000/svg">
<g clip-path="url(#clip0_356_36426)">
<path fill-rule="evenodd" clip-rule="evenodd" d="M1 0C0.447715 0 0 0.447715 0 1V15C0 15.5523 0.447715 16 1 16H15C15.5523 16 16 15.5523 16 15V1C16 0.447715 15.5523 0 15 0H1ZM4.36484 11.712C4.93284 12 5.54884 12.144 6.21284 12.144C6.71684 12.144 7.18884 12.048 7.62884 11.856C8.06884 11.664 8.45284 11.376 8.78084 10.992L7.70084 9.696C7.53284 9.872 7.32884 10.028 7.08884 10.164C6.85684 10.3 6.58884 10.368 6.28484 10.368C5.78084 10.368 5.37284 10.172 5.06084 9.78C4.75684 9.38 4.60484 8.816 4.60484 8.088C4.60484 7.616 4.68084 7.212 4.83284 6.876C4.99284 6.54 5.20084 6.284 5.45684 6.108C5.72084 5.924 6.00484 5.832 6.30884 5.832C6.57284 5.832 6.80484 5.888 7.00484 6C7.21284 6.104 7.41284 6.24 7.60484 6.408L8.68484 5.088C8.41284 4.808 8.06884 4.568 7.65284 4.368C7.24484 4.16 6.78084 4.056 6.26084 4.056C5.77284 4.056 5.30084 4.148 4.84484 4.332C4.39684 4.508 3.99284 4.772 3.63284 5.124C3.28084 5.476 3.00084 5.908 2.79284 6.42C2.59284 6.924 2.49284 7.504 2.49284 8.16C2.49284 9.048 2.66484 9.788 3.00884 10.38C3.35284 10.972 3.80484 11.416 4.36484 11.712ZM9.57209 6.8V12H10.9481V10.256H11.4761L12.3721 12H13.9081L12.7801 9.984C13.0308 9.84533 13.2334 9.65333 13.3881 9.408C13.5428 9.16267 13.6201 8.85333 13.6201 8.48C13.6201 8.048 13.5241 7.70933 13.3321 7.464C13.1401 7.21867 12.8868 7.048 12.5721 6.952C12.2574 6.85067 11.9134 6.8 11.5401 6.8H9.57209ZM11.4441 9.168H10.9481V7.888H11.4441C11.7161 7.888 11.9214 7.93067 12.0601 8.016C12.2041 8.10133 12.2761 8.256 12.2761 8.48C12.2761 8.93867 11.9988 9.168 11.4441 9.168Z" fill="#223F44"/>
</g>
<defs>
<clipPath id="clip0_356_36426">
<rect width="16" height="16" fill="white"/>
</clipPath>
</defs>
</svg>
