<svg width="16" height="16" viewBox="0 0 16 16" fill="none" xmlns="http://www.w3.org/2000/svg">
<g id="icon=percent">
<path id="vector" fill-rule="evenodd" clip-rule="evenodd" d="M0.925508 11.8009C1.55315 12.7158 2.39356 13.1732 3.44672 13.1732C4.49988 13.1732 5.33497 12.7158 5.95197 11.8009C6.57962 10.886 6.89344 9.57226 6.89344 7.85954C6.89344 6.14682 6.57962 4.84898 5.95197 3.96603C5.33497 3.08308 4.49988 2.6416 3.44672 2.6416C2.39356 2.6416 1.55315 3.08308 0.925508 3.96603C0.308503 4.84898 0 6.14682 0 7.85954C0 9.57226 0.308503 10.886 0.925508 11.8009ZM4.32436 11.3701C4.06904 11.6148 3.7765 11.7371 3.44672 11.7371C3.12758 11.7371 2.84035 11.6148 2.58504 11.3701C2.32973 11.1148 2.1276 10.7052 1.97867 10.1414C1.82974 9.57758 1.75527 8.81696 1.75527 7.85954C1.75527 6.90212 1.82974 6.14682 1.97867 5.59364C2.1276 5.04047 2.32973 4.65218 2.58504 4.42878C2.84035 4.19475 3.12758 4.07773 3.44672 4.07773C3.7765 4.07773 4.06904 4.19475 4.32436 4.42878C4.57967 4.65218 4.77647 5.04047 4.91477 5.59364C5.0637 6.14682 5.13817 6.90212 5.13817 7.85954C5.13817 8.81696 5.0637 9.57758 4.91477 10.1414C4.77647 10.7052 4.57967 11.1148 4.32436 11.3701ZM8.57998 10.2591C8.83263 10.4253 9.11853 10.5084 9.43767 10.5084C9.75681 10.5084 10.0427 10.4253 10.2954 10.2591C10.548 10.0928 10.7475 9.85681 10.8937 9.55097C11.04 9.23848 11.1132 8.86615 11.1132 8.43398C11.1132 7.7824 10.9536 7.2771 10.6344 6.91806C10.3153 6.55903 9.91638 6.37951 9.43767 6.37951C8.95896 6.37951 8.56003 6.55903 8.24089 6.91806C7.92175 7.2771 7.76218 7.7824 7.76218 8.43398C7.76218 8.86615 7.83532 9.23848 7.98159 9.55097C8.12786 9.85681 8.32733 10.0928 8.57998 10.2591ZM9.78673 9.33156C9.687 9.49113 9.57065 9.57091 9.43767 9.57091C9.31134 9.57091 9.19499 9.49113 9.08861 9.33156C8.98888 9.17199 8.93901 8.8728 8.93901 8.43398C8.93901 7.99516 8.98888 7.69929 9.08861 7.54637C9.19499 7.39345 9.31134 7.31699 9.43767 7.31699C9.57065 7.31699 9.687 7.39345 9.78673 7.54637C9.88646 7.69929 9.93633 7.99516 9.93633 8.43398C9.93633 8.8728 9.88646 9.17199 9.78673 9.33156ZM13.1477 6.37951L9.67702 13.1014H10.6344L14.1051 6.37951H13.1477ZM13.4668 12.8521C13.7195 13.0183 14.0054 13.1014 14.3245 13.1014C14.6437 13.1014 14.9295 13.0183 15.1822 12.8521C15.4349 12.6859 15.6343 12.4498 15.7806 12.144C15.9269 11.8315 16 11.4592 16 11.027C16 10.3754 15.8404 9.87011 15.5213 9.51108C15.2021 9.15204 14.8032 8.97253 14.3245 8.97253C13.8458 8.97253 13.4469 9.15204 13.1277 9.51108C12.8086 9.87011 12.649 10.3754 12.649 11.027C12.649 11.4592 12.7222 11.8315 12.8684 12.144C13.0147 12.4498 13.2142 12.6859 13.4668 12.8521ZM14.6736 11.9246C14.5738 12.0841 14.4575 12.1639 14.3245 12.1639C14.1982 12.1639 14.0818 12.0841 13.9755 11.9246C13.8757 11.765 13.8259 11.4658 13.8259 11.027C13.8259 10.5882 13.8757 10.2923 13.9755 10.1394C14.0818 9.98646 14.1982 9.91 14.3245 9.91C14.4575 9.91 14.5738 9.98646 14.6736 10.1394C14.7733 10.2923 14.8232 10.5882 14.8232 11.027C14.8232 11.4658 14.7733 11.765 14.6736 11.9246Z" fill="#223F44"/>
</g>
</svg>
