<svg width="16" height="16" viewBox="0 0 16 16" fill="none" xmlns="http://www.w3.org/2000/svg">
<g id="icon=simulation">
<path id="vector" d="M9 12.5C9 10.567 10.567 9 12.5 9C14.433 9 16 10.567 16 12.5C16 14.433 14.433 16 12.5 16C10.567 16 9 14.433 9 12.5ZM1.66667 1H13.3333C14.2078 1 14.9249 1.80813 14.9945 2.83597L15 3L15.0005 8.75812C14.4162 8.36686 13.7351 8.10884 13.0007 8.02754L13 4H2V12L8.02743 12.0003C8.00931 12.1644 8 12.3311 8 12.5C8 13.4253 8.27927 14.2854 8.75812 15.0005L1.66667 15C0.746192 15 0 14.1046 0 13V3C0 1.89543 0.746192 1 1.66667 1ZM14.5344 12.5521L11.5698 10.5L11.5 14.4994L14.5344 12.5521Z" fill="#223F44"/>
</g>
</svg>
