<svg width="16" height="16" viewBox="0 0 16 16" fill="none" xmlns="http://www.w3.org/2000/svg">
<g id="icon=lock">
<path id="vector" d="M15.2242 14.97V8.13319C15.2242 7.56493 14.7625 7.10322 14.212 7.10322H13.4484V5.32741C13.4484 2.37958 11.0688 0 8.12098 0C5.17314 0 2.79356 2.37958 2.79356 5.32741V7.10322H2.02997C1.46171 7.10322 1 7.56493 1 8.13319V14.97C1 15.5383 1.46171 16 2.02997 16H14.1942C14.7625 16 15.2242 15.5383 15.2242 14.97ZM8.12098 1.7758C10.0744 1.7758 11.6726 3.37403 11.6726 5.32741V7.10322H4.56937V5.32741C4.56937 3.37403 6.16759 1.7758 8.12098 1.7758Z" fill="#223F44"/>
</g>
</svg>
