<svg width="16" height="16" viewBox="0 0 16 16" fill="none" xmlns="http://www.w3.org/2000/svg">
<g id="icon=customers" clip-path="url(#clip0_356_36418)">
<path id="vector" fill-rule="evenodd" clip-rule="evenodd" d="M1 0C0.447715 0 0 0.447715 0 1V15C0 15.5523 0.447715 16 1 16H15C15.5523 16 16 15.5523 16 15V1C16 0.447715 15.5523 0 15 0H1ZM6.88438 11.712C7.45238 12 8.06838 12.144 8.73238 12.144C9.23637 12.144 9.70837 12.048 10.1484 11.856C10.5884 11.664 10.9724 11.376 11.3004 10.992L10.2204 9.696C10.0524 9.872 9.84838 10.028 9.60838 10.164C9.37638 10.3 9.10838 10.368 8.80437 10.368C8.30037 10.368 7.89237 10.172 7.58038 9.78C7.27638 9.38 7.12438 8.816 7.12438 8.088C7.12438 7.616 7.20038 7.212 7.35238 6.876C7.51237 6.54 7.72038 6.284 7.97638 6.108C8.24038 5.924 8.52437 5.832 8.82837 5.832C9.09237 5.832 9.32438 5.888 9.52437 6C9.73238 6.104 9.93237 6.24 10.1244 6.408L11.2044 5.088C10.9324 4.808 10.5884 4.568 10.1724 4.368C9.76438 4.16 9.30037 4.056 8.78038 4.056C8.29238 4.056 7.82038 4.148 7.36438 4.332C6.91638 4.508 6.51238 4.772 6.15238 5.124C5.80037 5.476 5.52038 5.908 5.31238 6.42C5.11238 6.924 5.01237 7.504 5.01237 8.16C5.01237 9.048 5.18437 9.788 5.52838 10.38C5.87238 10.972 6.32438 11.416 6.88438 11.712Z" fill="#223F44"/>
</g>
<defs>
<clipPath id="clip0_356_36418">
<rect width="16" height="16" fill="white"/>
</clipPath>
</defs>
</svg>
