<svg width="16" height="16" viewBox="0 0 16 16" fill="none" xmlns="http://www.w3.org/2000/svg">
<g id="icon=data">
<path id="vector" d="M3.02818 0.750952C4.46359 0.266588 6.38257 0 8.42857 0C10.4745 0 12.3926 0.266588 13.829 0.750952C15.0994 1.17901 15.8571 1.74448 15.8571 2.26414C15.8571 2.7838 15.0986 3.34928 13.829 3.77733C12.3935 4.2617 10.4746 4.52828 8.42857 4.52828C6.38261 4.52828 4.4645 4.2617 3.02818 3.77733C1.75855 3.34928 1 2.78455 1 2.26414C1 1.74448 1.75855 1.17901 3.02818 0.750952ZM15.3444 3.947C15.3807 3.92597 15.4657 3.87716 15.4996 3.85463C15.532 3.83586 15.5627 3.81558 15.595 3.79455C15.6913 3.73823 15.7786 3.67816 15.8571 3.61582V6.08657C15.8571 6.60623 15.0986 7.17171 13.829 7.59976C12.3935 8.08413 10.4746 8.35071 8.42857 8.35071C6.38261 8.35071 4.4645 8.08413 3.02818 7.59976C1.75855 7.17171 1 6.60698 1 6.08657L1.00162 3.61582C1.08087 3.6774 1.1674 3.73598 1.25878 3.79455C1.28951 3.81558 1.32186 3.8336 1.35421 3.85463C1.38817 3.87566 1.42537 3.89744 1.46095 3.91846C1.49168 3.93498 1.57255 3.98079 1.60247 3.99806C1.65908 4.02435 2.06504 4.22185 2.12407 4.24588C2.15803 4.2609 2.23567 4.29244 2.27125 4.30521C2.31734 4.32173 2.69904 4.46667 2.74756 4.48169C4.27435 4.9961 6.29282 5.2777 8.42929 5.2777C10.5658 5.2777 12.5842 4.9961 14.1063 4.48169C14.1548 4.46517 14.2017 4.45015 14.2478 4.43287C14.2842 4.41785 14.6537 4.27667 14.6893 4.2624C14.7476 4.23837 14.847 4.19482 14.9036 4.17079C14.936 4.15426 15.3144 3.96427 15.3444 3.947ZM8.42938 9.10019C10.5683 9.10019 12.5843 8.81859 14.1064 8.30567C14.8406 8.0586 15.431 7.76723 15.8571 7.44056V9.91131C15.8571 10.431 15.0986 10.9964 13.829 11.4245C12.3935 11.9089 10.4746 12.1755 8.42857 12.1755C6.38261 12.1755 4.4645 11.9089 3.02818 11.4245C1.75855 10.9964 1 10.4317 1 9.91131L1.00162 7.44056C1.43022 7.76723 2.01895 8.05785 2.75241 8.30567C4.27435 8.81783 6.29042 9.10019 8.42938 9.10019ZM8.42857 16C6.38261 16 4.4645 15.7334 3.02818 15.249C1.75936 14.8202 1.00161 14.2555 1.00161 13.7359V11.2651C1.43021 11.5918 2.01894 11.8824 2.7524 12.1302C4.27435 12.6424 6.29042 12.9262 8.42938 12.9262C10.5683 12.9262 12.5843 12.6446 14.1063 12.1302C14.8423 11.8824 15.431 11.591 15.8571 11.2651V13.7359C15.8571 14.2555 15.0986 14.821 13.829 15.249C12.3935 15.7334 10.4746 16 8.42857 16Z" fill="#223F44"/>
</g>
</svg>
