<svg width="16" height="16" viewBox="0 0 16 16" fill="none" xmlns="http://www.w3.org/2000/svg">
<g clip-path="url(#clip0_1061_36440)">
<path fill-rule="evenodd" clip-rule="evenodd" d="M0 2C0 1.44769 0.447754 1 1 1H11C11.5522 1 12 1.44769 12 2V3.20001C12 3.75226 11.5522 4.20001 11 4.20001H1C0.447754 4.20001 0 3.75226 0 3.20001V2ZM1.6001 2.20001C1.6001 2.4209 1.42102 2.59998 1.20007 2.59998C0.979126 2.59998 0.800049 2.4209 0.800049 2.20001C0.800049 1.97906 0.979126 1.79999 1.20007 1.79999C1.42102 1.79999 1.6001 1.97906 1.6001 2.20001ZM0 10C0 9.44775 0.447754 9 1 9H6.71606C6.57568 9.435 6.5 9.8985 6.5 10.3787C6.5 11.0201 6.62805 11.6385 6.86511 12.2H1C0.447754 12.2 0 11.7523 0 11.2V10ZM12 6.01477V6C12 5.44769 11.5522 5 11 5H1C0.447754 5 0 5.44769 0 6V7.20001C0 7.75232 0.447754 8.20001 1 8.20001H7.0636C7.35535 7.67505 7.74927 7.21417 8.21899 6.84528C8.57861 6.53607 9.00159 6.29865 9.46594 6.15527C9.9353 5.987 10.4415 5.8952 10.9698 5.8952C11.326 5.8952 11.6708 5.93665 12 6.01477ZM1.59998 10.2C1.59998 10.4209 1.4209 10.6 1.19995 10.6C0.979126 10.6 0.800049 10.4209 0.800049 10.2C0.800049 9.97913 0.979126 9.79999 1.19995 9.79999C1.4209 9.79999 1.59998 9.97913 1.59998 10.2ZM1.19995 6.59998C1.4209 6.59998 1.59998 6.4209 1.59998 6.20001C1.59998 5.97906 1.4209 5.79999 1.19995 5.79999C0.979126 5.79999 0.800049 5.97906 0.800049 6.20001C0.800049 6.4209 0.979126 6.59998 1.19995 6.59998ZM13.7224 12.0353L16.0048 14.3223L15.3224 15.0047L13.0353 12.7224V12.36L12.9082 12.233C12.3859 12.6753 11.7129 12.9482 10.9741 12.9482C9.33179 12.9482 8 11.6165 8 9.97412C8 8.33179 9.33179 7 10.9741 7C12.6165 7 13.9482 8.33179 13.9482 9.97412C13.9482 10.713 13.6801 11.3859 13.2329 11.9083L13.36 12.0353H13.7224ZM10.8282 11.8894C11.8823 11.8894 12.7341 11.0377 12.7341 9.98352C12.7341 8.92938 11.8823 8.07764 10.8282 8.07764C9.77417 8.07764 8.92236 8.92938 8.92236 9.98352C8.92236 11.0377 9.77417 11.8894 10.8282 11.8894Z" fill="#223F44"/>
</g>
<defs>
<clipPath id="clip0_1061_36440">
<rect width="16" height="16" fill="white"/>
</clipPath>
</defs>
</svg>
