<svg width="16" height="16" viewBox="0 0 16 16" fill="none" xmlns="http://www.w3.org/2000/svg">
<g id="icon=subtabs" clip-path="url(#clip0_23_539)">
<path id="vector" d="M0.355556 16H15.6444C15.8403 16 16 15.8403 16 15.6444V4.97778C16 4.78194 15.8403 4.62222 15.6444 4.62222H0.355556C0.159716 4.62222 0 4.78195 0 4.97778V15.6444C0 15.8403 0.159723 16 0.355556 16ZM14.8571 2.85714C14.8571 3.17187 14.7069 3.42857 14.5226 3.42857H1.47735C1.29311 3.42857 1.14286 3.17187 1.14286 2.85714C1.14286 2.5424 1.29312 2.28571 1.47735 2.28571H14.5226C14.7069 2.28571 14.8571 2.54241 14.8571 2.85714ZM13.4054 1.14286H2.59459C2.42446 1.14286 2.28571 0.88616 2.28571 0.571429C2.28571 0.256686 2.42447 0 2.59459 0H13.4054C13.5755 0 13.7143 0.256697 13.7143 0.571429C13.7143 0.88616 13.5755 1.14286 13.4054 1.14286Z" fill="#223F44"/>
</g>
<defs>
<clipPath id="clip0_23_539">
<rect width="16" height="16" fill="white"/>
</clipPath>
</defs>
</svg>
