<svg width="16" height="16" viewBox="0 0 16 16" fill="none" xmlns="http://www.w3.org/2000/svg">
<g id="icon=expense-allocations" clip-path="url(#clip0_23_401)">
<path id="vector" d="M10.429 7.49928C10.0591 7.06764 9.46443 6.81596 8.86979 6.81596H8.23888C8.01552 6.81596 7.82985 6.74426 7.68193 6.56428C7.53399 6.42087 7.45857 6.20434 7.49628 6.02437C7.53399 5.66443 7.86758 5.37619 8.2766 5.37619H9.01921C9.24257 5.37619 9.42823 5.5196 9.46447 5.73613C9.50218 5.84439 9.61241 5.95266 9.72409 5.95266H10.5784C10.6523 5.95266 10.7263 5.9161 10.8017 5.84439C10.8394 5.77268 10.8757 5.70098 10.8757 5.62786C10.8017 4.76458 10.0954 4.11639 9.20485 4.00812V3.28824C9.20485 3.14482 9.09318 3 8.90753 3H8.05324C7.90529 3 7.75591 3.10826 7.75591 3.28824V4.04469C6.642 4.22466 5.8994 5.19622 6.01109 6.31262C6.12277 7.35588 7.08727 8.18404 8.23889 8.18404H8.79585C9.01921 8.18404 9.20487 8.25574 9.3528 8.43571C9.50074 8.57913 9.57616 8.79566 9.53845 8.97563C9.50074 9.33557 9.16715 9.62381 8.75812 9.62381H8.01552C7.79216 9.62381 7.60649 9.4804 7.53253 9.26387C7.49482 9.15561 7.38459 9.04734 7.27291 9.04734H6.41862C6.34465 9.04734 6.27068 9.0839 6.19526 9.15561C6.15755 9.22732 6.12129 9.29902 6.12129 9.37214C6.19526 10.2354 6.90162 10.8836 7.79215 10.9919V11.7118C7.79215 11.8552 7.90383 12 8.08948 12H8.94376C9.0917 12 9.24109 11.8917 9.24109 11.7118V10.9553C10.2071 10.7753 10.9119 10.0189 10.9859 9.11902C11.0599 8.50741 10.838 7.96749 10.429 7.49928ZM14.4991 7.10795H15.9999C15.5873 3.39203 12.608 0.412562 8.89194 0V1.65528C11.9717 2.05595 14.0985 4.02838 14.4991 7.10795ZM4.64981 2.57295C4.81558 2.46591 4.9858 2.36631 5.16123 2.27487L4.3606 0.8311C4.11529 0.956726 3.87816 1.09647 3.64773 1.24589L4.64981 2.57295ZM6.14233 1.91676L5.68735 0.293018C5.41825 0.374043 5.15659 0.472907 4.90015 0.580689L5.57515 2.12491C5.76099 2.04835 5.94981 1.97773 6.14233 1.91676ZM7.28063 1.6747L7.10783 5.70889e-05C6.82165 0.0320212 6.5414 0.0840558 6.26414 0.145752L6.66887 1.78472C6.87031 1.73938 7.07325 1.70221 7.28063 1.6747ZM0.145101 6.26435C0.0841471 6.54161 0.0321125 6.82186 0.000148431 7.10804L1.64643 7.26339C1.67393 7.05601 1.7111 6.85232 1.7557 6.65163L0.145101 6.26435ZM2.53404 2.11349L3.75237 3.24775C3.89658 3.11544 4.04599 2.98981 4.20135 2.87013L3.15995 1.58646C2.94215 1.75149 2.73401 1.92766 2.53404 2.11349ZM1.91583 6.10105C1.97604 5.90852 2.04666 5.71971 2.12398 5.53461L0.58145 4.90032C0.472923 5.15678 0.374808 5.41844 0.293779 5.68752L1.91583 6.10105ZM3.31344 3.72343L2.11337 2.53418C1.92754 2.73414 1.75212 2.94227 1.58709 3.16008L2.93656 4.17242C3.05549 4.01706 3.18187 3.86764 3.31344 3.72343ZM1.24593 3.64769C1.09651 3.87812 0.956772 4.11525 0.831138 4.36056L2.35711 5.11014C2.44854 4.93471 2.54815 4.76448 2.65519 4.59871L1.24593 3.64769ZM16 8.89199H14.4602C14.0596 11.9718 11.9716 14.0717 8.89205 14.4722V15.9999C12.608 15.5874 15.5874 12.6081 16 8.89199ZM7.10795 14.4756C4.02819 14.0749 2.00727 11.9717 1.60669 8.89211H0C0.412562 12.608 3.39184 15.5875 7.10795 16.0001V14.4756Z" fill="#223F44"/>
</g>
<defs>
<clipPath id="clip0_23_401">
<rect width="16" height="16" fill="white"/>
</clipPath>
</defs>
</svg>
