<svg width="16" height="16" viewBox="0 0 16 16" fill="none" xmlns="http://www.w3.org/2000/svg">
<g clip-path="url(#clip0_1008_36449)">
<path fill-rule="evenodd" clip-rule="evenodd" d="M0 14.6361L4.56306 10.0623H5.28942L5.54191 9.81167C4.64997 8.7716 4.10749 7.42325 4.10749 5.94592C4.10749 2.66194 6.76958 0 10.0537 0C13.3379 0 16 2.66194 16 5.94592C16 6.82141 15.8108 7.6527 15.471 8.40112C15.0198 7.96583 14.4869 7.61461 13.8977 7.37269C14.0736 6.93409 14.1704 6.45515 14.1704 5.95354C14.1704 3.84815 12.4639 2.14097 10.3574 2.14097C8.25175 2.14097 6.54436 3.84815 6.54436 5.95354C6.54436 7.1803 7.12358 8.27141 8.02333 8.96871C7.55572 9.58122 7.22641 10.305 7.082 11.0933C6.76465 10.9092 6.46576 10.6967 6.18868 10.4593L5.93619 10.71V11.4345L1.36398 16L0 14.6361ZM12.0012 8.00054L12 8C9.79086 8 8 9.79086 8 12C8 14.2091 9.79086 16 12 16C14.2091 16 16 14.2091 16 12C16 9.79086 14.2091 8 12.0012 8.00054ZM10.0247 12.5001C10.1074 13.3324 10.3942 14.1047 10.8352 14.7655C9.90481 14.3731 9.21368 13.525 9.0416 12.5007L10.0247 12.5001ZM14.9584 12.5007C14.7864 13.5242 14.0962 14.3719 13.1661 14.7656C13.6059 14.1045 13.8925 13.3327 13.9752 12.5009L14.9584 12.5007ZM12.9689 12.501C12.8729 13.268 12.5585 13.9801 12.0724 14.5621L12.001 14.643L11.9284 14.5621C11.4418 13.9805 11.1272 13.2683 11.0311 12.501L12.9689 12.501ZM10.8343 9.23372C10.3941 9.89521 10.1074 10.6675 10.0247 11.4999L9.04143 11.5003C9.21306 10.4767 9.90304 9.62878 10.8343 9.23372ZM12 9.355L12.0724 9.43788C12.5588 10.0202 12.8732 10.7328 12.969 11.5002L11.0309 11.5005C11.1241 10.7538 11.4242 10.0588 11.889 9.48492L12 9.355ZM13.1677 9.23575C14.097 9.62878 14.7869 10.4767 14.9586 11.5003L13.9753 11.5C13.9 10.7418 13.6554 10.0335 13.2798 9.41329L13.1677 9.23575Z" fill="#223F44"/>
</g>
<defs>
<clipPath id="clip0_1008_36449">
<rect width="16" height="16" fill="white"/>
</clipPath>
</defs>
</svg>
