<svg width="16" height="16" viewBox="0 0 16 16" fill="none" xmlns="http://www.w3.org/2000/svg">
<g id="icon=list-arrow-right" clip-path="url(#clip0_23_494)">
<path id="vector" d="M2.79839 5.16389H9.86439C10.3262 5.16389 10.6797 4.78384 10.6797 4.34858C10.6797 3.88679 10.2997 3.53327 9.86426 3.53327H2.82598L4.94599 1.41325C5.2719 1.08735 5.2719 0.570335 4.94599 0.244429C4.62009 -0.0814764 4.10307 -0.0814764 3.77717 0.244429L0.244168 3.77743C0.0806829 3.94091 0 4.13095 0 4.34858C0 4.56621 0.0817428 4.78384 0.244168 4.91973L3.77717 8.45273C3.94065 8.61622 4.15721 8.6969 4.34832 8.6969C4.56595 8.6969 4.78358 8.61516 4.91947 8.45273C5.24537 8.12682 5.24537 7.60981 4.91947 7.2839L2.79839 5.16389ZM16 7.88503C16 7.42324 15.62 7.06972 15.1847 7.06972H7.13978C6.67799 7.06972 6.29792 7.42324 6.29811 7.88503C6.29811 8.34682 6.67815 8.70034 7.11342 8.70034H15.1847C15.6465 8.70034 16 8.3203 16 7.88503ZM15.1847 10.6027H7.13978C6.67799 10.6027 6.29792 10.9562 6.29811 11.418C6.29811 11.8798 6.67815 12.2333 7.11342 12.2333H15.1847C15.6465 12.2333 16 11.8533 16 11.418C16 10.9562 15.62 10.6027 15.1847 10.6027ZM7.13978 14.1357C6.67799 14.1357 6.29792 14.4892 6.29811 14.951C6.29811 15.4128 6.67815 15.7663 7.11342 15.7663H15.1847C15.6465 15.7663 16 15.3863 16 14.951C16 14.4892 15.62 14.1357 15.1847 14.1357H7.13978Z" fill="#223F44"/>
</g>
<defs>
<clipPath id="clip0_23_494">
<rect width="16" height="16" fill="white"/>
</clipPath>
</defs>
</svg>
