<svg width="16" height="16" viewBox="0 0 16 16" fill="none" xmlns="http://www.w3.org/2000/svg">
<g id="icon=function">
<path id="vector" fill-rule="evenodd" clip-rule="evenodd" d="M1.41107 6.16417L0 13.1453H2.97068L4.34462 6.16417H5.90423L6.34984 3.86189H4.82736L4.90163 3.49055C5.00065 2.98306 5.143 2.66742 5.32866 2.54365C5.52671 2.40749 5.78045 2.33941 6.0899 2.33941C6.23843 2.33941 6.39316 2.37036 6.55407 2.43225C6.72736 2.48176 6.85733 2.53746 6.94397 2.59935L7.87231 0.519869C7.21629 0.173289 6.51075 0 5.7557 0C4.97589 0 4.32606 0.167101 3.80619 0.501302C3.28632 0.835504 2.87166 1.27492 2.56221 1.81954C2.26515 2.36417 2.05472 2.9583 1.93094 3.60195L1.89381 3.86189L0.668404 3.97329L0.222801 6.16417H1.41107ZM8.87036 8.16936L5.04561 13.1453H8.22052L9.07459 11.7342C9.23551 11.4619 9.39642 11.1957 9.55733 10.9358C9.71824 10.6635 9.87297 10.3974 10.0215 10.1374H10.0958C10.1824 10.3974 10.2629 10.6635 10.3371 10.9358C10.4114 11.2081 10.4919 11.4742 10.5785 11.7342L11.0612 13.1453H14.1062L12.4352 8.83777L16 3.86187H12.8436L12.1381 5.31008C12.0143 5.57001 11.872 5.82995 11.7111 6.08988C11.5502 6.34982 11.4016 6.60975 11.2655 6.86969H11.1912C11.1293 6.60975 11.0612 6.34982 10.987 6.08988C10.9127 5.82995 10.8446 5.57001 10.7827 5.31008L10.3186 3.86187H7.31075L8.87036 8.16936Z" fill="#223F44"/>
</g>
</svg>
