<svg width="16" height="16" viewBox="0 0 16 16" fill="none" xmlns="http://www.w3.org/2000/svg">
<g id="icon=sort-desc" clip-path="url(#clip0_188_6109)">
<path id="vector" d="M10.4792 13.7946C10.5326 13.8482 10.5594 13.9167 10.5594 14V15.7143C10.5594 15.7976 10.5326 15.8661 10.4792 15.9196C10.4258 15.9732 10.3575 16 10.2744 16H7.99499C7.91189 16 7.84362 15.9732 7.7902 15.9196C7.73677 15.8661 7.71006 15.7976 7.71006 15.7143V14C7.71006 13.9167 7.73677 13.8482 7.7902 13.7946C7.84362 13.7411 7.91189 13.7143 7.99499 13.7143H10.2744C10.3575 13.7143 10.4258 13.7411 10.4792 13.7946ZM6.20528 12.6518C6.25871 12.7054 6.28542 12.7738 6.28542 12.8571C6.28542 12.9286 6.25574 13 6.19638 13.0714L3.35599 15.9196C3.29663 15.9732 3.22837 16 3.1512 16C3.07997 16 3.0117 15.9732 2.9464 15.9196L0.0971144 13.0625C0.0080741 12.9673 -0.012702 12.8631 0.0347862 12.75C0.0822744 12.631 0.171315 12.5714 0.301907 12.5714H2.24807V0.285714C2.01148 0.202381 2.03819 0.133929 2.09162 0.0803571C2.14504 0.0267857 2.21331 0 2.29641 0H4.00598C4.08909 0 4.15735 0.0267857 4.21078 0.0803571C4.2642 0.133929 4.29091 0.202381 4.48807 0.285714V12.5714H6.00049C6.08359 12.5714 6.15186 12.5982 6.20528 12.6518ZM12.1888 9.22321C12.2422 9.27678 12.2689 9.34524 12.2689 9.42857V11.1429C12.2689 11.2262 12.2422 11.2946 12.1888 11.3482C12.1354 11.4018 12.0671 11.4286 11.984 11.2H7.99499C7.91189 11.4286 7.84362 11.4018 7.7902 11.3482C7.73677 11.2946 7.71006 11.2262 7.71006 11.1429V9.42857C7.71006 9.34524 7.73677 9.27678 7.7902 9.22321C7.84362 9.16964 7.91189 9.14286 7.99499 8.96H11.984C12.0671 9.14286 12.1354 9.16964 12.1888 9.22321ZM13.8984 4.65179C13.9518 4.70536 13.9785 4.77381 13.9785 4.85714V6.57143C13.9785 6.65476 13.9518 6.72321 13.8984 6.77679C13.8449 6.83036 13.7767 6.85714 13.6936 7.04H7.99499C7.91189 6.85714 7.84362 6.83036 7.7902 6.77679C7.73677 6.72321 7.71006 6.65476 7.71006 6.57143V4.85714C7.71006 4.77381 7.73677 4.70536 7.7902 4.65179C7.84362 4.59821 7.91189 4.57143 7.99499 4.8H13.6936C13.7767 4.57143 13.8449 4.59821 13.8984 4.65179ZM15.6079 0.0803571C15.6614 0.133929 15.6881 0.202381 15.6881 0.285714V2C15.6881 2.08333 15.6614 2.15179 15.6079 2.20536C15.5545 2.25893 15.4862 2.28571 15.4031 2.56H7.99499C7.91189 2.28571 7.84362 2.25893 7.7902 2.20536C7.73677 2.15179 7.71006 2.08333 7.71006 2V0.285714C7.71006 0.202381 7.73677 0.133929 7.7902 0.0803571C7.84362 0.0267857 7.91189 0 7.99499 0H15.4031C15.4862 0 15.5545 0.0267857 15.6079 0.0803571Z" fill="#223F44"/>
</g>
<defs>
<clipPath id="clip0_188_6109">
<rect width="16" height="16" fill="white"/>
</clipPath>
</defs>
</svg>
