<svg width="16" height="16" viewBox="0 0 16 16" fill="none" xmlns="http://www.w3.org/2000/svg">
<g id="icon=search" clip-path="url(#clip0_23_482)">
<path id="vector" d="M16 14.6361L11.4369 10.0623H10.7106L10.4581 9.81167C11.35 8.7716 11.8925 7.42325 11.8925 5.94592C11.8925 2.66194 9.23042 0 5.94626 0C2.66209 0 0 2.66194 0 5.94592C0 9.22989 2.66209 11.8918 5.94626 11.8918C7.42367 11.8918 8.77118 11.3503 9.81132 10.4593L10.0638 10.71V11.4345L14.636 16L16 14.6361ZM9.45564 5.95354C9.45564 8.05978 7.74826 9.76611 5.64263 9.76611C3.53615 9.76611 1.82962 8.05978 1.82962 5.95354C1.82962 3.84815 3.53615 2.14097 5.64263 2.14097C7.74826 2.14097 9.45564 3.84815 9.45564 5.95354Z" fill="#223F44"/>
</g>
<defs>
<clipPath id="clip0_23_482">
<rect width="16" height="16" fill="white"/>
</clipPath>
</defs>
</svg>
