<svg width="16" height="16" viewBox="0 0 16 16" fill="none" xmlns="http://www.w3.org/2000/svg">
<g id="icon=error">
<path id="vector" d="M13.3551 15C14.8031 14.9894 16 13.8525 16 12.4581C16 11.9686 15.8557 11.4959 15.582 11.0867L10.2876 2.27126C9.81656 1.48698 8.93925 1 7.9979 1C7.05652 1 6.17927 1.48698 5.70821 2.27126L0.353018 11.1875C-0.118004 11.9717 -0.117341 12.9457 0.353018 13.7287C0.824041 14.513 1.70136 15 2.64271 15H13.3551ZM7.99994 9.89583C7.78894 9.89583 7.5503 9.77353 7.53209 9.38104L7.0498 5.2538C7.00019 4.86202 7.20114 4.20833 7.99994 4.20833C8.80376 4.20833 8.9997 4.87375 8.95008 5.2538L8.46779 9.38104C8.45147 9.75418 8.18834 9.89583 7.99994 9.89583ZM8.67564 11.1202C8.85524 11.2968 8.95726 11.5412 8.95726 11.7893C8.95726 12.0403 8.85586 12.2847 8.67564 12.4607C8.4991 12.6373 8.2523 12.7396 8 12.7396C7.74709 12.7396 7.50029 12.6374 7.32192 12.4607C7.14415 12.2841 7.04274 12.0397 7.04274 11.7893C7.04274 11.5406 7.14414 11.2962 7.32192 11.1202C7.50029 10.9436 7.74711 10.8438 8 10.8438C8.2523 10.8438 8.49971 10.9442 8.67564 11.1202Z" fill="#223F44"/>
</g>
</svg>
