<svg width="16" height="16" viewBox="0 0 16 16" fill="none" xmlns="http://www.w3.org/2000/svg">
<g clip-path="url(#clip0_356_36422)">
<path fill-rule="evenodd" clip-rule="evenodd" d="M1 0C0.447715 0 0 0.447715 0 1V15C0 15.5523 0.447715 16 1 16H15C15.5523 16 16 15.5523 16 15V1C16 0.447715 15.5523 0 15 0H1ZM5.0847 4.2V12H7.1487V9.384H7.9407L9.2847 12H11.5887L9.8967 8.976C10.2727 8.768 10.5767 8.48 10.8087 8.112C11.0407 7.744 11.1567 7.28 11.1567 6.72C11.1567 6.072 11.0127 5.564 10.7247 5.196C10.4367 4.828 10.0567 4.572 9.5847 4.428C9.1127 4.276 8.5967 4.2 8.0367 4.2H5.0847ZM7.8927 7.752H7.1487V5.832H7.8927C8.3007 5.832 8.6087 5.896 8.8167 6.024C9.0327 6.152 9.1407 6.384 9.1407 6.72C9.1407 7.408 8.7247 7.752 7.8927 7.752Z" fill="#223F44"/>
</g>
<defs>
<clipPath id="clip0_356_36422">
<rect width="16" height="16" fill="white"/>
</clipPath>
</defs>
</svg>
