<svg width="16" height="16" viewBox="0 0 16 16" fill="none" xmlns="http://www.w3.org/2000/svg">
<g id="icon=cloud-up-full">
<path id="vector" d="M11.7968 7.36986C11.7962 7.40191 11.795 7.43396 11.7937 7.46601C12.1318 7.33716 12.4981 7.26666 12.88 7.26666C14.6032 7.26666 16 8.69936 16 10.4667C16 12.234 14.6031 13.6667 12.88 13.6667C12.865 13.6667 12.8494 13.6667 12.8344 13.666C12.8225 13.666 12.8112 13.666 12.8 13.6654V13.6667H8.06747V8.74424L10.0088 10.7596C10.1713 10.9288 10.435 10.9288 10.5981 10.7596C10.7606 10.591 10.7606 10.3166 10.5981 10.148L7.94565 7.39357C7.78315 7.22435 7.51876 7.22435 7.35627 7.39357L4.70377 10.148C4.54128 10.3166 4.54128 10.591 4.70377 10.7596C4.86689 10.9288 5.13065 10.9288 5.29315 10.7596L7.23444 8.74424V13.6667H3.68002C1.64065 13.6224 0 11.9128 0 9.81027C0 7.70827 1.63937 5.99931 3.67874 5.95451C4.21812 4.24045 5.78691 3 7.63813 3C9.93558 3 11.7982 4.91032 11.7982 7.26667C11.7982 7.30129 11.7981 7.33588 11.7968 7.36986Z" fill="#223F44"/>
</g>
</svg>
