<svg width="16" height="16" viewBox="0 0 16 16" fill="none" xmlns="http://www.w3.org/2000/svg">
<g id="icon=product-forcast" clip-path="url(#clip0_23_560)">
<path id="vector" d="M7.34856 0.00845594L7.42148 0.0338244L10.8335 1.68099L10.9027 1.70058L10.9214 1.71445L10.9178 1.70983L10.9564 1.73746L10.9999 1.78657L10.9812 1.75791L11.026 1.80964L11.0651 1.87996L11.0895 1.96014L11.0951 2.02433L11.0945 5.72183L14.0809 7.15941C13.4742 6.91963 12.8131 6.78788 12.1212 6.78788C11.9702 6.78788 11.8207 6.79415 11.6729 6.80646L10.751 6.36538L8.13012 7.61919L8.80976 7.94019C8.60389 8.10346 8.41036 8.28161 8.2308 8.47302L7.62682 8.18784L7.62654 9.24903C7.29801 9.76208 7.05492 10.3351 6.91733 10.948L6.91829 8.18784L4.17607 9.48603V12.6354L6.84223 11.3569C6.80641 11.6065 6.78788 11.8617 6.78788 12.1212L6.78885 12.192L3.97084 13.5419C3.92378 13.5645 3.87299 13.5758 3.82221 13.5758L3.74651 13.5673L3.67361 13.542L0.205249 11.8819C0.101179 11.8319 0.0280252 11.7333 0.00653122 11.619L0 11.5488L0.00180932 7.57296L0.00587533 7.54541L0.0148503 7.50438L0.0314622 7.45746L0.0634671 7.40004L0.105823 7.34779L0.13146 7.32373L0.167594 7.30111L0.172056 7.29557L0.205412 7.27596L3.45058 5.72183L3.45247 1.99058L3.46474 1.92554L3.47603 1.89521L3.50872 1.83632L3.47735 1.88366L3.51636 1.81891L3.53927 1.78424L3.57511 1.74787L3.61624 1.71655C3.62623 1.71008 3.62956 1.70793 3.62643 1.71177L3.61692 1.72225L3.65606 1.69377L7.12421 0.0338267C7.19481 -7.22481e-09 7.27378 -0.00845618 7.34856 0.00845594ZM0.707471 8.1786V11.3131L3.46754 12.6354V9.48511L0.707471 8.1786ZM3.79414 6.36538L1.20095 7.60625L3.8218 8.84711L6.41411 7.61919L3.79414 6.36538ZM10.3869 2.59933L7.62593 3.92156V7.05331L10.3869 5.732V2.59933ZM4.15822 2.59933V5.73108L6.91829 7.05331V3.92156L4.15822 2.59933ZM7.27256 0.770397L4.64813 2.02606L7.27256 3.28264L9.89609 2.02698L7.27256 0.770397ZM12.0864 7.54272C12.0864 7.33135 12.3218 7.20287 12.5027 7.31304L14.1036 8.31423C14.2754 8.42477 14.2754 8.67274 14.1036 8.78291L12.5114 9.79347C12.3305 9.91297 12.0952 9.78413 12.0952 9.5638V9.00325H11.9235C10.4222 9.10449 9.22823 10.326 9.12858 11.8512C9.06535 12.7516 9.39999 13.6244 10.0424 14.2491C10.6756 14.8739 11.5529 15.1772 12.4394 15.0853C13.8144 14.9381 14.9362 13.8264 15.1171 12.4394C15.1712 11.9613 15.1259 11.493 14.9722 11.052C14.909 10.8593 14.9814 10.6386 15.1623 10.5284C15.2712 10.4552 15.4069 10.4459 15.5333 10.4918C15.6506 10.5377 15.7503 10.6389 15.7955 10.7674C15.9492 11.2268 16.0216 11.7045 15.9944 12.2004C15.9219 14.2215 14.3117 15.8845 12.3309 15.9947C11.2542 16.05 10.2324 15.6732 9.45435 14.9199C8.67668 14.1662 8.24242 13.1557 8.24242 12.0626C8.24242 11.0061 8.64028 10.0139 9.37276 9.26996C10.0964 8.52564 11.0642 8.12156 12.0864 8.11223V7.54272ZM11.4961 10.2169C11.7741 10.1108 12.0856 10.2524 12.1855 10.5477L12.6364 11.9573L13.5266 11.9567C13.8269 11.9567 14.0606 12.2165 14.0606 12.5238C14.0606 12.8427 13.816 13.0909 13.5266 13.0909H12.2585C12.036 13.0909 11.8357 12.9488 11.758 12.7245L11.1845 10.9492C11.0846 10.6539 11.218 10.323 11.4961 10.2169Z" fill="#223F44"/>
</g>
<defs>
<clipPath id="clip0_23_560">
<rect width="16" height="16" fill="white"/>
</clipPath>
</defs>
</svg>
