<svg width="16" height="16" viewBox="0 0 16 16" fill="none" xmlns="http://www.w3.org/2000/svg">
<g id="icon=structure-page">
<path id="vector" d="M14 3V15C14 15.5523 13.5523 16 13 16H3C2.44772 16 2 15.5523 2 15V1C2 0.447715 2.44772 0 3 0H11L14 3ZM10 2.5V1H3V15H13V4H11.5C10.7203 4 10.0796 3.40511 10.0069 2.64446L10 2.5ZM6.91365 6.15273C6.91365 5.51622 7.39999 5 7.99971 5C8.59969 5 9.08577 5.51619 9.08577 6.15273C9.08577 6.69111 8.73797 7.14322 8.26792 7.26992L8.26764 8.21396H10.1819L10.1816 9.73009C10.6519 9.85679 10.9997 10.3089 11 10.8473C11 11.4838 10.5139 12 9.91394 12C9.31424 12 8.82788 11.4838 8.82788 10.8473C8.82788 10.3089 9.17568 9.85678 9.64572 9.73009V8.80246H6.35398V9.73009C6.82431 9.85679 7.17212 10.3086 7.17212 10.8473C7.17212 11.4838 6.68576 12 6.08606 12C5.48636 12 5 11.4838 5 10.8473C5 10.3089 5.3478 9.85678 5.81814 9.73009V8.21396H7.73178V7.26992C7.26146 7.14321 6.91365 6.69113 6.91365 6.15273ZM11.5 3H12.586L11 1.415V2.5C11 2.74546 11.1769 2.94961 11.4101 2.99194L11.5 3Z" fill="#223F44"/>
</g>
</svg>
