<svg width="110" height="110" viewBox="0 0 110 110" fill="none" xmlns="http://www.w3.org/2000/svg">
<g id="icon=eye">
<path id="vector" d="M110 55.3418C110 55.3418 85.3747 23 55 23C24.6253 23 0 55.3418 0 55.3418C0 55.3418 24.6253 88 55 88C85.3747 88 110 55.3418 110 55.3418ZM55 33.7228C67.127 33.7228 76.9621 43.4759 76.9621 55.5018C76.9621 67.5277 67.127 77.276 55 77.276C42.8732 77.276 33.0379 67.5276 33.0379 55.5018C33.0379 43.4761 42.873 33.7228 55 33.7228ZM43.4032 55.5018C43.4032 61.8508 48.5976 67.0019 55 67.0019C61.4024 67.0019 66.5968 61.8508 66.5968 55.5018C66.5968 49.1481 61.4024 44.0017 55 44.0017C48.5976 44.0017 43.4032 49.1481 43.4032 55.5018Z" fill="#51738B"/>
</g>
</svg>
