<svg width="16" height="16" viewBox="0 0 16 16" fill="none" xmlns="http://www.w3.org/2000/svg">
<g id="icon=clear-filter" clip-path="url(#clip0_188_6345)">
<path id="vector" fill-rule="evenodd" clip-rule="evenodd" d="M15.6641 0.457418C15.5383 0.152927 15.3193 0 15.0055 0H0.725704C0.413375 0 0.193628 0.152927 0.0671477 0.457418C-0.0593358 0.777604 -0.00704707 1.05137 0.223308 1.27803L5.72352 7.05781V11.9801C5.72352 12.1829 5.79418 12.3597 5.93551 12.5079L6.94294 13.566L9.15195 11.357L6.47533 8.68034L9.25631 5.89936L10.2062 6.84925L15.5086 1.27733C15.7397 1.05066 15.7906 0.777604 15.6641 0.457418ZM9.25628 15.4241L11.9329 12.7475L14.6095 15.4241L16 14.0336L13.3234 11.357L16 8.68035L14.6095 7.28985L11.9329 9.96647L9.25628 7.28985L7.86579 8.68035L10.5424 11.357L7.86579 14.0336L9.25628 15.4241Z" fill="#223F44"/>
</g>
<defs>
<clipPath id="clip0_188_6345">
<rect width="16" height="16" fill="white"/>
</clipPath>
</defs>
</svg>
