<svg width="16" height="16" viewBox="0 0 16 16" fill="none" xmlns="http://www.w3.org/2000/svg">
<g clip-path="url(#clip0_356_36428)">
<path fill-rule="evenodd" clip-rule="evenodd" d="M1 0C0.447715 0 0 0.447715 0 1V15C0 15.5523 0.447715 16 1 16H15C15.5523 16 16 15.5523 16 15V1C16 0.447715 15.5523 0 15 0H1ZM3.38939 4.2V12H5.45339V9.144H8.04539V7.416H5.45339V5.928H8.47739V4.2H3.38939ZM10.167 11.912C10.519 12.0347 10.8577 12.096 11.183 12.096C11.615 12.096 11.983 12.0187 12.287 11.864C12.591 11.7093 12.8203 11.5067 12.975 11.256C13.135 11 13.215 10.7253 13.215 10.432C13.215 10.0693 13.127 9.77333 12.951 9.544C12.775 9.31467 12.5243 9.136 12.199 9.008L11.567 8.76C11.3323 8.66933 11.1457 8.592 11.007 8.528C10.8683 8.45867 10.799 8.36267 10.799 8.24C10.799 8.12267 10.847 8.03467 10.943 7.976C11.0443 7.91733 11.1777 7.888 11.343 7.888C11.535 7.888 11.711 7.92 11.871 7.984C12.0363 8.048 12.207 8.14133 12.383 8.264L13.071 7.4C12.831 7.16533 12.5563 6.992 12.247 6.88C11.943 6.76267 11.6417 6.704 11.343 6.704C10.9643 6.704 10.6283 6.77867 10.335 6.928C10.047 7.072 9.82032 7.26667 9.65498 7.512C9.48965 7.752 9.40698 8.02133 9.40698 8.32C9.40698 8.69333 9.51098 9 9.71898 9.24C9.93232 9.48 10.1777 9.656 10.455 9.768L11.103 10.04C11.3217 10.1253 11.4923 10.2 11.615 10.264C11.743 10.328 11.807 10.4213 11.807 10.544C11.807 10.6613 11.759 10.752 11.663 10.816C11.5723 10.88 11.423 10.912 11.215 10.912C11.023 10.912 10.8177 10.8667 10.599 10.776C10.3857 10.68 10.1857 10.5573 9.99898 10.408L9.21498 11.352C9.49765 11.6027 9.81498 11.7893 10.167 11.912Z" fill="#223F44"/>
</g>
<defs>
<clipPath id="clip0_356_36428">
<rect width="16" height="16" fill="white"/>
</clipPath>
</defs>
</svg>
