<svg width="16" height="16" viewBox="0 0 16 16" fill="none" xmlns="http://www.w3.org/2000/svg">
<g id="icon=acquistions-setup">
<path id="vector" d="M12.2853 10.3098L12.9557 9.5721C13.1731 9.78591 13.4634 9.90191 13.7529 9.90191C14.0064 9.90191 14.2605 9.80486 14.4779 9.63048L16 8.33019L11.3812 2.03943L9.8584 3.33972C9.60495 3.55353 9.45981 3.84468 9.42371 4.17448C9.4053 4.27153 9.4053 4.36858 9.42371 4.46563L7.77413 4.5043L7.28493 4.67868L5.3819 4.11611C5.40031 3.9023 5.3819 3.68926 5.30969 3.47544C5.18296 3.16458 4.96562 2.91287 4.67535 2.7961L2.88136 2L0 9.37565L1.79399 10.1718C1.93912 10.2301 2.10195 10.2688 2.24709 10.2688C2.39223 10.2688 2.55505 10.2301 2.70019 10.1718C2.86303 10.0944 3.00816 9.97766 3.11719 9.84195L6.99537 13.0059C7.15821 13.1416 7.33944 13.2 7.52068 13.2H7.64741C7.88316 13.1613 8.08209 13.0446 8.22723 12.8315C8.29944 12.7345 8.35396 12.6177 8.37236 12.5017L8.62581 12.6958C8.78864 12.8315 8.96988 12.8899 9.15112 12.8899H9.27784C9.5136 12.8512 9.71253 12.7345 9.85767 12.5214C9.92988 12.4244 9.9844 12.3076 10.0028 12.1719C10.1295 12.2492 10.2747 12.2887 10.4198 12.2887H10.5465C10.7823 12.25 10.9812 12.1332 11.1264 11.9202C11.217 11.7845 11.2892 11.6291 11.2892 11.4547C11.3437 11.4547 11.3798 11.4744 11.4343 11.4744H11.561C11.7968 11.4357 11.9957 11.319 12.1409 11.1059C12.286 10.9118 12.3405 10.6593 12.3037 10.4069C12.3037 10.3682 12.2853 10.3485 12.2853 10.3098ZM2.84467 9.27855C2.77245 9.45369 2.64501 9.58941 2.48219 9.64778C2.31932 9.72513 2.15577 9.72513 1.99294 9.6478L0.688159 9.06551L3.17097 2.75739L4.47576 3.33968C4.63859 3.41701 4.74762 3.53377 4.81982 3.70815C4.89204 3.88253 4.89204 4.05768 4.81982 4.23205L2.84467 9.27855ZM7.59299 6.19293L6.37882 6.44541C6.19758 6.48408 6.01634 6.38703 5.94414 6.21265C5.88962 6.09589 5.90803 5.97989 5.94414 5.86312C5.99865 5.74636 6.07086 5.66903 6.17989 5.63036L7.86481 5.10634L9.62269 5.04796C9.6411 5.06767 9.6411 5.08663 9.6588 5.10634L12.6132 9.10511L11.9973 9.78444L9.4415 7.6881C9.8224 7.494 10.0943 7.10581 10.1304 6.64029C10.1488 6.48486 10.0213 6.34914 9.87691 6.32942C9.73178 6.30971 9.60505 6.44618 9.58664 6.60085C9.56823 6.77523 9.49602 6.95038 9.3693 7.06637C9.24257 7.18313 9.07902 7.24075 8.89778 7.2218L7.59299 6.19293ZM11.6718 10.2499C11.744 10.3082 11.7985 10.3856 11.7985 10.4826C11.8162 10.5797 11.7801 10.657 11.7254 10.735C11.6164 10.8905 11.399 10.9291 11.2539 10.8124L10.7463 10.4045C10.7279 10.3848 10.6918 10.3658 10.6741 10.3658L8.62586 8.71599C8.49914 8.61894 8.33559 8.63865 8.24497 8.77437C8.15435 8.91008 8.17276 9.08523 8.29948 9.18228L10.6195 11.0649C10.6918 11.1232 10.7463 11.2006 10.7463 11.2976C10.7647 11.3947 10.7279 11.4917 10.6741 11.569C10.6195 11.6464 10.5473 11.7048 10.4567 11.7048C10.3661 11.7245 10.2755 11.685 10.2033 11.6274L9.82237 11.2976C9.80396 11.2779 9.78626 11.2779 9.76786 11.2589C9.74945 11.2392 9.73175 11.2203 9.71334 11.2006L7.91935 9.74484C7.79263 9.64779 7.62908 9.66751 7.53846 9.80322C7.44784 9.93894 7.46625 10.1141 7.59297 10.2111L9.38696 11.6669C9.45918 11.7252 9.51369 11.8026 9.51369 11.8996C9.5321 11.9967 9.49528 12.0937 9.44148 12.171C9.38696 12.2484 9.31475 12.3068 9.22413 12.3068C9.13351 12.3265 9.04289 12.287 8.97069 12.2294L8.24572 11.6471C8.22732 11.6274 8.19121 11.6085 8.17351 11.6085C8.1374 11.5698 8.1013 11.5311 8.06448 11.5114L7.50235 11.0648C7.37562 10.9678 7.21207 10.9875 7.12145 11.1232C7.03083 11.2589 7.04924 11.4341 7.17597 11.5311L7.7381 11.9777C7.81032 12.0361 7.86483 12.1134 7.86483 12.2105C7.88324 12.3075 7.84642 12.4046 7.79262 12.4819C7.7381 12.5592 7.66589 12.6176 7.57527 12.6176C7.48465 12.6373 7.39403 12.5979 7.32183 12.5403L3.38837 9.35671L5.21926 4.67861L6.3067 4.98947L6.03484 5.08652C5.78139 5.16385 5.56332 5.35794 5.45501 5.63014C5.34599 5.88262 5.34599 6.19271 5.45501 6.44519C5.63625 6.87205 6.05325 7.10481 6.48794 7.02748L7.48476 6.83338L11.6718 10.2499ZM11.3091 2.87331L15.2596 8.21172L14.1537 9.16256C14.0269 9.27932 13.8634 9.31799 13.6822 9.29827C13.5193 9.27856 13.3558 9.18151 13.2652 9.04579L10.0942 4.75666C9.98515 4.62094 9.94904 4.4458 9.96745 4.2517C9.98585 4.07732 10.0765 3.90217 10.2032 3.80512L11.3091 2.87331Z" fill="#223F44"/>
</g>
</svg>
