<svg width="16" height="16" viewBox="0 0 16 16" fill="none" xmlns="http://www.w3.org/2000/svg">
<g id="icon=exogenous-equations">
<path id="vector" d="M8 11C8 8.79086 9.79086 7 12 7C14.2091 7 16 8.79086 16 11C16 13.2091 14.2091 15 12 15C9.79086 15 8 13.2091 8 11ZM1.875 1H13.125C14.1605 1 15 1.89543 15 3L15.0012 7.00054C14.693 6.7689 14.3572 6.57206 13.9995 6.41584L13.999 5H10.999L10.9988 6.10026C10.6512 6.1709 10.3168 6.2776 9.99947 6.41628L9.999 5H4.999V7L8.99981 6.99978C8.62116 7.28422 8.28422 7.62116 7.99978 7.99981L4.999 8V10L7.10006 9.99981C7.03444 10.323 7 10.6575 7 11H4.999L5 13L7.41628 13.0005C7.57242 13.3578 7.76911 13.6933 8.00054 14.0012L1.875 14C0.839466 14 0 13.1046 0 12V3C0 1.89543 0.839466 1 1.875 1ZM4 13L3.999 11H1V12C1 12.5128 1.35847 12.9355 1.82028 12.9933L1.92857 13H4ZM14 12.5V11.5H10V12.5H14ZM14 10.5V9.5H10V10.5H14ZM3.999 10V8H1V10H3.999ZM3.999 7V5H1V7H3.999ZM3.999 4L4 2H1.92857C1.45237 2 1.05989 2.38604 1.00625 2.88338L1 3V4H3.999ZM9.999 4L10 2H5L4.999 4H9.999ZM13.1797 2.00673L13.0714 2H11L10.999 4H13.999L14 3C14 2.48716 13.6415 2.06449 13.1797 2.00673Z" fill="#223F44"/>
</g>
</svg>
