<svg width="16" height="16" viewBox="0 0 16 16" fill="none" xmlns="http://www.w3.org/2000/svg">
<g id="icon=pinned" clip-path="url(#clip0_143_2290)">
<path id="vector" d="M8.62469 15.4107C8.71312 15.3148 8.75777 15.1869 8.74796 15.0572L8.75227 9.01222L7.82079 9.01282L7.81647 15.0578C7.80647 15.1875 7.85094 15.3154 7.93924 15.4112C8.02712 15.5065 8.1518 15.5609 8.28187 15.5604C8.41193 15.5607 8.53667 15.5061 8.62469 15.4107ZM10.4389 1.56874C10.9237 1.48829 11.2803 1.06895 11.2802 0.577168C11.281 0.085402 10.925 -0.333433 10.4403 -0.413196L10.4402 -0.439575L6.14617 -0.436566C5.66136 -0.35612 5.3047 0.0632214 5.30475 0.555002C5.30399 1.04677 5.66007 1.4657 6.14477 1.54547C6.1811 1.54957 6.20997 1.57844 6.21408 1.61477L6.21237 3.98657C6.2289 4.55927 5.8408 5.06616 5.28329 5.19951C4.26617 5.3848 3.52652 6.2714 3.52783 7.30491L3.53385 8.07782C3.5378 8.32969 3.74085 8.53274 3.99273 8.5367L12.5811 8.53058C12.838 8.52956 13.0462 8.3213 13.0472 8.06448L13.0477 7.28495C13.0439 6.2564 12.3072 5.3783 11.2952 5.19519C10.7379 5.06263 10.3505 4.55628 10.3678 3.98357L10.3695 1.63814C10.3737 1.60181 10.4026 1.57289 10.4389 1.56874Z" fill="#223F44"/>
</g>
<defs>
<clipPath id="clip0_143_2290">
<rect width="16" height="16" fill="white"/>
</clipPath>
</defs>
</svg>
