<svg width="16" height="16" viewBox="0 0 16 16" fill="none" xmlns="http://www.w3.org/2000/svg">
<g id="icon=profile">
<path id="vector" d="M15 14.5086C15 11.6268 13.9715 9.11645 11.9157 7.83548C11.8109 7.76834 11.6891 7.78479 11.6019 7.85259C10.7306 8.47592 9.66732 8.83005 8.49997 8.83005C7.33261 8.83005 6.26929 8.45948 5.398 7.85259C5.31087 7.78545 5.17132 7.78545 5.08419 7.83548C3.02777 9.11638 2 11.6268 2 14.5086C2 16.4971 15 16.4971 15 14.5086ZM8.49993 0C10.6462 0 12.3861 1.68242 12.3861 3.75783C12.3861 5.83313 10.6462 7.51565 8.49993 7.51565C6.35366 7.51565 4.6138 5.83323 4.6138 3.75783C4.6138 1.68252 6.35366 0 8.49993 0Z" fill="#223F44"/>
</g>
</svg>
