<svg width="16" height="16" viewBox="0 0 16 16" fill="none" xmlns="http://www.w3.org/2000/svg">
<g id="icon=liquidity-sources" clip-path="url(#clip0_23_572)">
<path id="vector" d="M15.4662 16L16 12.6942L13.0597 12.0944L12.9099 13.0278L14.5938 13.3716C12.715 15.0093 9.99953 14.9385 8.19738 13.0666C7.06385 11.8905 5.58693 11.2789 4.0319 11.3497C2.47852 11.4187 1.04813 12.1584 0 13.4322L0.619256 14.0758C1.51288 12.9874 2.73639 12.3572 4.06337 12.2966C5.39182 12.2376 6.65432 12.7582 7.62292 13.7624C8.73695 14.9183 10.1479 15.4895 11.5558 15.4895C12.7238 15.4895 13.8888 15.0969 14.88 14.3185L14.6355 15.8298L15.4662 16ZM15.4662 10.3288L16 7.02297L13.0597 6.42316L12.9099 7.35662L14.5938 7.70034C12.715 9.33809 9.99953 9.26731 8.19738 7.39538C7.06385 6.21761 5.58693 5.60938 4.0319 5.67844C2.47852 5.74752 1.04813 6.4872 0 7.76098L0.619256 8.40462C1.51288 7.31618 2.73639 6.686 4.06337 6.62535C5.39182 6.56807 6.65432 7.08701 7.62292 8.09121C8.73695 9.24706 10.1479 9.81824 11.5558 9.81824C12.7238 9.81824 13.8888 9.42565 14.88 8.64725L14.6355 10.1586L15.4662 10.3288ZM16 1.3496L13.0597 0.749781L12.9099 1.68325L14.5938 2.02697C12.715 3.66471 9.99953 3.59393 8.19738 1.722C7.06385 0.544236 5.58693 -0.0623101 4.0319 0.00506472C2.47852 0.0741476 1.04813 0.813822 0 2.0876L0.619256 2.73124C1.51288 1.64281 2.73639 1.01262 4.06337 0.951979C5.39182 0.893006 6.65432 1.41364 7.62292 2.41783C8.73695 3.57369 10.1479 4.14486 11.5558 4.14486C12.7238 4.14486 13.8888 3.75228 14.88 2.97387L14.6355 4.48523L15.4662 4.65541L16 1.3496Z" fill="#223F44"/>
</g>
<defs>
<clipPath id="clip0_23_572">
<rect width="16" height="16" fill="white"/>
</clipPath>
</defs>
</svg>
