<svg width="16" height="16" viewBox="0 0 16 16" fill="none" xmlns="http://www.w3.org/2000/svg">
<g id="icon=exogenous-accounts">
<path id="vector" d="M12 7L12.0012 7.00054C14.2091 7 16 8.79086 16 11C16 13.2091 14.2091 15 12 15C9.79086 15 8 13.2091 8 11C8 8.79086 9.79086 7 12 7ZM1.875 1H13.125C14.1605 1 15 1.89543 15 3L15.0012 7.00054C14.693 6.7689 14.3572 6.57206 13.9995 6.41584L13.999 5H10.999L10.9988 6.10026C10.6512 6.1709 10.3168 6.2776 9.99947 6.41628L9.999 5H4.999V7L8.99981 6.99978C8.62116 7.28422 8.28422 7.62116 7.99978 7.99981L4.999 8V10L7.10006 9.99981C7.03444 10.323 7 10.6575 7 11H4.999L5 13L7.41628 13.0005C7.57242 13.3578 7.76911 13.6933 8.00054 14.0012L1.875 14C0.839466 14 0 13.1046 0 12V3C0 1.89543 0.839466 1 1.875 1ZM10.8352 13.7655C10.3942 13.1047 10.1074 12.3324 10.0247 11.5001L9.0416 11.5007C9.21368 12.525 9.90481 13.3731 10.8352 13.7655ZM13.1661 13.7656C14.0962 13.3719 14.7864 12.5242 14.9584 11.5007L13.9752 11.5009C13.8925 12.3327 13.6059 13.1045 13.1661 13.7656ZM12.0724 13.5621C12.5585 12.9801 12.8729 12.268 12.9689 11.501L11.0311 11.501C11.1272 12.2683 11.4418 12.9805 11.9284 13.5621L12.001 13.643L12.0724 13.5621ZM4 13L3.999 11H1V12C1 12.5128 1.35847 12.9355 1.82028 12.9933L1.92857 13H4ZM10.0247 10.4999C10.1074 9.66752 10.3941 8.89521 10.8343 8.23372C9.90304 8.62878 9.21306 9.47667 9.04143 10.5003L10.0247 10.4999ZM12.0724 8.43788L12 8.355L11.889 8.48492C11.4242 9.05879 11.1241 9.75378 11.0309 10.5005L12.969 10.5002C12.8732 9.73275 12.5588 9.02017 12.0724 8.43788ZM14.9586 10.5003C14.7869 9.47667 14.097 8.62878 13.1677 8.23575L13.2798 8.41329C13.6554 9.03347 13.9 9.74185 13.9753 10.5L14.9586 10.5003ZM3.999 10V8H1V10H3.999ZM3.999 7V5H1V7H3.999ZM3.999 4L4 2H1.92857C1.45237 2 1.05989 2.38604 1.00625 2.88338L1 3V4H3.999ZM9.999 4L10 2H5L4.999 4H9.999ZM13.1797 2.00673L13.0714 2H11L10.999 4H13.999L14 3C14 2.48716 13.6415 2.06449 13.1797 2.00673Z" fill="#223F44"/>
</g>
</svg>
