<svg width="16" height="16" viewBox="0 0 16 16" fill="none" xmlns="http://www.w3.org/2000/svg">
<g id="icon=list-arrow-left" clip-path="url(#clip0_23_491)">
<path id="vector" d="M13.2016 5.16389H6.13561C5.67382 5.16389 5.3203 4.78384 5.3203 4.34858C5.3203 3.88679 5.70034 3.53327 6.13575 3.53327H13.174L11.054 1.41325C10.7281 1.08735 10.7281 0.570335 11.054 0.244429C11.3799 -0.0814764 11.8969 -0.0814764 12.2228 0.244429L15.7558 3.77743C15.9193 3.94091 16 4.13095 16 4.34858C16 4.56621 15.9183 4.78384 15.7558 4.91973L12.2228 8.45273C12.0593 8.61622 11.8428 8.6969 11.6517 8.6969C11.4341 8.6969 11.2164 8.61516 11.0805 8.45273C10.7546 8.12682 10.7546 7.60981 11.0805 7.2839L13.2016 5.16389ZM0 7.88503C0 7.42324 0.380042 7.06972 0.815308 7.06972H8.86022C9.32201 7.06972 9.70208 7.42324 9.70189 7.88503C9.70189 8.34682 9.32185 8.70034 8.88658 8.70034H0.815308C0.353517 8.70034 0 8.3203 0 7.88503ZM0.815308 10.6027H8.86022C9.32201 10.6027 9.70208 10.9562 9.70189 11.418C9.70189 11.8798 9.32185 12.2333 8.88658 12.2333H0.815308C0.353517 12.2333 0 11.8533 0 11.418C0 10.9562 0.380042 10.6027 0.815308 10.6027ZM8.86022 14.1357C9.32201 14.1357 9.70208 14.4892 9.70189 14.951C9.70189 15.4128 9.32185 15.7663 8.88658 15.7663H0.815308C0.353517 15.7663 0 15.3863 0 14.951C0 14.4892 0.380042 14.1357 0.815308 14.1357H8.86022Z" fill="#223F44"/>
</g>
<defs>
<clipPath id="clip0_23_491">
<rect width="16" height="16" fill="white"/>
</clipPath>
</defs>
</svg>
