<svg width="16" height="16" viewBox="0 0 16 16" fill="none" xmlns="http://www.w3.org/2000/svg">
<g id="icon=script">
<path id="vector" d="M2.45075 7.85748L5.13568 5.06768C5.32755 4.86827 5.43318 4.60324 5.43315 4.32057C5.43315 4.03866 5.32815 3.77428 5.13503 3.57357C4.76253 3.18838 4.07192 3.18709 3.69941 3.57487L0.296877 7.1118C0.108127 7.30732 0 7.57949 0 7.8575C0 8.13552 0.108124 8.40703 0.297501 8.6032L3.70067 12.1406C3.89254 12.3387 4.14755 12.4485 4.41754 12.4485C4.68754 12.4485 4.94191 12.3394 5.13629 12.1387C5.32754 11.9399 5.43254 11.6742 5.43254 11.393C5.43254 11.1117 5.32754 10.8467 5.13504 10.6473L2.45075 7.85748ZM15.7025 8.60105C15.8912 8.40488 16 8.13272 16 7.85535C15.9994 7.57928 15.8919 7.30712 15.7025 7.1112L12.2993 3.57427C11.9281 3.18778 11.2375 3.18713 10.8631 3.57427C10.6718 3.77303 10.5662 4.03871 10.5662 4.31997C10.5662 4.60317 10.6718 4.8682 10.8631 5.06567L13.548 7.85614L10.8631 10.6459C10.6718 10.8447 10.5662 11.1104 10.5662 11.3916C10.5662 11.6735 10.6712 11.9386 10.8643 12.1386C11.0562 12.3374 11.3118 12.4465 11.5818 12.4465C11.8518 12.4465 12.1068 12.3374 12.2993 12.138L15.7025 8.60105ZM10.38 1.57758C10.2269 1.30672 9.98252 1.1151 9.69503 1.03712C9.11067 0.872784 8.46442 1.27227 8.31442 1.87636L5.47765 13.2469C5.3214 13.8718 5.68453 14.5136 6.28639 14.6773C6.37827 14.7019 6.47327 14.7143 6.57013 14.7143C7.08514 14.7143 7.53387 14.3525 7.66262 13.8354L10.4994 2.46552C10.5756 2.16218 10.5325 1.84649 10.38 1.57758Z" fill="#223F44"/>
</g>
</svg>
