<svg width="16" height="16" viewBox="0 0 16 16" fill="none" xmlns="http://www.w3.org/2000/svg">
<g id="icon=hide">
<path id="vector" d="M2.40002 14.5387L14.4758 2.46299C14.7371 2.25668 14.7646 1.92659 14.5858 1.74779L13.9531 1.11512C13.7743 0.936325 13.4443 0.963832 13.2379 1.2114L11.0374 3.39824C10.0471 2.97187 8.96054 2.76557 7.81898 2.76557C4.42182 2.77932 1.47852 4.75986 0.0618917 7.60687C-0.0206306 7.78567 -0.0206306 8.00573 0.0618917 8.15702C0.72207 9.50489 1.71234 10.6189 2.95017 11.4579L1.14843 13.2872C0.942129 13.4935 0.914622 13.8235 1.05216 14.0023L1.68483 14.635C1.86363 14.8138 2.19372 14.7863 2.40002 14.5387ZM7.80523 4.58106C8.41039 4.58106 8.94679 4.73235 9.42817 5.00742L8.54793 5.90141C8.31412 5.8464 8.06655 5.77763 7.83274 5.77763C6.66367 5.77763 5.72842 6.71288 5.72842 7.88195C5.72842 8.11576 5.78343 8.36333 5.8522 8.59714L4.9307 9.50489C4.65563 9.02351 4.50434 8.48711 4.50434 7.88195C4.50434 6.05271 5.97599 4.58106 7.80523 4.58106ZM15.9006 7.661C16.0252 7.47133 16.0252 7.28167 15.9421 7.10556C15.4579 6.15725 14.8214 5.30376 14.0327 4.61285L11.4592 7.10556V7.3765C11.4592 9.17829 9.97866 10.6279 8.13843 10.6279H7.8617L6.22901 12.2264C6.83781 12.3484 7.47428 12.4296 8.09692 12.4296C11.5145 12.4296 14.4755 10.4788 15.9006 7.661Z" fill="#223F44"/>
</g>
</svg>
