<svg width="16" height="16" viewBox="0 0 16 16" fill="none" xmlns="http://www.w3.org/2000/svg">
<g id="icon=calendar" clip-path="url(#clip0_154_1414)">
<path id="vector" d="M1.3913 5.76V14.72H14.6087V5.76H1.3913ZM4.83654 4.20536C4.89423 4.15179 4.92308 4.08333 4.92308 4V1.42857C4.92308 1.34524 4.89423 1.27679 4.83654 1.22321C4.77885 1.16964 4.70513 1.14286 4.61538 1.14286H4C3.91026 1.14286 3.83654 1.16964 3.77885 1.22321C3.72115 1.27679 3.69231 1.34524 3.69231 1.42857V4C3.69231 4.08333 3.72115 4.15179 3.77885 4.20536C3.83654 4.25893 3.91026 4.28571 4 4.28571H4.61538C4.70513 4.28571 4.77885 4.25893 4.83654 4.20536ZM12.2212 4.20536C12.2788 4.15179 12.3077 4.08333 12.3077 4V1.42857C12.3077 1.34524 12.2788 1.27679 12.2212 1.22321C12.1635 1.16964 12.0897 1.14286 12 1.14286H11.3846C11.2949 1.14286 11.2212 1.16964 11.1635 1.22321C11.1058 1.27679 11.0769 1.34524 11.0769 1.42857V4C11.0769 4.08333 11.1058 4.15179 11.1635 4.20536C11.2212 4.25893 11.2949 4.28571 11.3846 4.28571H12C12.0897 4.28571 12.1635 4.25893 12.2212 4.20536ZM15.6346 2.625C15.8782 2.85119 16 3.11905 16 3.42857V14.8571C16 15.1667 15.8782 15.4345 15.6346 15.6607C15.391 15.8869 15.1026 16 14.7692 16H1.23077C0.897436 16 0.608974 15.8869 0.365385 15.6607C0.121795 15.4345 0 15.1667 0 14.8571V3.42857C0 3.11905 0.121795 2.85119 0.365385 2.625C0.608974 2.39881 0.897436 2.28571 1.23077 2.28571H2.46154V1.42857C2.46154 1.03571 2.61218 0.699405 2.91346 0.419643C3.21474 0.139881 3.57692 0 4 0H4.61538C5.03846 0 5.40064 0.139881 5.70192 0.419643C6.0032 0.699405 6.15385 1.03571 6.15385 1.42857V2.56H9.84615V1.42857C9.84615 1.03571 9.9968 0.699405 10.2981 0.419643C10.5994 0.139881 10.9615 0 11.3846 0H12C12.4231 0 12.7853 0.139881 13.0865 0.419643C13.3878 0.699405 13.5385 1.03571 13.5385 1.42857V2.28571H14.7692C15.1026 2.28571 15.391 2.39881 15.6346 2.625Z" fill="#223F44"/>
</g>
<defs>
<clipPath id="clip0_154_1414">
<rect width="16" height="16" fill="white"/>
</clipPath>
</defs>
</svg>
