<svg width="16" height="16" viewBox="0 0 16 16" fill="none" xmlns="http://www.w3.org/2000/svg">
<g id="icon=text" clip-path="url(#clip0_23_518)">
<path id="vector" d="M15.5487 3.36234e-05H0.451408C0.202045 3.36234e-05 0 0.207554 0 0.463667V5.0119C0 5.26802 0.202048 5.47554 0.451408 5.47554H0.970582C1.21227 5.47554 1.41433 5.29297 1.44883 5.04738C1.55881 4.24751 2.03067 2.60968 4.05115 2.64778H5.55371C5.80307 2.64778 6.00512 2.8553 6.00512 3.11141V13.1446C6.00512 13.691 5.57417 14.1336 5.04219 14.1336H3.7647V15.5364C3.7647 15.7925 3.96675 16 4.21611 16H11.7839C12.0333 16 12.2353 15.7925 12.2353 15.5364V14.1349H10.9578C10.4258 14.1349 9.99489 13.6923 9.99489 13.1459V3.11138C9.99489 2.85526 10.1969 2.64774 10.4463 2.64774H11.9488C13.9706 2.60965 14.4412 4.24748 14.5512 5.04734C14.5844 5.29295 14.7877 5.4755 15.0294 5.4755H15.5486C15.798 5.4755 16 5.26798 16 5.01187V0.463633C16 0.207517 15.798 3.36234e-05 15.5487 3.36234e-05Z" fill="#223F44"/>
</g>
<defs>
<clipPath id="clip0_23_518">
<rect width="16" height="16" fill="white"/>
</clipPath>
</defs>
</svg>
