<svg width="16" height="16" viewBox="0 0 16 16" fill="none" xmlns="http://www.w3.org/2000/svg">
<path d="M15.3279 0.00137353L15.3279 0H3.02224C2.72624 0.00137574 2.48721 0.244104 2.48721 0.54468V1.80951H1.53568C1.23968 1.80951 1.00065 2.05224 1.00065 2.35282C1.00065 2.65339 1.23968 2.89612 1.53568 2.89612H2.48721V4.06851L1.53568 4.06785C1.23968 4.06785 1.00065 4.31057 1.00065 4.61115C1.00065 4.91173 1.23968 5.15445 1.53568 5.15445H2.48721V6.32685H1.53503C1.23903 6.32685 1 6.56957 1 6.87015C1 7.17073 1.23903 7.41345 1.53503 7.41345H2.48656V8.58585H1.53503C1.23903 8.58585 1 8.82924 1 9.12915C1 9.42906 1.23903 9.67245 1.53503 9.67245H2.48656V10.8448L1.53503 10.8442C1.23903 10.8442 1 11.0876 1 11.3875C1 11.6874 1.23903 11.9308 1.53503 11.9308H2.48656V13.1025H1.53503C1.23903 13.1025 1 13.3466 1 13.6458C1 13.9457 1.23903 14.1891 1.53503 14.1891H2.48656V15.454C2.48656 15.7539 2.72559 15.9973 3.02159 16H15.3272C15.6226 15.9973 15.8622 15.7539 15.9101 15.454V0.544677C15.8629 0.244102 15.6232 0.00137353 15.3279 0.00137353ZM4.91014 1.08802V14.912H3.55657V14.1905H4.00254C4.29854 14.1905 4.53757 13.9471 4.53757 13.6472C4.53757 13.3479 4.29854 13.1039 4.00254 13.1039H3.55657V11.9322H4.00254C4.29854 11.9322 4.53757 11.6888 4.53757 11.3888C4.53757 11.0889 4.29854 10.8455 4.00254 10.8455H3.55657V9.67315H4.00254C4.29854 9.67315 4.53757 9.42976 4.53757 9.12985C4.53757 8.82994 4.29854 8.58654 4.00254 8.58654H3.55657V7.41415H4.00254C4.29854 7.41415 4.53757 7.17142 4.53757 6.87085C4.53757 6.57027 4.29854 6.32755 4.00254 6.32755H3.55657V5.15515H4.00254C4.29854 5.15515 4.53757 4.91243 4.53757 4.61185C4.53757 4.31127 4.29854 4.06855 4.00254 4.06855H3.55657V2.89615H4.00254C4.29854 2.89615 4.53757 2.65343 4.53757 2.35285C4.53757 2.05227 4.29854 1.80955 4.00254 1.80955H3.55657V1.08802H4.91014ZM11.8113 10.3121C11.5723 10.5795 11.2521 10.7703 10.8578 10.8814V11.7519L10.6561 11.8037C10.6044 11.817 10.55 11.8263 10.4924 11.8337C10.438 11.8396 10.3857 11.8423 10.3359 11.8423C10.2815 11.8423 10.2265 11.8396 10.1722 11.8337C10.1178 11.8277 10.0622 11.8184 10.0078 11.8057L9.79889 11.7585V11.0051C9.69935 11.0024 9.60637 10.9978 9.52057 10.9904C9.38566 10.9798 9.26058 10.9632 9.14467 10.9412C9.02744 10.9193 8.91481 10.8907 8.80545 10.8581C8.70329 10.8262 8.59785 10.7929 8.49046 10.7564L8.28941 10.6885L8.30775 10.4751C8.31888 10.3467 8.34377 10.2151 8.3811 10.0847C8.41515 9.96434 8.45379 9.84664 8.49635 9.73292L8.58673 9.49219L8.82837 9.57132C8.99144 9.62519 9.15909 9.67307 9.33197 9.71363C9.4911 9.75154 9.69018 9.77149 9.92266 9.77149C10.2684 9.77149 10.5192 9.70897 10.6699 9.58729C10.8061 9.4769 10.8689 9.33126 10.8689 9.13043C10.8689 9.02735 10.8552 8.9449 10.8283 8.88305C10.8028 8.8252 10.7642 8.77532 10.7118 8.73077C10.6456 8.67557 10.5579 8.6237 10.4511 8.57516C10.3221 8.51731 10.1708 8.45014 9.99796 8.37499L9.6404 8.22404C9.47996 8.15887 9.32868 8.08306 9.19312 7.99993C9.04708 7.91082 8.91612 7.8031 8.80675 7.6794C8.69149 7.54906 8.60176 7.39478 8.54022 7.21989C8.47997 7.04832 8.44985 6.84616 8.44985 6.61874C8.44985 6.15857 8.59196 5.77353 8.87158 5.4736C9.10144 5.22756 9.41251 5.05864 9.79822 4.96954V4.24934L9.9973 4.19548C10.1951 4.14228 10.4557 4.14427 10.6541 4.19415L10.8571 4.24535V4.91235C10.9907 4.92499 11.123 4.94294 11.2527 4.96555C11.4708 5.00412 11.6626 5.05466 11.8231 5.11651L12.0189 5.19165L11.9947 5.40312C11.9672 5.63919 11.9049 5.87593 11.8113 6.10603L11.7131 6.34743L11.4714 6.25699C11.3489 6.2111 11.2055 6.16987 11.0431 6.13463C10.8886 6.10071 10.7032 6.08342 10.493 6.08342C10.2363 6.08342 10.0444 6.12864 9.92067 6.21642C9.85977 6.25965 9.77922 6.34277 9.77922 6.55757C9.77922 6.63537 9.79166 6.69988 9.81655 6.74909C9.8434 6.80229 9.884 6.8495 9.94097 6.89339C10.0117 6.94925 10.0995 7.00112 10.2016 7.04701C10.3221 7.1022 10.459 7.16205 10.6109 7.22722L10.8964 7.34892C11.0818 7.42739 11.254 7.51118 11.4092 7.59762C11.5788 7.69271 11.7255 7.80776 11.846 7.93943C11.9717 8.07642 12.0713 8.23868 12.14 8.42288C12.2088 8.60575 12.2448 8.8252 12.2448 9.0759C12.2442 9.57532 12.0981 9.99094 11.8113 10.3121Z" fill="#223F44"/>
</svg>
