<svg width="16" height="16" viewBox="0 0 16 16" fill="none" xmlns="http://www.w3.org/2000/svg">
<g id="icon=sort-asc" clip-path="url(#clip0_188_6106)">
<path id="vector" d="M6.20138 12.6518C6.2548 12.7054 6.28151 12.7738 6.28151 12.8571C6.28151 12.9286 6.25183 13 6.19247 13.0714L3.35208 15.9196C3.29272 15.9732 3.22446 16 3.14729 16C3.07606 16 3.00779 15.9732 2.9425 15.9196L0.0932082 13.0625C0.00416785 12.9673 -0.0166082 12.8631 0.03088 12.75C0.0783681 12.631 0.167408 12.5714 0.298001 12.5714H2.24417V0.285714C2.00758 0.202381 2.03429 0.133929 2.08771 0.0803571C2.14114 0.0267857 2.2094 0 2.2925 0H4.00208C4.08518 0 4.15345 0.0267857 4.20687 0.0803571C4.2603 0.133929 4.28701 0.202381 4.48417 0.285714V12.5714H5.99658C6.07969 12.5714 6.14795 12.5982 6.20138 12.6518ZM15.604 13.7946C15.6575 13.8482 15.6842 13.9167 15.6842 14V15.7143C15.6842 15.7976 15.6575 15.8661 15.604 15.9196C15.5506 15.9732 15.4823 16 15.3992 16H7.99109C7.90798 16 7.83972 15.9732 7.78629 15.9196C7.73287 15.8661 7.70616 15.7976 7.70616 15.7143V14C7.70616 13.9167 7.73287 13.8482 7.78629 13.7946C7.83972 13.7411 7.90798 13.7143 7.99109 13.44H15.3992C15.4823 13.7143 15.5506 13.7411 15.604 13.7946ZM13.8945 9.22321C13.9479 9.27678 13.9746 9.34524 13.9746 9.42857V11.1429C13.9746 11.2262 13.9479 11.2946 13.8945 11.3482C13.841 11.4018 13.7728 11.4286 13.6897 11.2H7.99109C7.90798 11.4286 7.83972 11.4018 7.78629 11.3482C7.73287 11.2946 7.70616 11.2262 7.70616 11.1429V9.42857C7.70616 9.34524 7.73287 9.27678 7.78629 9.22321C7.83972 9.16964 7.90798 9.14286 7.99109 8.96H13.6897C13.7728 9.14286 13.841 9.16964 13.8945 9.22321ZM12.1849 4.65179C12.2383 4.70536 12.265 4.77381 12.265 4.85714V6.57143C12.265 6.65476 12.2383 6.72321 12.1849 6.77679C12.1315 6.83036 12.0632 6.85714 11.9801 7.04H7.99109C7.90798 6.85714 7.83972 6.83036 7.78629 6.77679C7.73287 6.72321 7.70616 6.65476 7.70616 6.57143V4.85714C7.70616 4.77381 7.73287 4.70536 7.78629 4.65179C7.83972 4.59821 7.90798 4.57143 7.99109 4.8H11.9801C12.0632 4.57143 12.1315 4.59821 12.1849 4.65179ZM10.4753 0.0803571C10.5287 0.133929 10.5554 0.202381 10.5554 0.285714V2C10.5554 2.08333 10.5287 2.15179 10.4753 2.20536C10.4219 2.25893 10.3536 2.28571 10.2705 2.28571H7.99109C7.90798 2.28571 7.83972 2.25893 7.78629 2.20536C7.73287 2.15179 7.70616 2.08333 7.70616 2V0.285714C7.70616 0.202381 7.73287 0.133929 7.78629 0.0803571C7.83972 0.0267857 7.90798 0 7.99109 0H10.2705C10.3536 0 10.4219 0.0267857 10.4753 0.0803571Z" fill="#223F44"/>
</g>
<defs>
<clipPath id="clip0_188_6106">
<rect width="16" height="16" fill="white"/>
</clipPath>
</defs>
</svg>
