<svg width="16" height="16" viewBox="0 0 16 16" fill="none" xmlns="http://www.w3.org/2000/svg">
<g id="icon=structure">
<path id="vector" d="M13.0904 10.8116L13.091 7.34619H8.62449L8.62516 5.18838C9.72193 4.89878 10.5335 3.86539 10.5335 2.63481C10.5335 1.17987 9.39928 0 7.99932 0C6.59997 0 5.46518 1.17992 5.46518 2.63481C5.46518 3.86544 6.27673 4.89876 7.37416 5.18838V7.34619H2.90898V10.8116C1.81154 11.1012 1 12.1346 1 13.3652C1 14.8201 2.13484 16 3.53414 16C4.93344 16 6.06828 14.8201 6.06828 13.3652C6.06828 12.1339 5.25672 11.1012 4.15929 10.8116V8.69133H11.84V10.8116C10.7432 11.1012 9.93172 12.1346 9.93172 13.3652C9.93172 14.8201 11.0666 16 12.4659 16C13.8659 16 15 14.8201 15 13.3652C14.9993 12.1346 14.1878 11.1012 13.0904 10.8116Z" fill="#223F44"/>
</g>
</svg>
