<svg width="16" height="16" viewBox="0 0 16 16" fill="none" xmlns="http://www.w3.org/2000/svg">
<g id="icon=pin" clip-path="url(#clip0_30_149)">
<path id="vector" d="M0.590739 15.9995C0.749332 15.9931 0.89797 15.9214 1.00109 15.8014L6.207 10.6029L5.40478 9.8018L0.198874 15.0003C0.0786828 15.1033 0.00685167 15.2517 0.000461261 15.4101C-0.00593935 15.5678 0.0545122 15.7219 0.166878 15.8334C0.278533 15.9456 0.432854 16.0059 0.590739 15.9995ZM14.0642 5.64866C14.5506 5.99665 15.2184 5.94267 15.6416 5.5194C16.0654 5.09685 16.1195 4.42999 15.771 3.94423L15.7937 3.92149L12.0956 0.228671C11.6091 -0.119322 10.9414 -0.0653444 10.5182 0.357923C10.0943 0.780474 10.0403 1.44733 10.3888 1.9331C10.4165 1.9679 10.4165 2.01761 10.3888 2.05241L8.34619 4.09208C7.86756 4.59915 7.09734 4.70142 6.5028 4.33639C5.46803 3.62053 4.06843 3.74694 3.18015 4.63749L2.52017 5.3079C2.30681 5.52805 2.30681 5.87746 2.52017 6.09763L9.91648 13.4835C10.1384 13.7036 10.4968 13.7036 10.7187 13.4835L11.39 12.813C12.2719 11.9246 12.3935 10.5348 11.6802 9.50638C11.3147 8.91268 11.4171 8.14355 11.9249 7.6656L13.9447 5.64866C13.9795 5.62096 14.0293 5.62096 14.0642 5.64866Z" fill="#223F44"/>
</g>
<defs>
<clipPath id="clip0_30_149">
<rect width="16" height="16" fill="white"/>
</clipPath>
</defs>
</svg>
