<svg width="52" height="32" viewBox="0 0 52 32" fill="none" xmlns="http://www.w3.org/2000/svg">
<path fill-rule="evenodd" clip-rule="evenodd" d="M16.3352 18.3771V5.30894H11.843V18.3771H16.3352ZM22.0525 3.67542H17.5603V18.3771H22.0525V3.67542ZM5.71732 11.0263V18.3771H10.6179V11.0263H5.71732ZM0 18.3771H4.90056V13.0682H0V18.3771ZM27.3615 18.3771V0H23.2777V18.3771H27.3615ZM33.4872 3.67542H28.995V18.3771H33.4872V3.67542ZM34.7123 5.30894V18.3771H39.2045V5.30894H34.7123ZM40.4296 18.3771H45.3302V11.0263H40.4296V18.3771ZM51.0475 18.3771V13.0682H48.5972H46.1469V18.3771H51.0475ZM0.676371 22.6897H2.81201V22.0188H0.676371V20.2734H4.73197V19.6022H0V25.3196H4.90056V24.6486H0.676371V22.6897ZM6.91647 19.6022L9.08954 23.4669L11.2623 19.6022H11.9483V25.3196H11.2623V20.9362H11.2475L9.08954 24.8396L6.93233 20.9362H6.91647V25.3196H6.23101V19.6022H6.91647ZM17.9901 20.3911C17.8696 20.1827 17.7197 20.0202 17.5413 19.9035C17.3628 19.7872 17.1708 19.7078 16.9642 19.6654C16.7574 19.623 16.5673 19.6022 16.3912 19.6022H13.2788V25.1834H13.9317V22.7943H16.3912C16.6369 22.7943 16.8697 22.7673 17.0885 22.7129C17.308 22.6582 17.4964 22.5677 17.6545 22.441C17.8128 22.3148 17.939 22.151 18.0318 21.95C18.1248 21.7491 18.1714 21.5003 18.1714 21.2024C18.1714 20.8699 18.1111 20.5993 17.9901 20.3911ZM17.4133 20.7262C17.4761 20.8501 17.5078 21.0086 17.5078 21.2024C17.5078 21.3908 17.4784 21.5445 17.4208 21.6636C17.3628 21.7825 17.285 21.8784 17.1867 21.95C17.0885 22.0224 16.9704 22.0712 16.8321 22.0992C16.6939 22.1264 16.5472 22.14 16.3912 22.14H13.9317V20.2574H16.3912C16.5318 20.2574 16.67 20.2696 16.8057 20.2941C16.9417 20.3191 17.0613 20.3663 17.1642 20.4361C17.2669 20.5053 17.3504 20.6019 17.4133 20.7262ZM20.3358 19.6022L22.1567 22.0113L23.9768 19.6022H24.8108L22.4639 22.6742V25.3196H21.82V22.6742L19.5019 19.6022H20.3358ZM31.1398 20.5847C31.0666 20.4111 30.9684 20.2646 30.8454 20.1457C30.7225 20.0263 30.5816 19.9308 30.423 19.8588C30.2641 19.7872 30.1012 19.7322 29.9326 19.6956C29.7638 19.6583 29.5953 19.6334 29.4272 19.6206C29.2587 19.6087 29.1033 19.6022 28.963 19.6022H26.1413V25.1833H26.8049V22.8613H29.0456L30.351 25.1833H31.1135L29.8006 22.8613C29.9663 22.8469 30.1349 22.808 30.3061 22.7464C30.4769 22.6841 30.6328 22.5888 30.7736 22.4601C30.9142 22.331 31.029 22.1648 31.1173 21.9612C31.2047 21.758 31.2493 21.5048 31.2493 21.2024C31.2493 20.9644 31.2124 20.7584 31.1398 20.5847ZM30.4797 20.7669C30.5503 20.8884 30.5851 21.0362 30.5851 21.2096C30.5851 21.4381 30.5503 21.6179 30.4797 21.7489C30.4093 21.8805 30.3122 21.9797 30.189 22.0468C30.0658 22.1141 29.9224 22.1574 29.7592 22.1771C29.5953 22.1969 29.4204 22.2067 29.2344 22.2067H26.8049V20.2574H29.3554C29.5065 20.2574 29.6554 20.2749 29.8045 20.309C29.9519 20.3445 30.0846 20.3985 30.2002 20.473C30.316 20.5474 30.4093 20.6455 30.4797 20.7669ZM35.391 22.6897H33.2557V24.6486H37.4803V25.3196H32.5798V19.6022H37.3114V20.2734H33.2557V22.0188H35.391V22.6897ZM42.1682 19.6022H41.5042L38.8108 25.1833H39.5503L40.4404 23.2709H43.1562L44.0768 25.1833H44.8165L42.1682 19.6022ZM41.8362 20.3985L42.8624 22.6161H40.7721L41.8362 20.3985ZM50.3977 24.3207V19.6022H51.0475V25.3196H50.3977L46.8114 20.6625H46.7966V25.3196H46.1469V19.6022H46.7966L50.3834 24.3207H50.3977ZM0 26.5447H51.0475V26.9531H0V26.5447ZM13.9231 30.0817C13.9231 29.5046 13.7681 29.0431 13.4582 28.6971C13.1484 28.3512 12.736 28.1782 12.2212 28.1782C11.7047 28.1782 11.292 28.3516 10.9829 28.6984C10.6739 29.0451 10.5194 29.5079 10.5194 30.0867C10.5194 30.6621 10.6731 31.1249 10.9805 31.4749C11.2879 31.825 11.6941 32 12.1991 32C12.7286 32 13.1484 31.8274 13.4582 31.4823C13.7681 31.1372 13.9231 30.6703 13.9231 30.0817ZM33.7515 28.1782C33.235 28.1782 32.8223 28.3516 32.5132 28.6984C32.2042 29.0451 32.0496 29.5079 32.0496 30.0867C32.0496 30.6621 32.2033 31.1249 32.5108 31.4749C32.8182 31.825 33.2244 32 33.7294 32C34.2589 32 34.6786 31.8274 34.9885 31.4823C35.2984 31.1372 35.4533 30.6703 35.4533 30.0817C35.4533 29.5046 35.2984 29.0431 34.9885 28.6971C34.6786 28.3512 34.2663 28.1782 33.7515 28.1782ZM8.42521 28.7906V28.3184C8.1137 28.2249 7.81776 28.1782 7.5374 28.1782C7.2226 28.1782 6.96356 28.2688 6.76025 28.45C6.55695 28.6311 6.4553 28.8619 6.4553 29.1423C6.4553 29.3505 6.51883 29.5329 6.6459 29.6895C6.77296 29.846 6.99143 30.0129 7.3013 30.1899L7.55215 30.335C7.77022 30.458 7.91982 30.5695 8.00098 30.6695C8.08214 30.7695 8.12272 30.8908 8.12272 31.0335C8.12272 31.2073 8.06082 31.3475 7.93704 31.454C7.81325 31.5606 7.64971 31.6139 7.4464 31.6139C7.18244 31.6139 6.84551 31.5188 6.43562 31.3286V31.8401C6.816 31.9467 7.12833 32 7.37262 32C7.75792 32 8.06738 31.9041 8.30102 31.7123C8.53465 31.5204 8.65147 31.2663 8.65147 30.9499C8.65147 30.7269 8.58917 30.5359 8.46456 30.3769C8.33996 30.2178 8.12026 30.0489 7.80546 29.8702L7.54478 29.7227C7.31852 29.5931 7.16276 29.4817 7.07751 29.3882C6.99225 29.2947 6.94962 29.1874 6.94962 29.066C6.94962 28.9218 7.00782 28.8021 7.12423 28.707C7.24064 28.6119 7.3882 28.5643 7.56691 28.5643C7.75546 28.5643 8.04156 28.6397 8.42521 28.7906ZM18.1617 31.5229H16.5238V28.2692H16.0074V31.909H18.1617V31.5229ZM22.184 28.2692V30.5834C22.184 30.9573 22.1237 31.2224 22.0032 31.379C21.8827 31.5356 21.6782 31.6139 21.3896 31.6139C21.0945 31.6139 20.8793 31.5307 20.744 31.3643C20.6088 31.1978 20.5411 30.9318 20.5411 30.5662V28.2692H20.0247V30.5613C20.0247 31.0515 20.1329 31.4139 20.3493 31.6483C20.5657 31.8828 20.901 32 21.3552 32C21.8011 32 22.1262 31.8869 22.3303 31.6606C22.5344 31.4344 22.6365 31.0728 22.6365 30.5761V28.2692H22.184ZM24.4798 28.6553H25.7709V31.909H26.2874V28.6553H27.5785V28.2692H24.4798V28.6553ZM29.9653 31.909V28.2692H29.4489V31.909H29.9653ZM37.9803 29.098L39.815 31.909H40.3191V28.2692H39.8765V31.0802L38.0443 28.2692H37.5376V31.909H37.9803V29.098ZM11.3703 31.2056C11.1686 30.9335 11.0678 30.5597 11.0678 30.0842C11.0678 29.6071 11.1694 29.2345 11.3727 28.9664C11.576 28.6984 11.8589 28.5643 12.2212 28.5643C12.5819 28.5643 12.8643 28.698 13.0684 28.9652C13.2726 29.2324 13.3746 29.603 13.3746 30.0768C13.3746 30.5654 13.273 30.9437 13.0697 31.2118C12.8664 31.4799 12.5786 31.6139 12.2064 31.6139C11.8507 31.6139 11.5719 31.4778 11.3703 31.2056ZM32.903 28.9664C33.1063 28.6984 33.3891 28.5643 33.7515 28.5643C34.1122 28.5643 34.3946 28.698 34.5987 28.9652C34.8028 29.2324 34.9049 29.603 34.9049 30.0768C34.9049 30.5654 34.8033 30.9437 34.6 31.2118C34.3966 31.4799 34.1089 31.6139 33.7367 31.6139C33.3809 31.6139 33.1022 31.4778 32.9006 31.2056C32.6989 30.9335 32.5981 30.5597 32.5981 30.0842C32.5981 29.6071 32.6997 29.2345 32.903 28.9664ZM44.2615 31.7123C44.4951 31.5204 44.6119 31.2663 44.6119 30.9499C44.6119 30.7269 44.5496 30.5359 44.425 30.3769C44.3004 30.2178 44.0807 30.0489 43.7659 29.8702L43.5052 29.7227C43.279 29.5931 43.1232 29.4817 43.0379 29.3882C42.9527 29.2947 42.9101 29.1874 42.9101 29.066C42.9101 28.9218 42.9683 28.8021 43.0847 28.707C43.2011 28.6119 43.3486 28.5643 43.5273 28.5643C43.7159 28.5643 44.002 28.6397 44.3856 28.7906V28.3184C44.0741 28.2249 43.7782 28.1782 43.4978 28.1782C43.183 28.1782 42.924 28.2688 42.7207 28.45C42.5174 28.6311 42.4157 28.8619 42.4157 29.1423C42.4157 29.3505 42.4793 29.5329 42.6063 29.6895C42.7334 29.846 42.9519 30.0129 43.2617 30.1899L43.5126 30.335C43.7307 30.458 43.8803 30.5695 43.9614 30.6695C44.0426 30.7695 44.0832 30.8908 44.0832 31.0335C44.0832 31.2073 44.0213 31.3475 43.8975 31.454C43.7737 31.5606 43.6101 31.6139 43.4068 31.6139C43.1429 31.6139 42.806 31.5188 42.3961 31.3286V31.8401C42.7764 31.9467 43.0888 32 43.3331 32C43.7184 32 44.0278 31.9041 44.2615 31.7123Z" fill="#223F44"/>
</svg>
