<svg width="125" height="79" viewBox="0 0 125 79" fill="none" xmlns="http://www.w3.org/2000/svg">
<path d="M125 45V32C125 32 121.343 32 119 32C116.657 32 113 32 113 32V45H125ZM40 45V13H29V45H40ZM54 45V9H43V45H54ZM14 27V45H26V27H14ZM0 45H12V32H0V45ZM67 45V0H57V45H67ZM82 9H71V45H82V9ZM85 13V45H96V13H85ZM99 45H111V27H99V45ZM113 45V32C113 32 116.657 32 119 32C121.343 32 125 32 125 32V45H113Z" fill="url(#paint0_linear_23_378)"/>
<path d="M125 45V32H119H113V45H125Z" fill="url(#paint1_linear_23_378)"/>
<path d="M1.65623 55.5603H6.88577V53.9173H1.65623V49.6434H11.5872V48H0V62H12V60.357H1.65623V55.5603Z" fill="url(#paint2_linear_23_378)"/>
<path d="M22.2575 57.4634L16.9363 48H15.2578V62H16.9363V51.2666H16.9751L22.2575 60.8247L27.5417 51.2666H27.5781V62H29.2578V48H27.5781L22.2575 57.4634Z" fill="url(#paint3_linear_23_378)"/>
<path d="M44.0525 49.9316C43.7572 49.4213 43.3902 49.0234 42.9534 48.7377C42.5164 48.4529 42.0461 48.2585 41.5404 48.1547C41.0338 48.0508 40.5684 48 40.1371 48C40.1371 48 32.4881 48 32.5158 48V61.6667H34.1145V55.8165H40.1371C40.7388 55.8165 41.309 55.7504 41.8446 55.617C42.3822 55.4832 42.8434 55.2616 43.2306 54.9512C43.6181 54.6423 43.9272 54.241 44.1546 53.7491C44.3823 53.2569 44.4964 52.6477 44.4964 51.9182C44.4964 51.1041 44.3486 50.4415 44.0525 49.9316ZM42.6399 50.7524C42.7938 51.0558 42.8713 51.4438 42.8713 51.9182C42.8713 52.3797 42.7995 52.7561 42.6584 53.0476C42.5164 53.3387 42.3257 53.5736 42.0851 53.7491C41.8446 53.9262 41.5554 54.0458 41.2169 54.1143C40.8783 54.1808 40.5192 54.2142 40.1371 54.2142H34.1145V49.6042H40.1371C40.4814 49.6042 40.8199 49.634 41.1522 49.6943C41.4853 49.7553 41.7781 49.871 42.03 50.0418C42.2814 50.2114 42.4859 50.4479 42.6399 50.7524Z" fill="url(#paint4_linear_23_378)"/>
<path d="M54.2553 53.8992L49.7963 48H47.7543L53.4307 55.5223V62H55.0075V55.5223L60.7543 48H58.712L54.2553 53.8992Z" fill="url(#paint5_linear_23_378)"/>
<path d="M76.252 50.4058C76.0728 49.9808 75.8323 49.622 75.5311 49.3308C75.2302 49.0383 74.8851 48.8046 74.4969 48.6284C74.1077 48.4529 73.7087 48.3183 73.296 48.2287C72.8826 48.1374 72.47 48.0764 72.0584 48.0449C71.6458 48.0157 71.2654 48 70.9217 48H64.0121V61.6663H65.6372V55.9804H71.124L74.3206 61.6663H76.1877L72.9726 55.9804C73.3785 55.9452 73.7913 55.8499 74.2106 55.6992C74.6289 55.5465 75.0105 55.3132 75.3552 54.9979C75.6997 54.682 75.9807 54.2749 76.1969 53.7763C76.411 53.2789 76.5202 52.6588 76.5202 51.9182C76.5202 51.3356 76.4299 50.8311 76.252 50.4058ZM74.6356 50.8519C74.8084 51.1494 74.8938 51.5115 74.8938 51.9359C74.8938 52.4956 74.8084 52.9358 74.6356 53.2565C74.4631 53.5788 74.2254 53.8216 73.9239 53.986C73.6221 54.1508 73.2709 54.2568 72.8714 54.3051C72.47 54.3535 72.0417 54.3774 71.5862 54.3774H65.6372V49.6042H71.8825C72.2526 49.6042 72.6172 49.6471 72.9822 49.7305C73.3433 49.8176 73.6681 49.9497 73.9513 50.1323C74.2348 50.3144 74.4631 50.5545 74.6356 50.8519Z" fill="url(#paint6_linear_23_378)"/>
<path d="M81.4332 55.5603H86.6619V53.9173H81.4332V49.6434H91.3645V48H79.7781V62H91.7781V60.357H81.4332V55.5603Z" fill="url(#paint7_linear_23_378)"/>
<path d="M103.257 48H101.631L95.0359 61.6663H96.8469L99.0265 56.9835H105.676L107.931 61.6663H109.742L103.257 48ZM102.444 49.9497L104.957 55.3801H99.8387L102.444 49.9497Z" fill="url(#paint8_linear_23_378)"/>
<path d="M123.409 48V59.554H123.374L114.591 48H113V62H114.591V50.5963H114.627L123.409 62H125V48H123.409Z" fill="url(#paint9_linear_23_378)"/>
<rect y="65" width="125" height="1" fill="#223F44"/>
<path d="M32.9552 70.2707C33.714 71.1178 34.0934 72.2479 34.0934 73.6611C34.0934 75.1024 33.714 76.2456 32.9552 77.0907C32.1964 77.9359 31.1686 78.3584 29.8719 78.3584C28.6353 78.3584 27.6407 77.9298 26.8879 77.0727C26.1351 76.2155 25.7587 75.0824 25.7587 73.6732C25.7587 72.256 26.1371 71.1228 26.8939 70.2737C27.6507 69.4246 28.6614 69 29.9261 69C31.1867 69 32.1964 69.4236 32.9552 70.2707ZM79.6151 70.2737C80.3719 69.4246 81.3826 69 82.6473 69C83.9079 69 84.9176 69.4236 85.6764 70.2707C86.4352 71.1178 86.8146 72.2479 86.8146 73.6611C86.8146 75.1024 86.4352 76.2456 85.6764 77.0907C84.9176 77.9359 83.8898 78.3584 82.5931 78.3584C81.3565 78.3584 80.3619 77.9298 79.6091 77.0727C78.8563 76.2155 78.4799 75.0824 78.4799 73.6732C78.4799 72.256 78.8583 71.1228 79.6151 70.2737ZM20.6308 69.3433V70.4995C19.6914 70.1302 18.9908 69.9455 18.5291 69.9455C18.0915 69.9455 17.7302 70.0619 17.4451 70.2948C17.1601 70.5276 17.0175 70.8207 17.0175 71.174C17.0175 71.4711 17.1219 71.734 17.3307 71.9629C17.5395 72.1917 17.9209 72.4647 18.4749 72.7819L19.1132 73.1432C19.8841 73.5808 20.422 73.9944 20.7272 74.3838C21.0323 74.7732 21.1849 75.2409 21.1849 75.7869C21.1849 76.5618 20.8988 77.1841 20.3267 77.6538C19.7546 78.1235 18.9968 78.3584 18.0533 78.3584C17.4551 78.3584 16.6903 78.2279 15.7589 77.967V76.7144C16.7626 77.1801 17.5876 77.4129 18.234 77.4129C18.7318 77.4129 19.1323 77.2824 19.4354 77.0215C19.7385 76.7605 19.8901 76.4173 19.8901 75.9917C19.8901 75.6424 19.7907 75.3453 19.592 75.1004C19.3933 74.8555 19.0269 74.5825 18.493 74.2814L17.8787 73.9261C17.1199 73.4925 16.5849 73.084 16.2738 72.7006C15.9627 72.3172 15.8071 71.8706 15.8071 71.3607C15.8071 70.6742 16.056 70.1091 16.5538 69.6654C17.0517 69.2218 17.686 69 18.4568 69C19.1434 69 19.868 69.1144 20.6308 69.3433ZM40.4619 77.1901H44.4726V78.1356H39.1972V69.2228H40.4619V77.1901ZM54.3219 74.8896V69.2228H55.43V74.8716C55.43 76.0881 55.1801 76.9733 54.6802 77.5273C54.1804 78.0814 53.3845 78.3584 52.2924 78.3584C51.1803 78.3584 50.3593 78.0713 49.8294 77.4972C49.2994 76.9231 49.0345 76.0359 49.0345 74.8354V69.2228H50.2991V74.8475C50.2991 75.7428 50.4647 76.3942 50.7959 76.8017C51.1272 77.2092 51.6541 77.4129 52.3767 77.4129C53.0833 77.4129 53.5842 77.2212 53.8793 76.8378C54.1744 76.4544 54.3219 75.805 54.3219 74.8896ZM63.1053 70.1683H59.9436V69.2228H67.5315V70.1683H64.3699V78.1356H63.1053V70.1683ZM73.3761 69.2228V78.1356H72.1115V69.2228H73.3761ZM97.4949 78.1356L93.0024 71.2523V78.1356H91.9184V69.2228H93.159L97.6455 76.1061V69.2228H98.7295V78.1356H97.4949ZM27.1017 73.6672C27.1017 74.8314 27.3486 75.7468 27.8424 76.4132C28.3362 77.0797 29.0187 77.4129 29.8899 77.4129C30.8013 77.4129 31.5059 77.0847 32.0037 76.4283C32.5015 75.7719 32.7504 74.8455 32.7504 73.6491C32.7504 72.4888 32.5005 71.5815 32.0007 70.9271C31.5009 70.2727 30.8093 69.9455 29.9261 69.9455C29.0388 69.9455 28.3463 70.2737 27.8484 70.9301C27.3506 71.5865 27.1017 72.4989 27.1017 73.6672ZM82.6473 69.9455C81.76 69.9455 81.0675 70.2737 80.5696 70.9301C80.0718 71.5865 79.8229 72.4989 79.8229 73.6672C79.8229 74.8314 80.0698 75.7468 80.5636 76.4132C81.0574 77.0797 81.7399 77.4129 82.6111 77.4129C83.5225 77.4129 84.2271 77.0847 84.7249 76.4283C85.2227 75.7719 85.4716 74.8455 85.4716 73.6491C85.4716 72.4888 85.2217 71.5815 84.7219 70.9271C84.222 70.2727 83.5305 69.9455 82.6473 69.9455ZM109.241 75.7869C109.241 76.5618 108.955 77.1841 108.383 77.6538C107.811 78.1235 107.053 78.3584 106.11 78.3584C105.511 78.3584 104.747 78.2279 103.815 77.967V76.7144C104.819 77.1801 105.644 77.4129 106.29 77.4129C106.788 77.4129 107.189 77.2824 107.492 77.0215C107.795 76.7605 107.946 76.4173 107.946 75.9917C107.946 75.6424 107.847 75.3453 107.648 75.1004C107.45 74.8555 107.083 74.5825 106.549 74.2814L105.935 73.9261C105.176 73.4925 104.641 73.084 104.33 72.7006C104.019 72.3172 103.863 71.8706 103.863 71.3607C103.863 70.6742 104.112 70.1091 104.61 69.6654C105.108 69.2218 105.742 69 106.513 69C107.2 69 107.924 69.1144 108.687 69.3433V70.4995C107.748 70.1302 107.047 69.9455 106.585 69.9455C106.148 69.9455 105.786 70.0619 105.501 70.2948C105.216 70.5276 105.074 70.8207 105.074 71.174C105.074 71.4711 105.178 71.734 105.387 71.9629C105.596 72.1917 105.977 72.4647 106.531 72.7819L107.17 73.1432C107.94 73.5808 108.478 73.9944 108.783 74.3838C109.089 74.7732 109.241 75.2409 109.241 75.7869Z" fill="#223F44"/>
<defs>
<linearGradient id="paint0_linear_23_378" x1="125" y1="23" x2="0" y2="23" gradientUnits="userSpaceOnUse">
<stop stop-color="#568097"/>
<stop offset="0.0001" stop-color="#568097"/>
<stop offset="1" stop-color="#231F20"/>
</linearGradient>
<linearGradient id="paint1_linear_23_378" x1="125" y1="23" x2="0" y2="23" gradientUnits="userSpaceOnUse">
<stop stop-color="#568097"/>
<stop offset="0.0001" stop-color="#568097"/>
<stop offset="1" stop-color="#231F20"/>
</linearGradient>
<linearGradient id="paint2_linear_23_378" x1="12" y1="55.1556" x2="0" y2="55.1556" gradientUnits="userSpaceOnUse">
<stop stop-color="#568097"/>
<stop offset="0.0001" stop-color="#568097"/>
<stop offset="1" stop-color="#231F20"/>
</linearGradient>
<linearGradient id="paint3_linear_23_378" x1="29.2578" y1="55.1556" x2="15.2578" y2="55.1556" gradientUnits="userSpaceOnUse">
<stop stop-color="#568097"/>
<stop offset="0.0001" stop-color="#568097"/>
<stop offset="1" stop-color="#231F20"/>
</linearGradient>
<linearGradient id="paint4_linear_23_378" x1="44.4964" y1="54.9852" x2="32.5157" y2="54.9852" gradientUnits="userSpaceOnUse">
<stop stop-color="#568097"/>
<stop offset="0.0001" stop-color="#568097"/>
<stop offset="1" stop-color="#231F20"/>
</linearGradient>
<linearGradient id="paint5_linear_23_378" x1="60.7543" y1="55.1556" x2="47.7543" y2="55.1556" gradientUnits="userSpaceOnUse">
<stop stop-color="#568097"/>
<stop offset="0.0001" stop-color="#568097"/>
<stop offset="1" stop-color="#231F20"/>
</linearGradient>
<linearGradient id="paint6_linear_23_378" x1="76.5202" y1="54.985" x2="64.0121" y2="54.985" gradientUnits="userSpaceOnUse">
<stop stop-color="#568097"/>
<stop offset="0.0001" stop-color="#568097"/>
<stop offset="1" stop-color="#231F20"/>
</linearGradient>
<linearGradient id="paint7_linear_23_378" x1="91.7781" y1="55.1556" x2="79.7781" y2="55.1556" gradientUnits="userSpaceOnUse">
<stop stop-color="#568097"/>
<stop offset="0.0001" stop-color="#568097"/>
<stop offset="1" stop-color="#231F20"/>
</linearGradient>
<linearGradient id="paint8_linear_23_378" x1="109.742" y1="54.985" x2="95.0359" y2="54.985" gradientUnits="userSpaceOnUse">
<stop stop-color="#568097"/>
<stop offset="0.0001" stop-color="#568097"/>
<stop offset="1" stop-color="#231F20"/>
</linearGradient>
<linearGradient id="paint9_linear_23_378" x1="125" y1="55.1556" x2="113" y2="55.1556" gradientUnits="userSpaceOnUse">
<stop stop-color="#568097"/>
<stop offset="0.0001" stop-color="#568097"/>
<stop offset="1" stop-color="#231F20"/>
</linearGradient>
</defs>
</svg>
